<?xml version="1.0" encoding="utf-8" ?>
<svg baseProfile="full" height="200mm" version="1.1" viewBox="0,0,200,200" width="200mm" xmlns="http://www.w3.org/2000/svg" xmlns:ev="http://www.w3.org/2001/xml-events" xmlns:xlink="http://www.w3.org/1999/xlink"><defs /><rect fill="#1a1a1a" height="200" width="200" x="0" y="0" /><text alignment-baseline="middle" fill="#e1ed5e" style="dominant-baseline: central; font-size:9.0px; font-family:Arial;" text-anchor="middle" x="100.0" y="100.0">2018</text><line stroke="#e1ed5e" stroke-width="0.3" x1="100.0" x2="100.0" y1="15.0" y2="10.0" /><path d="M 100.0 14.0 a86.0,86.0 0 0,1 42.46469731375804,11.215312516191453" fill="none" id="id85" stroke="none" /><text fill="#e1ed5e" style="font-size:6.75px; font-family:Arial;" text-anchor="middle"><textPath startOffset="22.20632615414155" xlink:href="#id85">January</textPath></text><path d="M 100.0 79.0 l 0.0 -1.4499185871952882 a22.449918587195288,22.449918587195288 0 0,0 0.38643844431088553,0.0033261976931547805 l -0.024957965038357142 1.4497037661106924" fill="#ff0f01" stroke="none" /><path d="M 100.36148047927253 79.00311137660856 l 0.02970481879418154 -1.7254286401707086 a22.725684318924216,22.725684318924216 0 0,0 0.3910693814204225,0.01010016835503037 l -0.059400835409471865 1.7246616796733185" fill="#ff1302" stroke="none" /><path d="M 101.08401301168833 79.027996857942 l 0.13272130902936805 -2.56771060860867 a23.571138408454896,23.571138408454896 0 0,0 0.4050172042773712,0.024431743816019317 l -0.17690056214635116 2.565045595412347" fill="#ff1f03" stroke="none" /><path d="M 101.80526077348638 79.07773832637324 l 0.1819408651414151 -2.108623000910429 a23.116457757286195,23.116457757286195 0 0,0 0.3961443951203385,0.0376186836472924 l -0.21821038735199777 2.105178772747959" fill="#ff1902" stroke="none" /><path d="M 102.88285421437855 79.19881850522331 l 0.3433250325968131 -2.4772554502156443 a23.500933154570653,23.500933154570653 0 0,0 0.400222032616529,0.05898232402905874 l -0.3859160456419979 2.470978642025617" fill="#ff1e03" stroke="none" /><path d="M 103.2404852339499 79.25152402106235 l 0.23435074627592967 -1.5005224460860505 a22.518712574349784,22.518712574349784 0 0,0 0.38246509955351576,0.06311001851375952 l -0.26014505196832066 1.4962661646326663" fill="#ff1001" stroke="none" /><path d="M 103.59715602781102 79.31037775812273 l 0.18279536716371528 -1.0513769947543699 a22.067149348196047,22.067149348196047 0 0,0 0.37367552245568836,0.06828681325494686 l -0.20086601072230448 1.0480747001486843" fill="#ff0a01" stroke="none" /><path d="M 104.307194497241 79.44645832069477 l 0.7995670721638903 -3.8154615849475597 a24.89833998120986,24.89833998120986 0 0,0 0.4187157105173035,0.09151503649377701 l -0.8651255068347218 3.801133050357912" fill="#ff3204" stroke="none" /><path d="M 104.66035177308747 79.52364482259891 l 0.2282644172047564 -1.0029335785419742 a22.028581745477158,22.028581745477158 0 0,0 0.36900634608898153,0.08733188000238154 l -0.2454944502562615 0.9988557863987241" fill="#ff0901" stroke="none" /><path d="M 105.71112130821622 79.79150937346287 l 0.698107833150611 -2.470216414811647 a23.566967799313257,23.566967799313257 0 0,0 0.3894270649980332,0.11368443906616847 l -0.7405251158720714 2.4578336468267747" fill="#ff1f03" stroke="none" /><path d="M 106.74666289553966 80.11325718540242 l 0.8125283579362739 -2.3950422207294046 a23.52911636180051,23.52911636180051 0 0,0 0.3824243258462756,0.1334203381892885 l -0.8536346878458232 2.3807010293679087" fill="#ff1f03" stroke="none" /><path d="M 107.08798089147638 80.2323363322302 l 1.1622783349137886 -3.241477024936733 a24.44355401162849,24.44355401162849 0 0,0 0.3948421686512869,0.14542370292440313 l -1.217902829337652 3.220990054206005" fill="#ff2c04" stroke="none" /><path d="M 107.76421540070413 80.48803036053334 l 1.1155343746871333 -2.803409195564408 a24.017204013467385,24.017204013467385 0 0,0 0.382806932890193,0.15615655963557235 l -1.1636251771657138 2.7837917497452564" fill="#ff2603" stroke="none" /><path d="M 108.43124777332544 80.76684994638697 l 1.8512730342845507 -4.223077415806831 a25.611029679731722,25.611029679731722 0 0,0 0.40223693108826347,0.18047198605419087 l -1.9236920838395943 4.190585099236109" fill="#ff3c05" stroke="none" /><line stroke="#e1ed5e" stroke-width="0.3" x1="143.23703022742887" x2="145.7803849466894" y1="26.81831364943548" y2="22.513508569990506" /><path d="M 143.74570117128098 25.957352633546492 a86.0,86.0 0 0,1 28.547481713284135,27.462654790039103" fill="none" id="id86" stroke="none" /><text fill="#e1ed5e" style="font-size:6.75px; font-family:Arial;" text-anchor="middle"><textPath startOffset="19.985693538727396" xlink:href="#id86">February</textPath></text><path d="M 110.68208982089419 81.91981866633111 l 1.1605821139004628 -1.9643660953767001 a23.28159702834904,23.28159702834904 0 0,0 0.343279314238647,0.20682194585032176 l -1.1942234943567474 1.9440975400677638" fill="#ff1b02" stroke="none" /><path d="M 111.2981086023043 82.29822771554956 l 3.441856124934308 -5.39266841062245 a27.39744059540009,27.39744059540009 0 0,0 0.39534894807250437,0.25714595317279904 l -3.5341720987910925 5.332623533290123" fill="#ff5507" stroke="none" /><path d="M 111.60114157652 82.49532879139004 l 2.265719904015594 -3.4186878686893243 a25.10133068978545,25.10133068978545 0 0,0 0.3581067066099391,0.2417952468569239 l -2.324231305032075 3.3791807095337303" fill="#ff3505" stroke="none" /><path d="M 112.19680574252982 82.90503203632743 l 1.570133874299211 -2.2006899877258164 a23.703397271082906,23.703397271082906 0 0,0 0.3301033119169057,0.2398340947430494 l -1.6077825025699055 2.173336658166092" fill="#ff2103" stroke="none" /><path d="M 112.77801427241765 83.33499621200491 l 1.9625541127171289 -2.559550414118313 a24.225355324263692,24.225355324263692 0 0,0 0.32873512414811024,0.2565829787077369 l -2.006321792024669 2.5253890461873523" fill="#ff2903" stroke="none" /><path d="M 113.34407831869373 83.78471172551755 l 5.00676985494687 -6.08406325135385 a28.87931278899874,28.87931278899874 0 0,0 0.38112780367957966,0.31918357493278465 l -5.110755195585567 5.996978519027246" fill="#ff6909" stroke="none" /><path d="M 114.16331599549186 84.49514656593476 l 3.4663289708217966 -3.794656750153214 a26.13953853818043,26.13953853818043 0 0,0 0.3295973202929025,0.3063247883986381 l -3.531134174909546 3.7344273756799353" fill="#ff4306" stroke="none" /><path d="M 114.94478906791727 85.2469230424477 l 1.5068807237739263 -1.4875504219335907 a23.117426686682737,23.117426686682737 0 0,0 0.27711821086959404,0.2855946756795615 l -1.5322631983466295 1.4613915507039148" fill="#ff1902" stroke="none" /><path d="M 115.19652480421416 85.50635884689758 l 1.8894584810131796 -1.8020655084178723 a23.611033023173395,23.611033023173395 0 0,0 0.27797232977919023,0.2965215003482392 l -1.9201981327628328 1.7692745911915784" fill="#ff2003" stroke="none" /><path d="M 115.4437574822437 85.77008943001954 l 4.711819445436548 -4.34148033000037 a27.407003507270314,27.407003507270314 0 0,0 0.3166896996522741,0.3496966761460369 l -4.785852785704858 4.259730866584784" fill="#ff5507" stroke="none" /><path d="M 116.15771136456269 86.58626213691792 l 1.6578977770733545 -1.3763462958140507 a23.154751532132146,23.154751532132146 0 0,0 0.2519474114613465,0.3088577358543474 l -1.68134368061111 1.3476043903516024" fill="#ff1902" stroke="none" /><path d="M 116.60985879189232 87.15038557335679 l 1.086296860315443 -0.8403741406122022 a22.37341529223352,22.37341529223352 0 0,0 0.23302877256043894,0.30663854936385243 l -1.1006015730999954 0.8215508153673161" fill="#ff0e01" stroke="none" /><path d="M 117.04232023915458 87.72973835380427 l 15.595968315871254 -11.228905992615715 a40.21776671470078,40.21776671470078 0 0,0 0.3996638272871193,0.5652961404770357 l -15.786944762962257 10.958783351806886" fill="#fffa17" stroke="none" /><line stroke="#e1ed5e" stroke-width="0.3" x1="172.23445277983987" x2="176.4835382374775" y1="55.19839476539836" y2="52.563006222186495" /><path d="M 173.08426987136738 54.67131705675599 a86.0,86.0 0 0,1 12.851231095245387,41.99856678651699" fill="none" id="id87" stroke="none" /><text fill="#e1ed5e" style="font-size:6.75px; font-family:Arial;" text-anchor="middle"><textPath startOffset="22.20632615414155" xlink:href="#id87">March</textPath></text><path d="M 118.3937258080291 89.86733742301442 l 0.3826242802734081 -0.21077854297904372 a21.436839712062802,21.436839712062802 0 0,0 0.17526341699586476,0.32473649379338654 l -0.3861957964877377 0.20416106585319846" fill="#ff0100" stroke="none" /><path d="M 118.56541770881063 90.18545643968196 l 2.9794747788243487 -1.5750889886933712 a24.37018920536422,24.37018920536422 0 0,0 0.1928616932397473,0.3725474046951622 l -3.0061459052242125 1.5235688617378642" fill="#ff2b04" stroke="none" /><path d="M 119.04729006885535 91.15688171328212 l 3.343383926119655 -1.552238634982058 a24.686144443367112,24.686144443367112 0 0,0 0.17562156109272348,0.3869588303477267 l -3.3696078041757254 1.4944577957922687" fill="#ff2f04" stroke="none" /><path d="M 119.47837535516314 92.15188598940014 l 1.235313481381632 -0.4977253422803686 a22.331814519229805,22.331814519229805 0 0,0 0.1405909486803654,0.35778862940369704 l -1.243697979943698 0.4763877079808871" fill="#ff0e01" stroke="none" /><path d="M 120.37134235888165 94.90015583598534 l 3.064967773066152 -0.7672964174375838 a24.159552380028956,24.159552380028956 0 0,0 0.09752083820033855,0.4042868334685866 l -3.07772141152731 0.7144243523095911" fill="#ff2803" stroke="none" /><path d="M 120.53481517161879 95.60439243477599 l 6.694053285208388 -1.4329046069595135 a27.845696823396068,27.845696823396068 0 0,0 0.09629400519297888,0.4695637674408429 l -6.717726586316364 1.3174651833552589" fill="#ff5b08" stroke="none" /><path d="M 120.78858239683441 97.02765380044208 l 2.4835535050543074 -0.3550978455977352 a23.50881097183819,23.50881097183819 0 0,0 0.05382846137709611,0.4010845605275522 l -2.4892979654892393 0.31229494300551863" fill="#ff1e03" stroke="none" /><path d="M 120.94382443527127 98.46500227214037 l 1.7459407535179647 -0.12796206814617048 a22.750623719043908,22.750623719043908 0 0,0 0.025263385686144304,0.39081339472547577 l -1.7478847302085245 0.09788960916765947" fill="#ff1402" stroke="none" /><line stroke="#e1ed5e" stroke-width="0.3" x1="184.98032266829074" x2="189.97916517819016" y1="98.17113171792111" y2="98.06355123074" /><path d="M 185.9800911702706 98.14961562048488 a86.0,86.0 0 0,1 -9.607161424134198,41.387399972396054" fill="none" id="id88" stroke="none" /><text fill="#e1ed5e" style="font-size:6.75px; font-family:Arial;" text-anchor="middle"><textPath startOffset="21.466115282336823" xlink:href="#id88">April</textPath></text><path d="M 120.99980553446 99.90962569577887 l 12.219202911481233 -0.052586294642100365 a33.219316065571576,33.219316065571576 0 0,0 -0.0024609228592412285,0.5718318046790566 l -12.218297691332488 -0.15775498824064094" fill="#ffa20f" stroke="none" /><path d="M 120.9764740272857 100.99374915477107 l 0.8308308850987395 0.039360165524034096 a21.83176269588389,21.83176269588389 0 0,0 -0.021014266221015442,0.37522383996179537 l -0.8300302679901947 -0.05365572182125282" fill="#ff0601" stroke="none" /><path d="M 120.95626037817324 101.35467743843564 l 1.693713252224625 0.10948685922789436 a22.697248347503955,22.697248347503955 0 0,0 -0.028559019532915682,0.38966513127997454 l -1.6915776740273716 -0.13862512700463914" fill="#ff1302" stroke="none" /><path d="M 120.89721153311464 102.0752229133903 l 15.145341272114617 1.5040264673209027 a36.21983764247241,36.21983764247241 0 0,0 -0.06695098748982599,0.61988299378287 l -15.11720798312374 -1.7645057829885642" fill="#ffc912" stroke="none" /><path d="M 120.49622156327973 104.57218783832717 l 16.073402111862617 3.585568853727826 a37.468471679377316,37.468471679377316 0 0,0 -0.14584055573901955,0.6282772971217336 l -16.009300990193044 -3.8617148081981245" fill="#ffd814" stroke="none" /><path d="M 120.23288151984713 105.62410040840565 l 11.086112969844201 3.0815883748526556 a32.506436793906914,32.506436793906914 0 0,0 -0.15449436860135837,0.5378151648583696 l -11.031425964356742 -3.271961015215607" fill="#ff990e" stroke="none" /><path d="M 120.02730092923936 106.31721596034902 l 10.442764345603287 3.293963466534594 a31.94995536505368,31.94995536505368 0 0,0 -0.16995512352197759,0.5230680857221809 l -10.384516971065063 -3.47323045223457" fill="#ff920d" stroke="none" /><path d="M 119.9155931802556 106.66101706037122 l 3.869488561919979 1.2941984249514324 a25.080182752521793,25.080182752521793 0 0,0 -0.1404599739674287,0.40824243220575596 l -3.8466377570093195 -1.3606135602464888" fill="#ff3505" stroke="none" /><path d="M 119.79798401119884 107.00284435728193 l 21.000810846534662 7.428302278242671 a43.27585533596574,43.27585533596574 0 0,0 -0.2544532484875843,0.7001460565161112 l -20.86983333704185 -7.788696131764913" fill="#e0ff1b" stroke="none" /><path d="M 119.41010516605496 108.01547362559984 l 5.7949573003528245 2.3930487241093066 a27.269626169786655,27.269626169786655 0 0,0 -0.18290000425080882,0.4323215822610773 l -5.7529063149097075 -2.4924448320365475" fill="#ff5307" stroke="none" /><path d="M 118.97047184881838 109.00673069616215 l 10.679959635381685 5.07059186763225 a32.82253947768754,32.82253947768754 0 0,0 -0.24671099838990262,0.50829773006713 l -10.59109538037707 -5.253678553664655" fill="#ff9d0e" stroke="none" /><line stroke="#e1ed5e" stroke-width="0.3" x1="174.80103733775053" x2="179.2010983576182" y1="140.37084112569926" y2="142.7455964860345" /><path d="M 175.68104954172406 140.8457921977663 a86.0,86.0 0 0,1 -30.038265399797805,32.042727171017184" fill="none" id="id89" stroke="none" /><text fill="#e1ed5e" style="font-size:6.75px; font-family:Arial;" text-anchor="middle"><textPath startOffset="22.206326154141568" xlink:href="#id89">May</textPath></text><path d="M 117.94076556474637 110.91462005526583 l 1.1315183551059582 0.6883816014969195 a22.324463294025605,22.324463294025605 0 0,0 -0.20255236466411927,0.32657890591552174 l -1.119501350773876 -0.7077568387777148" fill="#ff0d01" stroke="none" /><path d="M 117.55443506779139 111.5257021239791 l 18.70163339016954 12.278917256781591 a43.37236912933436,43.37236912933436 0 0,0 -0.41512911933219593,0.6205617079430763 l -18.487501165426625 -12.599015878930475" fill="#dfff1b" stroke="none" /><path d="M 117.14729908036423 112.12312394758627 l 7.713369305103377 5.453344675509639 a30.446429705810566,30.446429705810566 0 0,0 -0.3062333906610915,0.4253313956990106 l -7.618356122066683 -5.58530967665978" fill="#ff7e0b" stroke="none" /><path d="M 116.0416608686014 113.55231037782055 l 16.58669320886589 14.012764410711368 a42.71349713968565,42.71349713968565 0 0,0 -0.47932169254257334,0.5575594162326861 l -16.343029006752538 -14.29620092610558" fill="#e6ff1a" stroke="none" /><path d="M 115.80600337817218 113.82643327865902 l 0.8565881139203951 0.7493075966799091 a22.13807076728643,22.13807076728643 0 0,0 -0.25336616165600545,0.2846595685367605 l -0.8435631026160514 -0.7639413349575361" fill="#ff0b01" stroke="none" /><path d="M 115.56566222782051 114.09645910891815 l 6.9960467974595515 6.33570780099569 a30.438530824860493,30.438530824860493 0 0,0 -0.3550489267086913,0.3853354869276216 l -6.885951462755139 -6.455194542724647" fill="#ff7e0b" stroke="none" /><path d="M 114.55890576462653 115.13401014063108 l 12.694538514973798 13.195996850466155 a39.3108066721722,39.3108066721722 0 0,0 -0.49169239209382776,0.46492584661642394 l -12.465510288489163 -13.4125573338285" fill="#ffef16" stroke="none" /><path d="M 114.0293411484842 115.62618273729858 l 7.391806477462982 8.233153471220822 a32.06452073435353,32.06452073435353 0 0,0 -0.41387302597294284,0.36519482522952285 l -7.248991098583451 -8.359171438222633" fill="#ff930d" stroke="none" /><path d="M 113.20401910651253 116.32954008644616 l 6.978586749581361 8.630486759733978 a32.098917727930775,32.098917727930775 0 0,0 -0.4326361026082378,0.34371228543577464 l -6.828993154255772 -8.749332959174879" fill="#ff940d" stroke="none" /><path d="M 112.63410532772338 116.77436683061366 l 14.573027564779508 19.34868388882632 a45.22281363990464,45.22281363990464 0 0,0 -0.6258299677960306,0.46297404869404624 l -14.237812626564914 -19.596667886260132" fill="#c9ff1d" stroke="none" /><path d="M 111.45004920935366 117.60387380957326 l 2.673930440149277 4.111033339971265 a25.904130822185742,25.904130822185742 0 0,0 -0.37587905065128596,0.23990379422740818 l -2.6027695874510606 -4.1564515630224825" fill="#ff4006" stroke="none" /><path d="M 111.1453310114006 117.79835938074945 l 0.7402148638606182 1.182074372890985 a22.394710675274915,22.394710675274915 0 0,0 -0.3284779380706022,0.2017779781811264 l -0.7197577258577074 -1.1946408179004897" fill="#ff0e01" stroke="none" /><line stroke="#e1ed5e" stroke-width="0.3" x1="143.8653032363475" x2="146.44561519142675" y1="172.8068346515853" y2="177.08958963109032" /><path d="M 144.38136562736335 173.6633856474863 a86.0,86.0 0 0,1 -40.68145358897372,12.25698825130547" fill="none" id="id90" stroke="none" /><text fill="#e1ed5e" style="font-size:6.75px; font-family:Arial;" text-anchor="middle"><textPath startOffset="21.466115282336833" xlink:href="#id90">June</textPath></text><path d="M 110.21172684928248 118.3499491758327 l 16.201893254133374 29.1139708448531 a54.318533031532,54.318533031532 0 0,0 -0.8209268227127405,0.4476347582763003 l -15.698343619551984 -29.38854625488917" fill="#67ff28" stroke="none" /><path d="M 109.2508944713604 118.85261126421891 l 5.307075649820259 10.81541190266654 a33.04733109768534,33.04733109768534 0 0,0 -0.5128431695779817,0.24619588682552243 l -5.120119812242045 -10.905162065991622" fill="#ffa00e" stroke="none" /><path d="M 108.2653958097858 119.30500536409082 l 2.0282363231603555 4.737233884419289 a26.153166740779625,26.153166740779625 0 0,0 -0.41537273964627475,0.1736258388598695 l -1.9463921240166198 -4.7714447662991315" fill="#ff4406" stroke="none" /><path d="M 107.93186726928326 119.44442032107085 l 7.555499182147595 18.521780161666786 a41.00354739161398,41.00354739161398 0 0,0 -0.6558203512553163,0.2609644523540243 l -7.235557754850412 -18.64909145842688" fill="#fbff18" stroke="none" /><path d="M 105.88484417918355 120.15858648285463 l 17.654532537550654 60.47575944856389 a84.0,84.0 0 0,0 -1.391475327581577,0.39324482664592386 l -16.61092604186447 -60.77069306854833" fill="#4dd2ff" stroke="none" /><path d="M 104.48393922423573 120.51570834832081 l 1.1738795865048461 5.37094060120445 a26.49772645966305,26.49772645966305 0 0,0 -0.44643437495892785,0.09355466387276651 l -1.0812537501165402 -5.390351245803758" fill="#ff4806" stroke="none" /><path d="M 103.7750983002368 120.6578951692458 l 0.3801427418786202 2.0801971992585173 a23.11464628058831,23.11464628058831 0 0,0 -0.39201452604244197,0.06815675022276979 l -0.3442792443641282 -2.0864325280022933" fill="#ff1902" stroke="none" /><path d="M 101.98527174616119 120.90594882070398 l 0.10003255793523161 1.0533951035377604 a22.058134092071697,22.058134092071697 0 0,0 -0.37830296825136384,0.032641571916601615 l -0.08188527194232607 -1.0549609277330254" fill="#ff0a01" stroke="none" /><path d="M 101.26447882468166 120.96189622390904 l 0.1018240013794218 1.687987262701658 a22.691055624839098,22.691055624839098 0 0,0 -0.39008294385049247,0.02016283251091063 l -0.07275298911544975 -1.6894899019747707" fill="#ff1302" stroke="none" /><line stroke="#e1ed5e" stroke-width="0.3" x1="102.19456741930631" x2="102.32365962044197" y1="184.97166512339345" y2="189.96999836594603" /><path d="M 102.22038585953345 185.97133177190398 a86.0,86.0 0 0,1 -42.740103519485714,-10.115201625700543" fill="none" id="id91" stroke="none" /><text fill="#e1ed5e" style="font-size:6.75px; font-family:Arial;" text-anchor="middle"><textPath startOffset="22.20632615414155" xlink:href="#id91">July</textPath></text><path d="M 100.54218724476979 120.99299961872073 l 0.027895833122607315 1.0801014220750207 a22.080461595557235,22.080461595557235 0 0,0 -0.3800366136386306,0.006542674950714164 l -0.00929952959130875 -1.0804215743048946" fill="#ff0a01" stroke="none" /><path d="M 100.18074693466247 120.99922214144158 l 0.015029178352469134 1.7460935391032555 a22.746158218346803,22.746158218346803 0 0,0 -0.39155222602984796,0.0 l 0.015029178352467932 -1.7460935391032555" fill="#ff1402" stroke="none" /><path d="M 98.01472825383883 120.90594882070398 l -0.14366575012149108 1.5128754162424367 a22.519681503746327,22.519681503746327 0 0,0 -0.385587781122434,-0.03996775008665473 l 0.1696861278495184 -1.510178297700021" fill="#ff1001" stroke="none" /><path d="M 97.2962882734958 120.8252237178851 l -0.10550417529790308 0.8126413893209814 a21.81946150528431,21.81946150528431 0 0,0 -0.37204406289246955,-0.051561917043672134 l 0.11947682937720369 -0.8107049067847044" fill="#ff0601" stroke="none" /><path d="M 96.22490169976321 120.6578951692458 l -0.37722710123388714 2.0642423832511363 a23.098427245037495,23.098427245037495 0 0,0 -0.39050903449751484,-0.0748419858807822 l 0.4127037503030971 -2.0574431990218858" fill="#ff1902" stroke="none" /><path d="M 95.51606077576429 120.51570834832081 l -0.5525763635070512 2.5282446855239593 a23.587926163434116,23.587926163434116 0 0,0 -0.39591755667711637,-0.09010954690281088 l 0.5960140695770302 -2.5183584050434615" fill="#ff2003" stroke="none" /><path d="M 95.16358092515715 120.4354850818985 l -0.3889697394379506 1.643526994784352 a22.688928192903212,22.688928192903212 0 0,0 -0.37927970070551603,-0.09321772260414378 l 0.41720272488667715 -1.6365880138661781" fill="#ff1302" stroke="none" /><path d="M 94.46302465271185 120.25689768951611 l -0.40817404935816937 1.4932954255275 a22.54807534780152,22.54807534780152 0 0,0 -0.37351298251089843,-0.10555849977791938 l 0.43381819997368165 -1.4860481324110593" fill="#ff1101" stroke="none" /><path d="M 93.76903079525671 120.05430185196036 l -0.6446735364611713 2.074874272580479 a23.172718853333244,23.172718853333244 0 0,0 -0.3798986894005417,-0.12163156354085104 l 0.6802935709526534 -2.0634698623799217" fill="#ff1a02" stroke="none" /><path d="M 93.08242187328487 119.8279376855182 l -0.6960620300533358 1.9951309987888184 a23.113066504398297,23.113066504398297 0 0,0 -0.37452021072909525,-0.13428962277660111 l 0.7303018014121577 -1.9828538349722595" fill="#ff1902" stroke="none" /><path d="M 92.40401165467489 119.57807347666478 l -0.6511979122295781 1.6784123400252144 a22.800312946140497,22.800312946140497 0 0,0 -0.36467355134564583,-0.1451111320848043 l 0.6799925396170821 -1.6669543635343436" fill="#ff1402" stroke="none" /><path d="M 91.7346041902142 119.30500536409082 l -0.6676722473021091 1.5594433239798868 a22.696363672837546,22.696363672837546 0 0,0 -0.3578236558345504,-0.15685937524994498 l 0.6944165777944028 -1.5477193954354898" fill="#ff1302" stroke="none" /><path d="M 91.07499286063937 119.00905698771935 l -1.4209982345885097 3.0265338726302278 a24.343522583276773,24.343522583276773 0 0,0 -0.37777360124475823,-0.18135428586142746 l 1.4728845038335099 -3.001625310269238" fill="#ff2a04" stroke="none" /><path d="M 90.10565033884886 118.52300852407294 l -0.7923902197596968 1.483417434965935 a22.681787604524345,22.681787604524345 0 0,0 -0.34279437960555525,-0.1869188276077336 l 0.8178074112338926 -1.4695579555984357" fill="#ff1302" stroke="none" /><line stroke="#e1ed5e" stroke-width="0.3" x1="58.666819895761336" x2="56.23545636021788" y1="174.27360380694188" y2="178.64263932499728" /><path d="M 58.180547188652646 175.14741091055294 a86.0,86.0 0 0,1 -31.652253787137756,-30.449443065178592" fill="none" id="id92" stroke="none" /><text fill="#e1ed5e" style="font-size:6.75px; font-family:Arial;" text-anchor="middle"><textPath startOffset="22.20632615414155" xlink:href="#id92">August</textPath></text><path d="M 89.4739219176387 118.17145234162733 l -1.022806097998365 1.7656977384243173 a23.040544245435367,23.040544245435367 0 0,0 -0.34147417324626705,-0.20174896052284233 l 1.0530481422730142 -1.7478302056077255" fill="#ff1802" stroke="none" /><path d="M 88.54995079064634 117.60387380957326 l -1.1492466298767208 1.7669087947587205 a23.10777952008238,23.10777952008238 0 0,0 -0.33156945834949353,-0.21974615706409314 l 1.1794907869661762 -1.7468646166033088" fill="#ff1902" stroke="none" /><path d="M 88.24862548938628 117.40417183066458 l -0.9761766415997766 1.4457496858889838 a22.744452060061587,22.744452060061587 0 0,0 -0.32258468852924116,-0.22187669025464363 l 1.000918214751908 -1.4287322062692391" fill="#ff1302" stroke="none" /><path d="M 87.36589467227662 116.77436683061367 l -1.2738695019864088 1.6913231104510413 a23.11738455931767,23.11738455931767 0 0,0 -0.3157958810684046,-0.24213881537606588 l 1.3027941115483002 -1.6691449532476088" fill="#ff1902" stroke="none" /><path d="M 86.79598089348748 116.32954008644616 l -2.784153115471063 3.4431894970119243 a25.427986278515377,25.427986278515377 0 0,0 -0.33798621625187686,-0.2781396459908388 l 2.843009460267629 -3.394754732163905" fill="#ff3905" stroke="none" /><path d="M 86.24171649860922 115.8653595955263 l -1.108609643288936 1.2783928053284512 a22.692129872648305,22.692129872648305 0 0,0 -0.29289882527705635,-0.258449158544534 l 1.1304508214725801 -1.2591205050116285" fill="#ff1302" stroke="none" /><path d="M 85.70375840098266 115.38237550388516 l -1.4166946250997345 1.5243257150269358 a23.08100757958227,23.08100757958227 0 0,0 -0.28869302844334316,-0.27297727770347024 l 1.4427234879338946 -1.4997138005775348" fill="#ff1802" stroke="none" /><path d="M 85.18274418774928 114.88116024355367 l -1.4931595587553634 1.4995993147841356 a23.116204993095792,23.116204993095792 0 0,0 -0.2795512843397509,-0.2831839751221675 l 1.5187514681506475 -1.4736748456813036" fill="#ff1902" stroke="none" /><path d="M 84.67929136418377 114.36230785411682 l -2.167554513603311 2.0319611811018983 a23.97105348503643,23.97105348503643 0 0,0 -0.27960931691838914,-0.3034606900041334 l 2.202210238517429 -1.9943492362964206" fill="#ff2503" stroke="none" /><path d="M 84.19399662182784 113.82643327865904 l -0.6769471752042736 0.5921651873151108 a21.89939818049904,21.89939818049904 0 0,0 -0.245750343672698,-0.2858631693264334 l 0.6870400284477504 -0.5804249188271471" fill="#ff0701" stroke="none" /><line stroke="#e1ed5e" stroke-width="0.3" x1="26.63291911575756" x2="22.317208475507996" y1="142.92168965132927" y2="145.44649492493687" /><path d="M 25.769776987707644 143.4266507060508 a86.0,86.0 0 0,1 -11.730757126820373,-40.83630448921669" fill="none" id="id93" stroke="none" /><text fill="#e1ed5e" style="font-size:6.75px; font-family:Arial;" text-anchor="middle"><textPath startOffset="21.46611528233685" xlink:href="#id93">September</textPath></text><path d="M 81.69416730710424 110.29060199501025 l -1.6410085009634174 0.9224909697987418 a22.88252449906885,22.88252449906885 0 0,0 -0.1900596230448203,-0.3450134223756807 l 1.6566445334597544 -0.8941070290252385" fill="#ff1502" stroke="none" /><path d="M 79.0095281055655 100.63252640178507 l -1.5352878880622993 0.04626433023631727 a22.535984794027275,22.535984794027275 0 0,0 -0.008346832240931872,-0.3878444959885835 l 1.5358567829882386 -0.01983001845760496" fill="#ff1101" stroke="none" /><line stroke="#e1ed5e" stroke-width="0.3" x1="15.007084014347285" x2="10.007500721073583" y1="101.09737516637583" y2="101.16192664675087" /><path d="M 14.007167355692545 101.11028546245083 a86.0,86.0 0 0,1 10.666146001902534,-42.60595125391555" fill="none" id="id94" stroke="none" /><text fill="#e1ed5e" style="font-size:6.75px; font-family:Arial;" text-anchor="middle"><textPath startOffset="22.20632615414155" xlink:href="#id94">October</textPath></text><line stroke="#e1ed5e" stroke-width="0.3" x1="26.266209847984243" x2="21.928928074336255" y1="57.711370442889674" y2="55.22380399835377" /><path d="M 25.398753493254645 57.213857153982495 a86.0,86.0 0 0,1 29.58750427330803,-30.492523968695096" fill="none" id="id95" stroke="none" /><text fill="#e1ed5e" style="font-size:6.75px; font-family:Arial;" text-anchor="middle"><textPath startOffset="21.46611528233685" xlink:href="#id95">November</textPath></text><path d="M 82.34701348167596 88.62581576622439 l -0.32739354052800923 -0.2109464278493764 a21.389467490044904,21.389467490044904 0 0,0 0.2020829675203471,-0.3077862236489772 l 0.3237139376497419 0.21655071547602056" fill="#ff0000" stroke="none" /><line stroke="#e1ed5e" stroke-width="0.3" x1="56.762969772571076" x2="54.21961505331055" y1="26.818313649435495" y2="22.513508569990535" /><path d="M 56.25429882871897 25.957352633546506 a86.0,86.0 0 0,1 42.265352541879196,-11.944610805530505" fill="none" id="id96" stroke="none" /><text fill="#e1ed5e" style="font-size:6.75px; font-family:Arial;" text-anchor="middle"><textPath startOffset="22.20632615414155" xlink:href="#id96">December</textPath></text><path d="M 98.55514903715128 79.0497635885617 l -0.048984057678668286 -0.7102653596439364 a21.71195246963319,21.71195246963319 0 0,0 0.3730712592778061,-0.022504677173052216 l 0.036750749561239214 0.711003306197295" fill="#ff0500" stroke="none" /><path d="M 98.91598698831166 79.02799685794201 l -0.05517287825402265 -1.067409490129273 a22.068834442798728,22.068834442798728 0 0,0 0.37954104178566683,-0.016343835645082242 l 0.036791004079031735 1.0682010522985477" fill="#ff0a01" stroke="none" /><path d="M 99.63851952072746 79.00311137660856 l -0.014918579639257332 -0.8665578725995575 a21.866686281524476,21.866686281524476 0 0,0 0.37639905891179287,-0.003239785533477637 l 2.1227691610677432e-16 0.8666862815244762" fill="#ff0701" stroke="none" /></svg>