<?xml version="1.0" encoding="utf-8" ?>
<svg baseProfile="full" height="200mm" version="1.1" viewBox="0,0,200,200" width="200mm" xmlns="http://www.w3.org/2000/svg" xmlns:ev="http://www.w3.org/2001/xml-events" xmlns:xlink="http://www.w3.org/1999/xlink"><defs /><rect fill="#1a1a1a" height="200" width="200" x="0" y="0" /><text alignment-baseline="middle" fill="#e1ed5e" style="dominant-baseline: central; font-size:9.0px; font-family:Arial;" text-anchor="middle" x="100.0" y="100.0">2020</text><line stroke="#e1ed5e" stroke-width="0.3" x1="100.0" x2="100.0" y1="15.0" y2="10.0" /><path d="M 100.0 14.0 a86.0,86.0 0 0,1 42.35913384403234,11.155469271406648" fill="none" id="id109" stroke="none" /><text fill="#e1ed5e" style="font-size:6.75px; font-family:Arial;" text-anchor="middle"><textPath startOffset="22.145653131862478" xlink:href="#id109">January</textPath></text><path d="M 100.0 79.0 l 0.0 -4.746381920527263 a25.746381920527263,25.746381920527263 0 0,0 0.44197088203840706,0.00379378846324339 l -0.08147795718955227 4.745682530258454" fill="#ff2c04" stroke="none" /><path d="M 100.36049292484886 79.00309439819443 l 0.07583123536800238 -4.41678929304319 a25.417440212996482,25.417440212996482 0 0,0 0.43619557348413673,0.01123485068073158 l -0.15164012292288048 4.414836725012414" fill="#ff2703" stroke="none" /><path d="M 100.72087961077811 79.0123766808444 l 0.45965044552530265 -13.382221198840984 a34.39011287281704,34.39011287281704 0 0,0 0.5898301308008699,0.025329843699440416 l -0.6893063369270088 13.372358786715713" fill="#ffa30f" stroke="none" /><path d="M 101.08105385017728 79.02784411241856 l 0.3109395591784609 -6.032144379891135 a27.040153079957022,27.040153079957022 0 0,0 0.46335960976311086,0.027874563499935213 l -0.41444352107403404 6.025917838566508" fill="#ff3e05" stroke="none" /><path d="M 101.44090949804482 79.04949213459386 l 0.3609876679893511 -5.2486814666623145 a26.26108061475253,26.26108061475253 0 0,0 0.4494784096975777,0.03479247161072974 l -0.45103507246216223 5.2417112280565314" fill="#ff3304" stroke="none" /><path d="M 101.80034050326958 79.07731436759882 l 0.4619113025636127 -5.368109508195781 a26.387945967009873,26.387945967009873 0 0,0 0.4509831109015491,0.042708569487749204 l -0.5539939768501747 5.359389183202848" fill="#ff3505" stroke="none" /><path d="M 102.15924093988457 79.11130261209362 l 1.5452825040111304 -14.949206459025516 a36.028861293250834,36.028861293250834 0 0,0 0.6146594051226888,0.06887386840082806 l -1.801677810734616 14.920476830117718" fill="#ffb911" stroke="none" /><path d="M 102.51750503828377 79.15144685158666 l 0.6568691446007304 -5.439818814462873 a26.479334431052074,26.479334431052074 0 0,0 0.4508071105081853,0.05836600592806041 l -0.7501540769997075 5.427741212334416" fill="#ff3605" stroke="none" /><path d="M 102.87502721639298 79.19773525538626 l 0.7184864310474252 -5.198609901443887 a26.248025119889355,26.248025119889355 0 0,0 0.44581007560206887,0.06551872880040825 l -0.807621612257176 5.185510099344596" fill="#ff3304" stroke="none" /><path d="M 103.23170211078529 79.25015418208739 l 2.219703735186203 -14.25209028791528 a35.42390939540625,35.42390939540625 0 0,0 0.6000515000836051,0.09873824599238175 l -2.4640327383228784 14.211886043427231" fill="#ffb110" stroke="none" /><path d="M 103.58742460773223 79.30868818359171 l 0.9086155570484912 -5.240653077867594 a26.318836988766776,26.318836988766776 0 0,0 0.4444941587260644,0.08100164259936697 l -0.9984444493256093 5.224283261336861" fill="#ff3404" stroke="none" /><path d="M 103.94208987418118 79.37332000966035 l 0.88008878409913 -4.604996408528248 a25.688341731407295,25.688341731407295 0 0,0 0.43242471823496487,0.08649705440754588 l -0.9590099878650518 4.589209957457844" fill="#ff2b04" stroke="none" /><path d="M 104.29559338865022 79.4440306129975 l 3.0817608021571825 -14.74734104829067 a36.065899164547446,36.065899164547446 0 0,0 0.6049411982941991,0.13184411856945896 l -3.334464417070516 14.692265471587492" fill="#ffb911" stroke="none" /><path d="M 104.64783097203109 79.52079915486377 l 2.974877322106539 -13.10785838290451 a34.441199591846846,34.441199591846846 0 0,0 0.5754433106383836,0.1358030544597569 l -3.1994527864848075 13.054859184798525" fill="#ffa40f" stroke="none" /><path d="M 104.9986988182912 79.60360301121754 l 1.834826283378748 -7.486717372189775 a28.708276363832944,28.708276363832944 0 0,0 0.47764380010217866,0.12141518617442322 l -1.9630753767063212 7.454116954180084" fill="#ff5607" stroke="none" /><path d="M 105.3480935250658 79.69241777938227 l 2.381429185884553 -9.042674509760795 a30.350998195746826,30.350998195746826 0 0,0 0.5026972225084918,0.13701236338994452 l -2.536307809327737 9.000461652226708" fill="#ff6d0a" stroke="none" /><path d="M 105.69591212413111 79.78721728523813 l 1.3098964620538973 -4.648360436278615 a25.829397838950694,25.829397838950694 0 0,0 0.42574225943642885,0.12392736688777382 l -1.3894987338719305 4.6251893750883255" fill="#ff2d04" stroke="none" /><path d="M 106.04205211174951 79.88797359093562 l 1.4382896067849822 -4.787598322644467 a25.99897736461907,25.99897736461907 0 0,0 0.4263329233935731,0.13207902946644376 l -1.5202631630501855 4.762202705371377" fill="#ff2f04" stroke="none" /><path d="M 106.38641147887787 79.99465700312896 l 2.1160775448899916 -6.628582770388471 a27.958153039412007,27.958153039412007 0 0,0 0.45595389111253687,0.14988110040372735 l -2.229554173650271 6.591280748582722" fill="#ff4b07" stroke="none" /><path d="M 106.72888874123014 80.10723608172694 l 5.390662124462312 -15.936534713085626 a37.82356611427838,37.82356611427838 0 0,0 0.6132717115516868,0.21332773602003235 l -5.663439608059018 15.841648544497003" fill="#ffd013" stroke="none" /><path d="M 107.06938296918511 80.22567764915836 l 1.8241021146164635 -5.102338262406466 a26.418597998427757,26.418597998427757 0 0,0 0.42573048384555146,0.15633413064973792 l -1.9114217501161397 5.070273282748007" fill="#ff3505" stroke="none" /><path d="M 107.40779381753099 80.34994680014964 l 5.176216599858822 -13.730529502652281 a35.673808595993705,35.673808595993705 0 0,0 0.5711678072604748,0.22093997793034068 l -5.411156669612823 13.639649636583902" fill="#ffb410" stroke="none" /><path d="M 107.74402155503746 80.48000691201159 l 1.7648898479687631 -4.448675328260304 a25.78597412777536,25.78597412777536 0 0,0 0.4100529058966345,0.1667649470508823 l -1.8409972150558374 4.417723124630128" fill="#ff2c04" stroke="none" /><path d="M 108.07796709384702 80.6158196554323 l 2.0041574082540206 -4.809248191923004 a26.210135803275588,26.210135803275588 0 0,0 0.41382674797075675,0.1766380310492019 l -2.0864192313952072 4.7741355112144" fill="#ff3204" stroke="none" /><path d="M 108.4095320186766 80.7573450057729 l 2.841371689221309 -6.501614478025875 a28.095377643028172,28.095377643028172 0 0,0 0.4402767725728622,0.19693020027737776 l -2.9525618646498026 6.451880526838644" fill="#ff4d07" stroke="none" /><path d="M 108.73861861582097 80.90454125486305 l 12.412038617852131 -27.122544396334824 a50.82769044331469,50.82769044331469 0 0,0 0.7902768846470328,0.36988948543398703 l -12.87580421637067 26.905478679330304" fill="#93ff23" stroke="none" /><path d="M 109.06512990194946 81.05736502329252 l 3.371865433276911 -7.045901910286632 a28.811159339656854,28.811159339656854 0 0,0 0.4442951742393021,0.21732703363554592 l -3.49232085677828 6.986981126553864" fill="#ff5708" stroke="none" /><path d="M 109.3889696526874 81.21577127319529 l 4.785223160742887 -9.573651815401234 a31.702951451849415,31.702951451849415 0 0,0 0.48471212869165814,0.24749746662061414 l -4.948862511148123 9.490096397107788" fill="#ff7f0b" stroke="none" /><path d="M 109.71004243097381 81.37971332152246 l 2.4437887534830787 -4.686287160429086 a26.285204898738826,26.285204898738826 0 0,0 0.3982974370533623,0.2120709510385547 l -2.523875006323 4.6436457416679575" fill="#ff3304" stroke="none" /><path d="M 110.02825361518725 81.54914285379988 l 5.973636174481227 -10.990817736380952 a33.50929269221153,33.50929269221153 0 0,0 0.5030475843808573,0.27903201518973403 l -6.1614279470181845 10.886652805758072" fill="#ff970e" stroke="none" /><path d="M 110.34350942703115 81.72400993836675 l 7.064138545147982 -12.481655936594537 a35.342028737405705,35.342028737405705 0 0,0 0.5254308368053501,0.3033576350700992 l -7.277361849813729 12.358551404248267" fill="#ffb010" stroke="none" /><line stroke="#e1ed5e" stroke-width="0.3" x1="143.13028292997686" x2="145.6673583964461" y1="26.7553504044142" y2="22.446841604673864" /><path d="M 143.63769802327073 25.89364864446614 a86.0,86.0 0 0,1 29.32050498858742,28.57503671076993" fill="none" id="id110" stroke="none" /><text fill="#e1ed5e" style="font-size:6.75px; font-family:Arial;" text-anchor="middle"><textPath startOffset="20.669276256404974" xlink:href="#id110">February</textPath></text><path d="M 110.96478420261332 82.08984904055464 l 18.040616796244365 -29.467991731677913 a55.551792878042846,55.551792878042846 0 0,0 0.8090348081976035,0.5048975562710079 l -18.543815733231682 29.15395837856536" fill="#60ff29" stroke="none" /><path d="M 111.8722381534696 82.67804972795209 l 5.1559279925647035 -7.522653027926753 a30.119972699689832,30.119972699689832 0 0,0 0.42398151351145846,0.2959720244947167 l -5.284304597249923 7.43303618762691" fill="#ff6909" stroke="none" /><path d="M 112.16784306229584 82.88440491214696 l 9.692181125629551 -13.633266538293705 a37.72735279343891,37.72735279343891 0 0,0 0.5246239735240424,0.37978729898423147 l -9.924786109527561 13.4648784679364" fill="#ffcf13" stroke="none" /><path d="M 112.7482090630111 83.31218511350987 l 19.5154411157457 -25.546338874586976 a53.147595117479185,53.147595117479185 0 0,0 0.7202512874756187,0.5600717575420064 l -19.951102347856544 25.207566065424178" fill="#7aff26" stroke="none" /><path d="M 113.31354834802062 83.75963576809568 l 6.964384072805046 -8.495416175811831 a31.98520557448908,31.98520557448908 0 0,0 0.4216345633393658,0.3517425486905897 l -7.109192970306305 8.374611443209371" fill="#ff830c" stroke="none" /><path d="M 113.59037401385872 83.9905735841838 l 1.3064729714843808 -1.5390218753290412 a23.018776846994374,23.018776846994374 0 0,0 0.29904736545807775,0.25830999178473696 l -1.3326998167053188 1.5163677510795843" fill="#ff0400" stroke="none" /><path d="M 114.65682725009322 84.96080404539774 l 3.8228828285042584 -3.922614559641074 a26.47734772531203,26.47734772531203 0 0,0 0.32278166434325894,0.3200228632767108 l -3.8896564129774798 3.856411686135704" fill="#ff3605" stroke="none" /><path d="M 115.41159269507618 85.73525988315684 l 9.851281703197024 -9.118199273382947 a34.423461147739275,34.423461147739275 0 0,0 0.39767670568675473,0.4371163622548784 l -10.006356109725656 8.947745335570398" fill="#ffa40f" stroke="none" /><path d="M 115.6541949942343 86.00192230759917 l 18.13685763302563 -16.218089932865556 a45.33047566060218,45.33047566060218 0 0,0 0.5137215082246541,0.584520773803089 l -18.412590205208872 15.90435688125117" fill="#d2ff1c" stroke="none" /><path d="M 116.1254893667686 86.54754324733833 l 12.854959087361161 -10.724064073139814 a37.74083401096067,37.74083401096067 0 0,0 0.41075179322819266,0.5010504004310316 l -13.037157699827981 10.501811391010289" fill="#ffcf13" stroke="none" /><path d="M 116.35404254752997 86.82634096563983 l 4.98665480113027 -4.01689612101854 a27.403294507727203,27.403294507727203 0 0,0 0.29195413773306483,0.3688745156365198 l -5.054875369504894 3.9307016614673422" fill="#ff4306" stroke="none" /><path d="M 116.57777611688842 87.10902102172516 l 33.644613264843066 -26.16225477236601 a63.6195210732716,63.6195210732716 0 0,0 0.6630003042167382,0.8678886808153958 l -34.08876554641411 25.58084517830973" fill="#33ff56" stroke="none" /><path d="M 117.01052211995028 87.68569379921539 l 22.033701319639526 -15.950700564825818 a48.20126545497138,48.20126545497138 0 0,0 0.4794531707282337,0.674410928194813 l -22.30426958889772 15.570112409921501" fill="#b1ff20" stroke="none" /><path d="M 117.21940702142032 87.97951657250589 l 13.211302831154926 -9.222515417630502 a37.11189973668265,37.11189973668265 0 0,0 0.3601802882198363,0.5255138046310679 l -13.367672856190088 8.994366877929385" fill="#ffc712" stroke="none" /><path d="M 117.62189284568427 88.57770195909679 l 13.232525202269887 -8.577162965277395 a36.76919299652439,36.76919299652439 0 0,0 0.33877087323908095,0.5326040810782602 l -13.377813767134858 8.348745209520462" fill="#ffc212" stroke="none" /><path d="M 117.81537515405839 88.88188828441811 l 32.0461740800839 -19.99918275075971 a58.77465531105911,58.77465531105911 0 0,0 0.5268225241729882,0.8605250009868328 l -32.384764568712285 19.446120633648324" fill="#40ff2d" stroke="none" /><line stroke="#e1ed5e" stroke-width="0.3" x1="172.87174338648825" x2="177.1583165268699" y1="56.24261187166439" y2="53.66864786411523" /><path d="M 173.72905801456457 55.72781907015455 a86.0,86.0 0 0,1 12.242430191666344,42.057860355516425" fill="none" id="id111" stroke="none" /><text fill="#e1ed5e" style="font-size:6.75px; font-family:Arial;" text-anchor="middle"><textPath startOffset="22.145653131862474" xlink:href="#id111">March</textPath></text><path d="M 119.16976305983485 91.42560881287824 l 15.585442128394595 -6.97117002521022 a38.07346531486583,38.07346531486583 0 0,0 0.26173897074612895,0.5989099870749414 l -15.702814981157696 6.702597968359428" fill="#ffd313" stroke="none" /><path d="M 119.31412917781788 91.75594674310238 l 21.114500407448254 -9.012524678135973 a43.957520086676226,43.957520086676226 0 0,0 0.29027485591859054,0.6965539833537082 l -21.266101107903328 8.648738185340987" fill="#e2ff1b" stroke="none" /><path d="M 119.94978838288452 93.4421083053983 l 36.177137531995484 -11.89214367602395 a59.0816013478965,59.0816013478965 0 0,0 0.30844895981482945,0.9662119734270641 l -36.37595120758757 11.269362668905499" fill="#3cff2e" stroke="none" /><path d="M 120.05942366710727 93.78553927170692 l 6.488990927161502 -2.0103059764982025 a27.793256462988033,27.793256462988033 0 0,0 0.1372770875916232,0.45695077763946956 l -6.522544334756752 1.8986175952680096" fill="#ff4906" stroke="none" /><path d="M 120.592083275326 95.88100663000786 l 12.343672597455646 -2.4690802242041974 a33.588193291602,33.588193291602 0 0,0 0.10823988455172819,0.566356813796262 l -12.384238774289532 2.256820845374621" fill="#ff980e" stroke="none" /><path d="M 120.86939407059847 97.66154086499901 l 5.221873069186374 -0.5851217691872509 a26.254552867320943,26.254552867320943 0 0,0 0.04634254577405721,0.44832209179547555 l -5.231148007442097 0.49539515510884397" fill="#ff3304" stroke="none" /><path d="M 120.93736805541906 98.37931529534042 l 22.34829682934675 -1.7298995150987933 a43.41514941964316,43.41514941964316 0 0,0 0.05113899152708342,0.7435497133379431 l -22.3746997820389 1.346006377606516" fill="#e9ff1a" stroke="none" /><line stroke="#e1ed5e" stroke-width="0.3" x1="184.99686870605535" x2="189.99668451229388" y1="99.2704041080226" y2="99.22748670261217" /><path d="M 185.99683186730306 99.26182062694052 a86.0,86.0 0 0,1 -10.086455211305974,41.156179273409016" fill="none" id="id112" stroke="none" /><text fill="#e1ed5e" style="font-size:6.75px; font-family:Arial;" text-anchor="middle"><textPath startOffset="21.40746469413373" xlink:href="#id112">April</textPath></text><path d="M 120.51834098615036 104.47187691870673 l 6.034860546021034 1.3152697677449328 a27.176526238256024,27.176526238256024 0 0,0 -0.10325674354314213,0.4549682641988696 l -6.011392940920228 -1.4186723658828193" fill="#ff4006" stroke="none" /><path d="M 119.83427380445688 106.89939002012753 l 8.351552998165428 2.9051036592608184 a29.84240152629457,29.84240152629457 0 0,0 -0.1724604178434037,0.4824024826581734 l -8.30045241027808 -3.048041098299913" fill="#ff6609" stroke="none" /><path d="M 119.4528033332814 107.91128576633888 l 6.901380745626927 2.806731468237876 a28.450288432732442,28.450288432732442 0 0,0 -0.18787236767155077,0.45082528987772613 l -6.852182533418891 -2.924789267556879" fill="#ff5207" stroke="none" /><path d="M 119.16976305983485 108.57439118712176 l 23.824945694219576 10.6565951679494 a47.09963712211483,47.09963712211483 0 0,0 -0.3364608222860344,0.7352276182056802 l -23.638500407078485 -11.064011768369769" fill="#bdff1f" stroke="none" /><path d="M 118.70294669586154 109.54985784667822 l 13.560880195601895 6.924282052971252 a36.226396606832736,36.226396606832736 0 0,0 -0.2875546668796331,0.5514239892457321 l -13.440017459747311 -7.156052285321487" fill="#ffbb11" stroke="none" /><line stroke="#e1ed5e" stroke-width="0.3" x1="174.33088141563837" x2="178.70328620479359" y1="141.23008692659167" y2="143.65538615756765" /><path d="M 175.20536237346943 141.71514677278685 a86.0,86.0 0 0,1 -30.301960400862466,31.631185727798858" fill="none" id="id113" stroke="none" /><text fill="#e1ed5e" style="font-size:6.75px; font-family:Arial;" text-anchor="middle"><textPath startOffset="22.145653131862474" xlink:href="#id113">May</textPath></text><path d="M 118.36410011445183 110.18625677009912 l 2.73456739677618 1.5168184384261159 a24.127074834835376,24.127074834835376 0 0,0 -0.2040077852523382,0.36046220889244884 l -2.708126246502464 -1.5635374174176875" fill="#ff1402" stroke="none" /><path d="M 118.00360718960297 110.81064883170644 l 32.6384244612927 19.598436110902174 a59.07053255877338,59.07053255877338 0 0,0 -0.5294745992495813,0.864856966313272 l -32.29718189758771 -20.15583019334" fill="#3dff2e" stroke="none" /><path d="M 117.21940702142032 112.02048342749411 l 8.205371256711866 5.7279863984309225 a31.00689490506835,31.00689490506835 0 0,0 -0.3084224851017651,0.43383485010162537 l -8.10583367308014 -5.867998475242051" fill="#ff760a" stroke="none" /><path d="M 114.13192950727249 115.5334660781643 l 6.10433041910395 6.709728451890537 a30.07101459395294,30.07101459395294 0 0,0 -0.38481587144284546,0.34410472513660945 l -5.988249520837726 -6.8135287069105335" fill="#ff6909" stroke="none" /><path d="M 112.7482090630111 116.68781488649013 l 3.771215842411237 4.936642595371189 a27.212286941576885,27.212286941576885 0 0,0 -0.3736467430717275,0.28039148184710244 l -3.6859161104287432 -5.000653104482306" fill="#ff4106" stroke="none" /><path d="M 112.45986205192187 116.90419585922612 l 2.174822695305172 2.9505646729738917 a24.665472090388356,24.665472090388356 0 0,0 -0.34298982088020485,0.24829817969652357 l -2.1238518640509993 -2.9874636240434924" fill="#ff1c02" stroke="none" /><path d="M 111.8722381534696 117.32195027204791 l 1.7172520684153219 2.5055220885177807 a24.03753116898036,24.03753116898036 0 0,0 -0.342367371315524,0.23036004679140035 l -1.6739884090027943 -2.534631809366302" fill="#ff1302" stroke="none" /><path d="M 110.96478420261333 117.91015095944535 l 4.683146465665188 7.649567799543712 a29.969266878551913,29.969266878551913 0 0,0 -0.4410723191499313,0.2648512546124621 l -4.55114138995782 -7.728833054692098" fill="#ff6709" stroke="none" /><line stroke="#e1ed5e" stroke-width="0.3" x1="143.1302829299769" x2="145.66735839644613" y1="173.24464959558577" y2="177.55315839532614" /><path d="M 143.63769802327073 174.10635135553383 a86.0,86.0 0 0,1 -40.68552437913181,11.842963189579606" fill="none" id="id114" stroke="none" /><text fill="#e1ed5e" style="font-size:6.75px; font-family:Arial;" text-anchor="middle"><textPath startOffset="21.407464694133747" xlink:href="#id114">June</textPath></text><path d="M 110.65571695917076 118.09573695890943 l 5.688692717836212 9.660643901903963 a32.2111223986431,32.2111223986431 0 0,0 -0.4788835729298572,0.2764835597415439 l -5.522016677045957 -9.756874358921678" fill="#ff860c" stroke="none" /><path d="M 107.06938296918513 119.77432235084164 l 2.492423625811843 6.971752474931772 a28.403884662947036,28.403884662947036 0 0,0 -0.4605408942491617,0.16020002955335336 l -2.3723769595176596 -7.013510937053716" fill="#ff5107" stroke="none" /><path d="M 104.9986988182912 120.39639698878246 l 0.4180454368286496 1.7057680406160034 a22.756247874202334,22.756247874202334 0 0,0 -0.3802112228848965,0.08972881333934973 l -0.38870206020387393 -1.7126929976015783" fill="#ff0000" stroke="none" /><path d="M 104.29559338865022 120.5559693870025 l 0.4956733020395792 2.3719761860145927 a23.42321337264698,23.42321337264698 0 0,0 -0.39429467844709304,0.07886997855592377 l -0.4548821380615275 -2.3801355612333777" fill="#ff0a01" stroke="none" /><path d="M 103.94208987418118 120.62667999033965 l 3.8102905539803618 19.937050253957455 a41.29788873096355,41.29788873096355 0 0,0 -0.6974727005021896,0.12710276006959687 l -3.467483119927115 -19.999521187958415" fill="#fffb17" stroke="none" /><path d="M 103.2317021107853 120.74984581791261 l 9.695106332355914 62.24953745373786 a84.0,84.0 0 0,0 -1.426699577569258,0.20967570680447034 l -8.625081649178972 -62.406794233841204" fill="#4dd2ff" stroke="none" /><path d="M 102.15924093988457 120.88869738790638 l 0.5135766960907192 4.96838865545654 a25.994862045586114,25.994862045586114 0 0,0 -0.444265111328912,0.042072367943542924 l -0.42821202137679193 -4.976472778905266" fill="#ff2f04" stroke="none" /><path d="M 101.80034050326958 120.92268563240118 l 5.107071317737998 59.35191009102399 a80.57122970778308,80.57122970778308 0 0,0 -1.3790380040982788,0.10674626316309506 l -4.087464318864484 -59.43083412118214" fill="#49f2ff" stroke="none" /><path d="M 101.08105385017728 120.97215588758144 l 0.3679933595069976 7.138972864219434 a28.14845106779802,28.14845106779802 0 0,0 -0.4827784263623295,0.020732582895714877 l -0.24538917254383852 -7.14423801554098" fill="#ff4e07" stroke="none" /><line stroke="#e1ed5e" stroke-width="0.3" x1="101.45913802915013" x2="101.54496967792366" y1="184.9874750549273" y2="189.98673829345242" /><path d="M 101.47630435890484 185.9873277026323 a86.0,86.0 0 0,1 -42.54439059252881,-10.42667462771756" fill="none" id="id115" stroke="none" /><text fill="#e1ed5e" style="font-size:6.75px; font-family:Arial;" text-anchor="middle"><textPath startOffset="22.145653131862474" xlink:href="#id115">July</textPath></text><path d="M 100.36049292484886 120.99690560180557 l 0.07428922720879562 4.326975048367922 a25.327612732035742,25.327612732035742 0 0,0 -0.4347821520576473,0.0037320818622551457 l -5.299797080236905e-16 -4.3276127320357425" fill="#ff2603" stroke="none" /><path d="M 100.0 121.0 l 1.1702444116900336e-15 9.55577079452462 a30.55577079452462,30.55577079452462 0 0,0 -0.5245304373680626,-0.0045024629512449505 l 0.1640375125192093 -9.55436272976781" fill="#ff6f0a" stroke="none" /><path d="M 99.27912038922189 120.98762331915562 l -0.41673388916465126 12.13275248647119 a33.13990733211548,33.13990733211548 0 0,0 -0.5683876627192086,-0.02440901185875607 l 0.6249473124846986 -12.123810906186606" fill="#ff920d" stroke="none" /><path d="M 98.91894614982273 120.97215588758144 l -0.8911789000868912 17.288632581328805 a38.311586188565855,38.311586188565855 0 0,0 -0.6565066985104755,-0.0394938127324432 l 1.1878299507298131 -17.270786790771673" fill="#ffd614" stroke="none" /><path d="M 98.19965949673042 120.92268563240118 l -0.6719661000263019 7.809264659073055 a28.83812177470036,28.83812177470036 0 0,0 -0.49285783314743137,-0.046674149221419124 l 0.8059234965587484 -7.796578754346452" fill="#ff5808" stroke="none" /><path d="M 97.48249496171623 120.84855314841334 l -1.7098637950552886 14.160125070518212 a35.262986230462374,35.262986230462374 0 0,0 -0.600347602083326,-0.0777270164674039 l 1.9526892190294087 -14.128686457850412" fill="#ffaf10" stroke="none" /><path d="M 96.05791012581884 120.62667999033965 l -2.590851596727926 13.556430343757157 a34.80178668366554,34.80178668366554 0 0,0 -0.5858359001179844,-0.11718358731487541 l 2.823183982376868 -13.50995735977942" fill="#ffa90f" stroke="none" /><path d="M 95.70440661134978 120.55596938700252 l -1.9531432303253164 9.346497402915084 a30.548391601775872,30.548391601775872 0 0,0 -0.512394839713419,-0.1116740704584993 l 2.113300486657872 -9.311591874322865" fill="#ff6f0a" stroke="none" /><path d="M 95.35216902796893 120.47920084513623 l -2.2845982433120358 10.066361396698353 a31.322355395077388,31.322355395077388 0 0,0 -0.5233336846316479,-0.1235053246093238 l 2.457064081683572 -10.025659928442801" fill="#ff7a0b" stroke="none" /><path d="M 94.6519064749342 120.30758222061772 l -3.4441909746288797 13.078154125946183 a34.52407360271742,34.52407360271742 0 0,0 -0.571814995929745,-0.15585071988899432 l 3.66818737149332 -13.017102911913046" fill="#ffa50f" stroke="none" /><path d="M 93.95794788825049 120.11202640906438 l -3.770085040205288 12.549386945137101 a34.103459616038705,34.103459616038705 0 0,0 -0.5592307509650899,-0.1732511161636741 l 3.9849564240420117 -12.482819241166778" fill="#ff9f0e" stroke="none" /><path d="M 93.27111125876986 119.89276391827306 l -5.91839254559471 17.496675931612963 a39.470545172778074,39.470545172778074 0 0,0 -0.6399758478841505,-0.22261682083981385 l 6.217874165523883 -17.39250067820456" fill="#ffe515" stroke="none" /><path d="M 92.59220618246901 119.65005319985036 l -3.5600380270469203 9.443423824703348 a31.092181344337554,31.092181344337554 0 0,0 -0.4978120851213117,-0.19256440874651765 l 3.7216223746617603 -9.38091952781879" fill="#ff770a" stroke="none" /><path d="M 91.59046798132341 119.24265499422711 l -8.745855714290753 20.01222942794277 a42.83985620034644,42.83985620034644 0 0,0 -0.6713344047202824,-0.3002793402024852 l 9.088103521866671 -19.859146336830428" fill="#f0ff19" stroke="none" /><path d="M 89.97174638481275 118.45085714620012 l -4.751951645053905 8.743055803430945 a30.95098332924129,30.95098332924129 0 0,0 -0.46464177984889987,-0.2577289628219834 l 4.901337613058908 -8.660193925175813" fill="#ff750a" stroke="none" /><line stroke="#e1ed5e" stroke-width="0.3" x1="58.13341422392154" x2="55.67067388415222" y1="173.97424548756322" y2="178.32567169271397" /><path d="M 57.64086615596768 174.84453072859336 a86.0,86.0 0 0,1 -31.369924170532247,-30.572349798747897" fill="none" id="id116" stroke="none" /><text fill="#e1ed5e" style="font-size:6.75px; font-family:Arial;" text-anchor="middle"><textPath startOffset="22.145653131862474" xlink:href="#id116">August</textPath></text><path d="M 84.58840730492382 114.26474011684316 l -3.126503314322181 2.893844791752344 a25.260206644426976,25.260206644426976 0 0,0 -0.29181829567367656,-0.32075942598652607 l 3.1757193108377377 -2.8397477902081443" fill="#ff2503" stroke="none" /><line stroke="#e1ed5e" stroke-width="0.3" x1="26.387840678322732" x2="22.057713659400548" y1="142.50000000000003" y2="145.00000000000006" /><path d="M 25.521815274538298 143.00000000000003 a86.0,86.0 0 0,1 -11.493303480769221,-40.785679425670985" fill="none" id="id117" stroke="none" /><text fill="#e1ed5e" style="font-size:6.75px; font-family:Arial;" text-anchor="middle"><textPath startOffset="21.40746469413373" xlink:href="#id117">September</textPath></text><path d="M 79.83685265289637 105.86919833188381 l -8.664570185202965 2.5221301021136675 a30.024185101508948,30.024185101508948 0 0,0 -0.1398004806408392,-0.49610258673777796 l 8.70658915791838 -2.3730195914728935" fill="#ff6809" stroke="none" /><path d="M 79.34024301695615 103.76489593502545 l -7.044498228007657 1.283742241725659 a28.16051320979117,28.16051320979117 0 0,0 -0.08258430216844455,-0.47632430898330985 l 7.065497347668336 -1.1626248998217565" fill="#ff4e07" stroke="none" /><path d="M 79.17382384314188 102.69636545807758 l -9.825129319777815 1.272059696386955 a30.907133895407377,30.907133895407377 0 0,0 -0.06360675460251494,-0.5267551737781634 l 9.84551816063999 -1.1032108456853924" fill="#ff740a" stroke="none" /><line stroke="#e1ed5e" stroke-width="0.3" x1="15.003131293944662" x2="10.003315487706104" y1="100.72959589197737" y2="100.7725132973878" /><path d="M 14.003168132696942 100.73817937305945 a86.0,86.0 0 0,1 10.791469493833604,-42.45332614584628" fill="none" id="id118" stroke="none" /><text fill="#e1ed5e" style="font-size:6.75px; font-family:Arial;" text-anchor="middle"><textPath startOffset="22.145653131862435" xlink:href="#id118">October</textPath></text><path d="M 79.00077361379809 100.18025310272382 l -10.047110328542479 0.08624235849556412 a31.047480465186474,31.047480465186474 0 0,0 0.0,-0.5329909224387597 l 10.047110328542479 0.08624235849556042" fill="#ff760a" stroke="none" /><path d="M 79.01933749520258 99.09900007780938 l -14.245882647935586 -0.6117794971627678 a35.25901281898228,35.25901281898228 0 0,0 0.03115958263098677,-0.6044875786917006 l 14.23328147584803 0.8562388692311804" fill="#ffaf10" stroke="none" /><path d="M 79.2786578344484 96.59031103205396 l -2.7612835707409915 -0.45436816077379666 a23.798416942410313,23.798416942410313 0 0,0 0.06979189765686866,-0.40254111920975 l 2.7530768555918885 0.5017023129041394" fill="#ff0f01" stroke="none" /><path d="M 80.5471966667186 92.08871423366112 l -10.634627982361561 -4.325010619072249 a32.48046293397245,32.48046293397245 0 0,0 0.21448575078251628,-0.5146877210820979 l 10.558816387042565 4.506930849595611" fill="#ff8a0c" stroke="none" /><path d="M 81.63589988554816 89.8137432299009 l -16.838511983506987 -9.340038750682492 a40.25543584764985,40.25543584764985 0 0,0 0.3403820134793018,-0.6014224030433298 l 16.675696605006316 9.627717923824926" fill="#ffef16" stroke="none" /><line stroke="#e1ed5e" stroke-width="0.3" x1="26.387840678322718" x2="22.05771365940052" y1="57.49999999999999" y2="54.99999999999999" /><path d="M 25.521815274538284 56.99999999999999 a86.0,86.0 0 0,1 29.574782752854787,-30.34633250058573" fill="none" id="id119" stroke="none" /><text fill="#e1ed5e" style="font-size:6.75px; font-family:Arial;" text-anchor="middle"><textPath startOffset="21.40746469413373" xlink:href="#id119">November</textPath></text><path d="M 83.2033758604659 87.39550010848427 l -10.505518450118537 -7.883536897939334 a34.13453737011517,34.13453737011517 0 0,0 0.3557274289226299,-0.46565862346359527 l 10.368639043841599 8.062716434643814" fill="#ffa00e" stroke="none" /><path d="M 88.4268655584334 82.4767994020092 l -8.54340181101108 -12.935799240859751 a36.502406797146534,36.502406797146534 0 0,0 0.5258334530159819,-0.34083889130541334 l 8.320082725738072 13.08055197386907" fill="#ffbf11" stroke="none" /><path d="M 89.03521579738668 82.08984904055464 l -3.7096180832211574 -6.059382350319684 a28.10474354151697,28.10474354151697 0 0,0 0.413631219716043,-0.2483736628492371 l 3.60505410694768 6.122170013704845" fill="#ff4d07" stroke="none" /><line stroke="#e1ed5e" stroke-width="0.3" x1="56.869717070023135" x2="54.33264160355391" y1="26.7553504044142" y2="22.446841604673864" /><path d="M 56.362301976729285 25.89364864446614 a86.0,86.0 0 0,1 42.16139366436587,-11.88097634709845" fill="none" id="id120" stroke="none" /><text fill="#e1ed5e" style="font-size:6.75px; font-family:Arial;" text-anchor="middle"><textPath startOffset="22.145653131862474" xlink:href="#id120">December</textPath></text><path d="M 89.97174638481275 81.54914285379989 l -5.066724478379287 -9.322202363146543 a31.61014391227861,31.61014391227861 0 0,0 0.4789857774992085,-0.2550329475371163 l 4.905949885093517 9.407805778406233" fill="#ff7e0b" stroke="none" /><path d="M 95.35216902796891 79.52079915486377 l -1.3281700647948818 -5.8521623693095925 a27.000986595367507,27.000986595367507 0 0,0 0.45289344129770615,-0.09870601761321404 l 1.2275142068780571 5.874099845056521" fill="#ff3e05" stroke="none" /><path d="M 95.70440661134978 79.44403061299748 l -0.9711725032992614 -4.6474119966906935 a25.747800996055872,25.747800996055872 0 0,0 0.43342562580736993,-0.08669726395407461 l 0.8912503919609147 4.663398657307634" fill="#ff2c04" stroke="none" /><path d="M 96.05791012581881 79.37332000966035 l -0.42320874486902754 -2.214406984148202 a23.254485292295772,23.254485292295772 0 0,0 0.39274086772978745,-0.07157046898701797 l 0.3851331435882016 2.2213456270665812" fill="#ff0701" stroke="none" /><path d="M 97.48249496171623 79.15144685158666 l -1.7039606148735766 -14.111238270336436 a35.213744309619756,35.213744309619756 0 0,0 0.600753350302186,-0.06731566595293656 l 1.4614713629705913 14.138409696796344" fill="#ffae10" stroke="none" /><path d="M 98.1996594967304 79.07731436759882 l -1.520385042772339 -17.66917882053949 a38.73447069609034,38.73447069609034 0 0,0 0.662969987578364,-0.05131806995380438 l 1.2168460604187579 17.692674657488347" fill="#ffdb14" stroke="none" /><path d="M 99.63950707515114 79.00309439819443 l -0.3190641432360471 -18.583886769087268 a39.58662555101802,39.58662555101802 0 0,0 0.6795570680848947,-0.005833180125182908 l 4.552410297600925e-15 18.586625551018017" fill="#ffe615" stroke="none" /></svg>