<?xml version="1.0" encoding="utf-8" ?>
<svg baseProfile="full" height="200mm" version="1.1" viewBox="0,0,200,200" width="200mm" xmlns="http://www.w3.org/2000/svg" xmlns:ev="http://www.w3.org/2001/xml-events" xmlns:xlink="http://www.w3.org/1999/xlink"><defs /><rect fill="#1a1a1a" height="200" width="200" x="0" y="0" /><text alignment-baseline="middle" fill="#e1ed5e" style="dominant-baseline: central; font-size:9.0px; font-family:Arial;" text-anchor="middle" x="100.0" y="100.0">2019</text><line stroke="#e1ed5e" stroke-width="0.3" x1="100.0" x2="100.0" y1="15.0" y2="10.0" /><path d="M 100.0 14.0 a86.0,86.0 0 0,1 42.46469731375804,11.215312516191453" fill="none" id="id97" stroke="none" /><text fill="#e1ed5e" style="font-size:6.75px; font-family:Arial;" text-anchor="middle"><textPath startOffset="22.20632615414155" xlink:href="#id97">January</textPath></text><path d="M 100.36148047927253 79.00311137660856 l 0.04576558394182564 -2.6583312901013225 a23.65872520893102,23.65872520893102 0 0,0 0.40712538741673365,0.010514847620083286 l -0.09151760655342711 2.6571496503388796" fill="#ff1e03" stroke="none" /><path d="M 101.08401301168833 79.027996857942 l 0.2914472229546731 -5.638522794140451 a26.646050016056307,26.646050016056307 0 0,0 0.4578526711576659,0.027618923465640082 l -0.38846194295195097 5.632670601294507" fill="#ff4806" stroke="none" /><path d="M 102.16513564639614 79.11191278185805 l 0.28802471417282444 -2.778710590551898 a23.793598178339114,23.793598178339114 0 0,0 0.40702155756998837,0.04573361447487179 l -0.33581297525253806 2.773341022606425" fill="#ff2003" stroke="none" /><path d="M 102.88285421437855 79.19881850522331 l 0.8717137725138221 -6.289834672567803 a27.349953158049782,27.349953158049782 0 0,0 0.46577103014961185,0.06864254235087382 l -0.9798537830920897 6.273897646055961" fill="#ff5207" stroke="none" /><path d="M 103.95276090670814 79.375362276772 l 1.0500021090136389 -5.478680248602939 a26.578390600824314,26.578390600824314 0 0,0 0.4485844957731128,0.08998182978825328 l -1.144153014253877 5.459794462737477" fill="#ff4706" stroke="none" /><path d="M 104.66035177308747 79.52364482259891 l 0.6148143341367819 -2.70133184937707 a23.7704134034326,23.7704134034326 0 0,0 0.39818420887791106,0.09423733742558339 l -0.6612222299772165 2.6903485998106182" fill="#ff2003" stroke="none" /><path d="M 105.36241919743992 79.69619591428918 l 1.0576574510955186 -4.004623451871838 a25.141937743996134,25.141937743996134 0 0,0 0.4174784171589288,0.1141126217481068 l -1.1264337574781584 3.9858242892974376" fill="#ff3304" stroke="none" /><path d="M 106.74666289553966 80.11325718540242 l 2.2270671567868217 -6.564595336034496 a27.932080499152068,27.932080499152068 0 0,0 0.45398674944351897,0.15838706261734523 l -2.3397359102936144 6.5252874202449425" fill="#ff5a08" stroke="none" /><path d="M 107.4271985657038 80.35727306442388 l 0.9272787404595128 -2.4523759437533195 a23.62183020655575,23.62183020655575 0 0,0 0.37909306919660385,0.14708222128408743 l -0.9693549746557836 2.4360510185786852" fill="#ff1e03" stroke="none" /><path d="M 108.09893153111575 80.62456947434976 l 1.6061848798051124 -3.8425468137926733 a25.164732390478743,25.164732390478743 0 0,0 0.39822139543886825,0.17049761920035061 l -1.6720900330342958 3.814329666629532" fill="#ff3404" stroke="none" /><path d="M 108.76106565485865 80.91482961587045 l 2.3225256068421656 -5.0594070030173475 a26.567021143899,26.567021143899 0 0,0 0.4139670561499063,0.19436308355458726 l -2.4092708742916695 5.018678936822758" fill="#ff4706" stroke="none" /><path d="M 109.73455568895987 81.39251694778311 l 1.4659484060696808 -2.8021422849634505 a24.162436736827857,24.162436736827857 0 0,0 0.366872030546851,0.19597033313511053 l -1.5139654831448428 2.7764932253265857" fill="#ff2503" stroke="none" /><line stroke="#e1ed5e" stroke-width="0.3" x1="143.23703022742887" x2="145.7803849466894" y1="26.81831364943548" y2="22.513508569990506" /><path d="M 143.74570117128098 25.957352633546492 a86.0,86.0 0 0,1 28.547481713284135,27.462654790039103" fill="none" id="id98" stroke="none" /><text fill="#e1ed5e" style="font-size:6.75px; font-family:Arial;" text-anchor="middle"><textPath startOffset="19.985693538727396" xlink:href="#id98">February</textPath></text><path d="M 110.68208982089419 81.91981866633111 l 1.1673219155707402 -1.9757736793227951 a23.294846854689105,23.294846854689105 0 0,0 0.34347467846964286,0.20693965061355146 l -1.2011586602580206 1.955387419250629" fill="#ff1902" stroke="none" /><path d="M 110.99172775467656 82.1063720568725 l 3.7540292119182137 -6.1112505244789235 a28.172176677751267,28.172176677751267 0 0,0 0.41101977952608526,0.2573805482322076 l -3.8586681438165624 6.045725634923772" fill="#ff5d08" stroke="none" /><path d="M 111.2981086023043 82.29822771554956 l 0.29984444232347496 -0.4697935048779444 a21.557326319868153,21.557326319868153 0 0,0 0.311075271945165,0.20233200999476836 l -0.3078867400529201 0.46456257072364804" fill="#ff0000" stroke="none" /><path d="M 111.60114157652 82.49532879139004 l 1.5394337002645984 -2.3228128536182373 a23.78663159934076,23.78663159934076 0 0,0 0.3393506268115954,0.22913105805174613 l -1.5791890214827358 2.295969883267821" fill="#ff2003" stroke="none" /><path d="M 112.77801427241765 83.33499621200491 l 1.7122855863282853 -2.233151816388706 a23.814052054278275,23.814052054278275 0 0,0 0.3231537888194285,0.2522266579540268 l -1.7504719303071443 2.2033467692114552" fill="#ff2003" stroke="none" /><path d="M 113.06298171725822 83.55741782278167 l 4.191259100182456 -5.2756042741540865 a27.737852276678016,27.737852276678016 0 0,0 0.37128647648068486,0.30022117607034254 l -4.281448975227632 5.202677000819614" fill="#ff5708" stroke="none" /><path d="M 113.34407831869373 83.78471172551755 l 0.3807038817140105 -0.46261892667094706 a21.599125793858263,21.599125793858263 0 0,0 0.28504928200189233,0.23872057609808597 l -0.3886107006750202 0.45599719317904175" fill="#ff0100" stroke="none" /><path d="M 114.94478906791727 85.2469230424477 l 2.582147518142612 -2.5490236682356575 a24.628361540237634,24.628361540237634 0 0,0 0.29523041552941676,0.3042608946892465 l -2.6256421973751376 2.5041985779962967" fill="#ff2c04" stroke="none" /><path d="M 115.19652480421416 85.50635884689758 l 0.4133885154769391 -0.3942680894038991 a21.571259477864857,21.571259477864857 0 0,0 0.2539581071039315,0.2709048019415279 l -0.42011394455133355 0.38709387058431644" fill="#ff0000" stroke="none" /><path d="M 115.68641384162765 86.03803664274999 l 3.0069453086842697 -2.6763835661209594 a25.02551227577568,25.02551227577568 0 0,0 0.2836321685603358,0.3242405994424156 l -3.052569340822454 2.624227410475596" fill="#ff3204" stroke="none" /><path d="M 115.9244219780498 86.31012108654704 l 3.926935690796503 -3.3759011273390374 a26.178564698950897,26.178564698950897 0 0,0 0.29081815706695546,0.34423696919860436 l -3.984464461350576 3.307805208511326" fill="#ff4206" stroke="none" /><path d="M 116.60985879189232 87.15038557335679 l 7.061589121277916 -5.462942134829661 a29.92803324849588,29.92803324849588 0 0,0 0.3117133777723205,0.41017826651693906 l -7.15457843927435 5.340579092431689" fill="#ff750a" stroke="none" /><path d="M 117.04232023915458 87.72973835380427 l 3.4465560865715053 -2.4814781301526994 a25.246938022659293,25.246938022659293 0 0,0 0.25089130256773834,0.35486795485974576 l -3.4887600089431263 2.4217836749611603" fill="#ff3505" stroke="none" /><path d="M 117.45458315368197 88.32363383020206 l 7.559364703993106 -5.056890188537697 a30.09484101603242,30.09484101603242 0 0,0 0.284329415045198,0.4330532058337515 l -7.645290754396228 4.926018918726271" fill="#ff770b" stroke="none" /><line stroke="#e1ed5e" stroke-width="0.3" x1="172.23445277983987" x2="176.4835382374775" y1="55.19839476539836" y2="52.563006222186495" /><path d="M 173.08426987136738 54.67131705675599 a86.0,86.0 0 0,1 12.851231095245387,41.99856678651699" fill="none" id="id99" stroke="none" /><text fill="#e1ed5e" style="font-size:6.75px; font-family:Arial;" text-anchor="middle"><textPath startOffset="22.20632615414155" xlink:href="#id99">March</textPath></text><path d="M 118.03404312379186 89.2402003453031 l 5.8674451064759054 -3.5007420907917917 a27.83243055315964,27.83243055315964 0 0,0 0.2419305206407509,0.41353768270553665 l -5.9268353015869835 3.39922499573236" fill="#ff5908" stroke="none" /><path d="M 118.21658344932153 89.55222093294921 l 0.5801475093932278 -0.33273270047056863 a21.668791583841784,21.668791583841784 0 0,0 0.18278385007163858,0.3251520737073667 l -0.5857890007572993 0.322697116828408" fill="#ff0200" stroke="none" /><path d="M 118.3937258080291 89.86733742301442 l 3.945777077601034 -2.173633996103347 a25.504868643494277,25.504868643494277 0 0,0 0.20852282745642414,0.38636113014777174 l -3.982608004275923 2.1053918826231164" fill="#ff3805" stroke="none" /><path d="M 118.73160827565052 90.50648371742162 l 5.366560358634245 -2.719869399167467 a27.01644908824068,27.01644908824068 0 0,0 0.20666295388475675,0.4166199042872873 l -5.41258332547241 2.6270899063812303" fill="#ff4d07" stroke="none" /><path d="M 119.196687751892 91.48605970444005 l 8.160091402930451 -3.6190894965207994 a29.92663993269621,29.92663993269621 0 0,0 0.2047969610248313,0.47269962215828887 l -8.221179073797963 3.4780907297759076" fill="#ff750a" stroke="none" /><path d="M 119.34039704204932 91.81776055985345 l 0.8212504615797521 -0.34744208727290854 a21.891722111789043,21.891722111789043 0 0,0 0.1438372803876564,0.34831338352944935 l -0.8271094288536059 0.3332541332901561" fill="#ff0500" stroke="none" /><path d="M 119.47837535516314 92.15188598940014 l 4.72537955571926 -1.903922520253324 a26.094519889914782,26.094519889914782 0 0,0 0.16427923058033309,0.41807272303469406 l -4.757452336181294 1.8223007923228456" fill="#ff4106" stroke="none" /><path d="M 119.7369772167798 92.82701384747503 l 3.4759276726538304 -1.263252259415243 a24.698361726013072,24.698361726013072 0 0,0 0.14177673405313287,0.40082191902853864 l -3.497157487516773 1.20323271396009" fill="#ff2d04" stroke="none" /><path d="M 119.97218684219823 93.5106431181261 l 4.121288654007675 -1.3390878575482974 a25.333379334870845,25.333379334870845 0 0,0 0.13118409906128822,0.41588944331205313 l -4.14372823683717 1.267948247809825" fill="#ff3605" stroke="none" /><path d="M 120.08093135843002 93.85539295169968 l 2.82737918985663 -0.8651557932305468 a23.95678332479651,23.95678332479651 0 0,0 0.11726743095056132,0.39536748040263014 l -2.841852517918894 0.8163589260813868" fill="#ff2203" stroke="none" /><path d="M 120.18372546131832 94.20196356495316 l 8.723110040629894 -2.505826287591192 a30.075891921156902,30.075891921156902 0 0,0 0.13865448690401094,0.4988139617015339 l -8.764951298100268 2.355301022470706" fill="#ff770b" stroke="none" /><path d="M 120.53481517161879 95.60439243477599 l 3.2817642828259648 -0.7024824810115207 a24.35610763298204,24.35610763298204 0 0,0 0.08422655643225115,0.4107186016163373 l -3.293370135173213 0.6458882232317715" fill="#ff2803" stroke="none" /><path d="M 120.6074358757038 95.95851677861258 l 5.501565568062937 -1.078954464242864 a26.60636838208169,26.60636838208169 0 0,0 0.08427158725341771,0.4501821888219309 l -5.519322879226214 0.9840941979583703" fill="#ff4806" stroke="none" /><path d="M 120.78858239683441 97.02765380044208 l 3.762699262641637 -0.5379897791922206 a24.800965501500798,24.800965501500798 0 0,0 0.05678712612098745,0.42313004944165566 l -3.7714023878204608 0.4731413876859005" fill="#ff2e04" stroke="none" /><path d="M 120.83666639777658 97.38593545837742 l 1.9522813768271785 -0.24492351247599758 a22.967584839662525,22.967584839662525 0 0,0 0.04583635109477997,0.39269786439219106 l -1.9562080809255473 0.21128190975895375" fill="#ff1402" stroke="none" /><path d="M 120.87857604477298 97.74499172005257 l 0.8450083059742416 -0.09126583740720734 a21.849922637798933,21.849922637798933 0 0,0 0.03716866858300561,0.3742834202395892 l -0.8464541002394759 0.07670688646318316" fill="#ff0400" stroke="none" /><path d="M 120.96714384426684 98.82574320788733 l 8.365289367531028 -0.46849479980541797 a29.37839803184191,29.37839803184191 0 0,0 0.0239313517240459,0.5051530111669923 l -8.372114327488571 0.32443068201542596" fill="#ff6e0a" stroke="none" /><line stroke="#e1ed5e" stroke-width="0.3" x1="184.98032266829074" x2="189.97916517819016" y1="98.17113171792111" y2="98.06355123074" /><path d="M 185.9800911702706 98.14961562048488 a86.0,86.0 0 0,1 -9.607161424134198,41.387399972396054" fill="none" id="id100" stroke="none" /><text fill="#e1ed5e" style="font-size:6.75px; font-family:Arial;" text-anchor="middle"><textPath startOffset="21.466115282336823" xlink:href="#id100">April</textPath></text><path d="M 120.99980553446 99.90962569577887 l 5.297894936307598 -0.02279990488101248 a26.297943996666657,26.297943996666657 0 0,0 -0.0019481801312434418,0.45268845226310983 l -5.297502458886851 -0.06839802558578208" fill="#ff4306" stroke="none" /><path d="M 120.99824983174949 100.27111621757518 l 24.09912222097568 0.3111527349081294 a45.10113084164236,45.10113084164236 0 0,0 -0.016704465167693867,0.7761908574072428 l -24.090195693122975 -0.725933408105487" fill="#ccff1d" stroke="none" /><path d="M 120.95626037817324 101.35467743843564 l 8.914443080940018 0.5762571518029989 a29.933049185374692,29.933049185374692 0 0,0 -0.03766353186415443,0.5138889684710021 l -8.903202990411526 -0.7296192567707712" fill="#ff750a" stroke="none" /><path d="M 120.89721153311464 102.0752229133903 l 3.0543396632242183 0.3033149013376997 a24.069363241409874,24.069363241409874 0 0,0 -0.044491299303176815,0.4119341751835099 l -3.04866606241999 -0.35584539840600105" fill="#ff2403" stroke="none" /><path d="M 120.76222939487914 103.15116336523771 l 4.594426867307021 0.6973138266207846 a25.647042587692642,25.647042587692642 0 0,0 -0.07000207080704113,0.4359029617376398 l -4.581743042138691 -0.7762960180516293" fill="#ff3a05" stroke="none" /><path d="M 120.70491114924044 103.5080841355445 l 0.5494948540001555 0.0931022676690889 a21.557326319868153,21.557326319868153 0 0,0 -0.06513757374527042,0.36532610578887387 l -0.5478108379156964 -0.1025471241911811" fill="#ff0000" stroke="none" /><path d="M 120.5718875245553 104.21870165774334 l 8.20770261894669 1.6831634240408984 a29.37850949710588,29.37850949710588 0 0,0 -0.10585491247340927,0.4945189101608458 l -8.177513667748839 -1.8241961536179132" fill="#ff6e0a" stroke="none" /><path d="M 120.49622156327973 104.57218783832717 l 17.203164105007836 3.8375901362512894 a38.62600219215019,38.62600219215019 0 0,0 -0.15034607426436106,0.6476869530085295 l -17.13455746481292 -4.133145746608384" fill="#ffe515" stroke="none" /><path d="M 120.41448212921028 104.9243191809786 l 0.8939486440568295 0.21563556826357508 a21.91958842778245,21.91958842778245 0 0,0 -0.09163294567943879,0.3660280682614433 l -0.8901043840823298 -0.2309914759224143" fill="#ff0500" stroke="none" /><path d="M 120.32669344350535 105.2749913415812 l 5.869078580037653 1.5230877948154555 a27.06348742963755,27.06348742963755 0 0,0 -0.12089894365116331,0.44990994483695457 l -5.841991560044712 -1.6238886728279582" fill="#ff4e07" stroke="none" /><path d="M 120.23288151984713 105.62410040840565 l 0.9531173038603783 0.2649364309597438 a21.98925421776597,21.98925421776597 0 0,0 -0.10450902287221135,0.36380961891391084 l -0.9484156441020676 -0.2813035253782366" fill="#ff0601" stroke="none" /><path d="M 120.13307415673323 105.97154293290107 l 41.58725123180018 12.334929790589584 a64.37798932587401,64.37798932587401 0 0,0 -0.32426036716968726,1.05970164148982 l -41.36876409212436 -13.048958404631462" fill="#35ff63" stroke="none" /><path d="M 119.9155931802556 106.66101706037122 l 9.000043235626272 3.0101760461756837 a30.490096842082913,30.490096842082913 0 0,0 -0.17075785495513307,0.49630225647974574 l -8.946894549727908 -3.1646510057447297" fill="#ff7d0b" stroke="none" /><path d="M 119.54520255179757 107.68017299344265 l 0.7651074913654615 0.30064451246760004 a21.822056321805526,21.822056321805526 0 0,0 -0.14038584574304136,0.34842615617481526 l -0.7598190313650277 -0.31377003648522883" fill="#ff0400" stroke="none" /><path d="M 119.41010516605496 108.01547362559984 l 4.091741388498672 1.689699509698859 a25.42689869134472,25.42689869134472 0 0,0 -0.17054065390468895,0.40310772893592134 l -4.062049753401674 -1.759881764300944" fill="#ff3705" stroke="none" /><path d="M 119.26925614724726 108.34839909993367 l 12.777831546048807 5.535991455143796 a34.92552262612162,34.92552262612162 0 0,0 -0.24374508148941762,0.5495808119363887 l -12.680645379828118 -5.7551206035728715" fill="#ffb710" stroke="none" /><path d="M 119.12269723197855 108.67885076344098 l 9.213277047419488 4.181452834125991 a31.117757743518425,31.117757743518425 0 0,0 -0.22556726645678082,0.48585182454183184 l -9.139935164122877 -4.339424725946653" fill="#ff850c" stroke="none" /><path d="M 118.97047184881838 109.00673069616215 l 36.76908097307246 17.45708872763074 a61.70276725787488,61.70276725787488 0 0,0 -0.4637895652150374,0.955543874274529 l -36.46313815124271 -18.087421557870545" fill="#32ff44" stroke="none" /><line stroke="#e1ed5e" stroke-width="0.3" x1="174.80103733775053" x2="179.2010983576182" y1="140.37084112569926" y2="142.7455964860345" /><path d="M 175.68104954172406 140.8457921977663 a86.0,86.0 0 0,1 -30.038265399797805,32.042727171017184" fill="none" id="id101" stroke="none" /><text fill="#e1ed5e" style="font-size:6.75px; font-family:Arial;" text-anchor="middle"><textPath startOffset="22.206326154141568" xlink:href="#id101">May</textPath></text><path d="M 118.48025628344425 109.97397251340804 l 24.305819411507823 13.11808510704576 a48.619866294761934,48.619866294761934 0 0,0 -0.40383103100570983,0.7330706219275477 l -24.076411971050604 -13.534526247371112" fill="#a4ff21" stroke="none" /><path d="M 118.30583269289576 110.29060199501025 l 2.494322071233348 1.4021801746496567 a23.86142479146707,23.86142479146707 0 0,0 -0.20435379131930836,0.35630806019754596 l -2.46981628376166 -1.444908080705518" fill="#ff2103" stroke="none" /><path d="M 117.94076556474637 110.91462005526583 l 3.6654395459405933 2.2299427432517844 a25.290465208241,25.290465208241 0 0,0 -0.22946323340081173,0.3699677949262165 l -3.626511672871819 -2.292706869543274" fill="#ff3505" stroke="none" /><path d="M 117.35343817320211 111.8261652097733 l 14.38427912812412 9.802718037476966 a38.406917215810026,38.406917215810026 0 0,0 -0.37700795588409586,0.5431080790330749 l -14.213410265077888 -10.04886737869706" fill="#ffe215" stroke="none" /><path d="M 116.93607887273984 112.41649034213515 l 4.685076609279847 3.4348097282966674 a26.809290895145686,26.809290895145686 0 0,0 -0.27605748114138595,0.3698241086577092 l -4.625257861443369 -3.5149467164636916" fill="#ff4a06" stroke="none" /><path d="M 116.71984013943494 112.70617746262583 l 22.527248858907875 17.11949512429323 a49.29406394390643,49.29406394390643 0 0,0 -0.5192148045718437,0.6711551257691102 l -22.229227237117964 -17.504728244175595" fill="#9dff22" stroke="none" /><path d="M 116.498646956653 112.99209946851258 l 26.64363409655465 20.980917119722054 a54.91286070292118,54.91286070292118 0 0,0 -0.5911816287027324,0.7375899801375592 l -26.278534555797066 -21.436434933437866" fill="#61ff29" stroke="none" /><path d="M 116.0416608686014 113.55231037782055 l 9.337863653074153 7.888810736544606 a33.224116836828124,33.224116836828124 0 0,0 -0.37283390454734056,0.4336900611956021 l -9.200687238956034 -8.048377896901735" fill="#ffa10e" stroke="none" /><path d="M 115.80600337817218 113.82643327865902 l 0.7340918078816913 0.6421529313414663 a21.975321059769268,21.975321059769268 0 0,0 -0.2515035210881925,0.28256687211310566 l -0.7229294371451603 -0.6546939731954384" fill="#ff0601" stroke="none" /><path d="M 115.07121518719521 114.62390073753431 l 4.992953250453364 4.844762138610794 a27.957104450914148,27.957104450914148 0 0,0 -0.33809375102910766,0.3424871847987207 l -4.908818874368721 -4.9299898173901795" fill="#ff5a08" stroke="none" /><path d="M 114.81725581225074 114.88116024355365 l 32.64130573466714 32.78208241466708 a67.26142850697586,67.26142850697586 0 0,0 -0.8274758694309202,0.8098592988223632 l -32.07217991286043 -33.339091816412015" fill="#38ff84" stroke="none" /><path d="M 114.55890576462653 115.13401014063108 l 7.737800753812083 8.04345855159664 a32.1611283469436,32.1611283469436 0 0,0 -0.40226552106190877,0.38036715831189 l -7.598199398359367 -8.17546034665445" fill="#ff930d" stroke="none" /><path d="M 113.75828350139079 115.86535959552629 l 3.720588578148339 4.290395360247098 a26.678932268928527,26.678932268928527 0 0,0 -0.34953787215451837,0.29788375771227227 l -3.6461852294167736 -4.353803508182318" fill="#ff4906" stroke="none" /><path d="M 112.92097659922987 116.55440617244103 l 22.79848589596838 29.209510035102426 a58.053561713274185,58.053561713274185 0 0,0 -0.7930428125794474,0.6080714116055762 l -22.29231435489544 -29.597620788535373" fill="#42ff2d" stroke="none" /><path d="M 111.45004920935366 117.60387380957326 l 6.504727012693314 10.000690075954642 a32.9300157378337,32.9300157378337 0 0,0 -0.47782738353328114,0.3049720437911214 l -6.331617827113102 -10.111176548569572" fill="#ff9d0e" stroke="none" /><line stroke="#e1ed5e" stroke-width="0.3" x1="143.8653032363475" x2="146.44561519142675" y1="172.8068346515853" y2="177.08958963109032" /><path d="M 144.38136562736335 173.6633856474863 a86.0,86.0 0 0,1 -40.68145358897372,12.25698825130547" fill="none" id="id102" stroke="none" /><text fill="#e1ed5e" style="font-size:6.75px; font-family:Arial;" text-anchor="middle"><textPath startOffset="21.466115282336833" xlink:href="#id102">June</textPath></text><path d="M 110.5260780823613 118.17145234162733 l 14.4381411413816 24.924952256619534 a49.80474205080162,49.80474205080162 0 0,0 -0.745532479849576,0.42333279926110634 l -14.006959894610825 -25.16978822167527" fill="#97ff23" stroke="none" /><path d="M 109.57404056367764 118.69057910512821 l 3.1072011137264437 6.065922514677369 a27.81543210040366,27.81543210040366 0 0,0 -0.42802134235052136,0.21461878663186246 l -3.002325863693162 -6.118509142218533" fill="#ff5808" stroke="none" /><path d="M 109.2508944713604 118.85261126421891 l 16.208307383755393 33.03128354808417 a57.79368045031966,57.79368045031966 0 0,0 -0.8968680156381802,0.4305511500858806 l -15.63732670011698 -33.305388974669604" fill="#44ff2d" stroke="none" /><path d="M 107.59598834532513 119.57807347666477 l 2.4752948414338585 6.379881337209594 a27.843242683765084,27.843242683765084 0 0,0 -0.4483156905704563,0.16951463332500538 l -2.3651089301031276 -6.4215442206412305" fill="#ff5908" stroke="none" /><path d="M 107.2578585660854 119.70592522655815 l 4.9616879182176845 13.471556413457414 a35.35622440611573,35.35622440611573 0 0,0 -0.5729062654946073,0.2054238037777693 l -4.729062092093343 -13.554967758275142" fill="#ffbc11" stroke="none" /><path d="M 105.88484417918355 120.15858648285463 l 8.809844397480871 30.178200948006992 a52.4378302490187,52.4378302490187 0 0,0 -0.8686422264692908,0.2454869698329017 l -8.289071002906974 -30.325376711178414" fill="#7bff26" stroke="none" /><path d="M 105.53697534728816 120.25689768951611 l 1.515956750820167 5.546093106254397 a26.74954551365582,26.74954551365582 0 0,0 -0.4452010384510258,0.11758164062418751 l -1.4202652695576439 -5.571366096182168" fill="#ff4a06" stroke="none" /><path d="M 105.18746579009965 120.34920634021253 l 6.551161650153772 25.698663968346924 a47.520540128822,47.520540128822 0 0,0 -0.7943775961643517,0.1952386860263051 l -6.107830769246209 -25.80762391268726" fill="#b0ff20" stroke="none" /><path d="M 104.48393922423573 120.51570834832081 l 0.6343458031659045 2.9023706252288064 a23.970883680689173,23.970883680689173 0 0,0 -0.4038620630148099,0.08463322198204083 l -0.5842922787217166 -2.9128598279373885" fill="#ff2303" stroke="none" /><path d="M 104.13013068566511 120.58985236759428 l 1.2450491756170474 6.2069170850514395 a27.330558202118368,27.330558202118368 0 0,0 -0.4620587273135693,0.08855465479868513 l -1.1380228337317737 -6.227428938198592" fill="#ff5207" stroke="none" /><path d="M 103.41894727170886 120.7198165907248 l 0.14026068786296 0.8500206339704282 a21.86151502525219,21.86151502525219 0 0,0 -0.3718166254382678,0.05807011009834509 l -0.12560819881617502 -0.852309051415879" fill="#ff0400" stroke="none" /><path d="M 101.98527174616119 120.90594882070398 l 0.397371529901823 4.18452984232308 a25.203355104445606,25.203355104445606 0 0,0 -0.4322443596592288,0.03729586214081011 l -0.3252828525010525 -4.190749956742553" fill="#ff3404" stroke="none" /><path d="M 101.26447882468166 120.96189622390904 l 3.7934364740449884 62.885688671727095 a84.0,84.0 0 0,0 -1.4440477263460816,0.07464077295119242 l -2.7104006792854274 -62.94166925144049" fill="#4dd2ff" stroke="none" /><line stroke="#e1ed5e" stroke-width="0.3" x1="102.19456741930631" x2="102.32365962044197" y1="184.97166512339345" y2="189.96999836594603" /><path d="M 102.22038585953345 185.97133177190398 a86.0,86.0 0 0,1 -42.740103519485714,-10.115201625700543" fill="none" id="id103" stroke="none" /><text fill="#e1ed5e" style="font-size:6.75px; font-family:Arial;" text-anchor="middle"><textPath startOffset="22.20632615414155" xlink:href="#id103">July</textPath></text><path d="M 99.45781275523022 120.99299961872073 l -0.13596446051687114 5.2644209086885105 a26.266176396434172,26.266176396434172 0 0,0 -0.45187785577883477,-0.015563587022695618 l 0.2265626679703489 -5.261300523239721" fill="#ff4306" stroke="none" /><path d="M 98.73552117531835 120.96189622390904 l -0.1696077332430159 2.8116719976767075 a23.816782953245628,23.816782953245628 0 0,0 -0.4090104214945688,-0.02820775334969227 l 0.21798091551651474 -2.8083358998107304" fill="#ff2003" stroke="none" /><path d="M 98.01472825383883 120.90594882070398 l -0.2839768061342918 2.990424150643453 a24.003877398825367,24.003877398825367 0 0,0 -0.4110005651282534,-0.04260188905546251 l 0.3354099678681386 -2.98509289313223" fill="#ff2303" stroke="none" /><path d="M 97.65516085044442 120.86867818915974 l -0.5387792533690993 4.795045688181422 a25.82521981215449,25.82521981215449 0 0,0 -0.4413315802024856,-0.053439108213753604 l 0.6212382566229742 -4.78506105124232" fill="#ff3d05" stroke="none" /><path d="M 96.93821686468263 120.77559828337769 l -0.5733464161127225 3.8904175416517726 a24.932438780357696,24.932438780357696 0 0,0 -0.42404633167237965,-0.06622731605395306 l 0.6402286113936193 -3.879971918250714" fill="#ff3004" stroke="none" /><path d="M 94.11515582081647 120.15858648285463 l -1.5042626226774531 5.152865096995022 a26.3679441824421,26.3679441824421 0 0,0 -0.4346002549574258,-0.13094149173841926 l 1.5927378520751247 -5.126208236150877" fill="#ff4406" stroke="none" /><path d="M 91.7346041902142 119.30500536409082 l -1.474745315916176 3.444477057072408 a24.74690484847359,24.74690484847359 0 0,0 -0.39015183626388844,-0.1710310995125191 l 1.5338178268378078 -3.418581404265437" fill="#ff2e04" stroke="none" /><path d="M 91.07499286063937 119.00905698771935 l -1.4401560489286493 3.0673374236935995 a24.388599757430356,24.388599757430356 0 0,0 -0.3784731288647106,-0.18169010162922808 l 1.492741845793602 -3.042093045564809" fill="#ff2903" stroke="none" /><line stroke="#e1ed5e" stroke-width="0.3" x1="58.666819895761336" x2="56.23545636021788" y1="174.27360380694188" y2="178.64263932499728" /><path d="M 58.180547188652646 175.14741091055294 a86.0,86.0 0 0,1 -31.652253787137756,-30.449443065178592" fill="none" id="id104" stroke="none" /><text fill="#e1ed5e" style="font-size:6.75px; font-family:Arial;" text-anchor="middle"><textPath startOffset="22.20632615414155" xlink:href="#id104">August</textPath></text><path d="M 89.7882731507175 118.34994917583269 l -1.7457817256686727 3.1370801834920328 a24.590128954694677,24.590128954694677 0 0,0 -0.3680922551654665,-0.2090123891007013 l 1.7995227477553466 -3.1065646285966984" fill="#ff2b04" stroke="none" /><path d="M 89.4739219176387 118.17145234162733 l -1.681886249768826 2.9034855710339342 a24.3554388413982,24.3554388413982 0 0,0 -0.36096167060220935,-0.21326251745564612 l 1.7316157913994175 -2.8741044812845384" fill="#ff2803" stroke="none" /><path d="M 88.8546689885994 117.79835938074946 l -2.571596734946662 4.106670571212654 a25.845395024933715,25.845395024933715 0 0,0 -0.37502677130396245,-0.2393598292237449 l 2.641905308297548 -4.061796313165105" fill="#ff3d05" stroke="none" /><path d="M 87.36589467227662 116.77436683061367 l -2.10062676566695 2.7890129951807596 a24.491593661341987,24.491593661341987 0 0,0 -0.3345683149928589,-0.2565327172116893 l 2.1483238091532955 -2.7524409361417037" fill="#ff2a04" stroke="none" /><path d="M 86.51685102203217 116.09983520530335 l -1.797400134191769 2.146223111957269 a23.79945010469773,23.79945010469773 0 0,0 -0.31181192201353003,-0.26573288455511623 l 1.8340775327823555 -2.114965837179201" fill="#ff2003" stroke="none" /><path d="M 84.19399662182784 113.82643327865904 l -2.095643345037342 1.8331814939403985 a23.784290828797317,23.784290828797317 0 0,0 -0.2669022042072913,-0.31046756173217765 l 2.126888058815412 -1.7968368330466906" fill="#ff2003" stroke="none" /><path d="M 82.6465618267979 111.8261652097733 l -4.347259651652645 2.962606622220681 a26.26077033113145,26.26077033113145 0 0,0 -0.2513492040990213,-0.3757329566201897 l 4.397611961162396 -2.8873367513946704" fill="#ff4306" stroke="none" /><path d="M 82.05923443525364 110.91462005526583 l -2.6756475492528415 1.6277831788451216 a24.13189525449908,24.13189525449908 0 0,0 -0.2128423098466816,-0.35673595396982793 l 2.703270734797755 -1.5814851309891826" fill="#ff2503" stroke="none" /><line stroke="#e1ed5e" stroke-width="0.3" x1="26.63291911575756" x2="22.317208475507996" y1="142.92168965132927" y2="145.44649492493687" /><path d="M 25.769776987707644 143.4266507060508 a86.0,86.0 0 0,1 -11.730757126820373,-40.83630448921669" fill="none" id="id105" stroke="none" /><text fill="#e1ed5e" style="font-size:6.75px; font-family:Arial;" text-anchor="middle"><textPath startOffset="21.46611528233685" xlink:href="#id105">September</textPath></text><path d="M 80.32549172779594 107.34259656027581 l -4.712443626640963 1.7587007453879975 a26.029925769442062,26.029925769442062 0 0,0 -0.15305068192195292,-0.42112974399691344 l 4.74201856956814 -1.677323204384967" fill="#ff4006" stroke="none" /><path d="M 79.50377843672027 104.57218783832718 l -2.9355149373643603 0.654839022617269 a24.00766721780047,24.00766721780047 0 0,0 -0.08650301038183826,-0.4041132661689553 l 2.9463519864706393 -0.6042119370321499" fill="#ff2303" stroke="none" /><path d="M 79.35854240842038 103.8639653848113 l -1.514368280334148 0.2834812701141016 a22.54067287864352,22.54067287864352 0 0,0 -0.06810885172469008,-0.3819906106364583 l 1.519023574398027 -0.2573719087444296" fill="#ff0e01" stroke="none" /><path d="M 79.29508885075956 103.50808413554451 l -8.830712000694888 1.4962093028028627 a29.95656835607313,29.95656835607313 0 0,0 -0.08176466397743734,-0.5091486406379772 l 8.855158419033616 -1.343981432471672" fill="#ff750a" stroke="none" /><path d="M 79.18660465613746 102.79330883721812 l -1.6651312838960206 0.22347271329791313 a22.680060191242546,22.680060191242546 0 0,0 -0.048598498990312176,-0.3873778534424582 l 1.668731292133181 -0.19477710556804634" fill="#ff1001" stroke="none" /><line stroke="#e1ed5e" stroke-width="0.3" x1="15.007084014347285" x2="10.007500721073583" y1="101.09737516637583" y2="101.16192664675087" /><path d="M 14.007167355692545 101.11028546245083 a86.0,86.0 0 0,1 10.666146001902534,-42.60595125391555" fill="none" id="id106" stroke="none" /><text fill="#e1ed5e" style="font-size:6.75px; font-family:Arial;" text-anchor="middle"><textPath startOffset="22.20632615414155" xlink:href="#id106">October</textPath></text><path d="M 79.00019446554 99.90962569577889 l -5.111192348083 -0.021996415702055842 a26.111239679510827,26.111239679510827 0 0,0 0.005802903320566681,-0.4494412572017079 l 5.110056437644717 0.10997393096423573" fill="#ff4106" stroke="none" /><path d="M 79.05617556472873 98.46500227214037 l -7.214299563169565 -0.5287445696362186 a28.233649770832727,28.233649770832727 0 0,0 0.03969586110206544,-0.48439005137432517 l 7.204129218248002 0.6528485382183222" fill="#ff5e08" stroke="none" /><path d="M 79.08570108090925 98.10471618934814 l -5.585486957842519 -0.5061648514616442 a26.608374756833218,26.608374756833218 0 0,0 0.04526322034469105,-0.4557944518199744 l 5.575946611815598 0.6022348339860489" fill="#ff4806" stroke="none" /><path d="M 79.16333360222342 97.38593545837743 l -3.048697727902198 -0.38247445519811213 a24.07259573406511,24.07259573406511 0 0,0 0.05511936742653197,-0.4107033100194312 l 3.041662361417832 0.43489610728220274" fill="#ff2403" stroke="none" /><path d="M 79.32604984820605 96.31383870115002 l -6.4446053119286715 -1.1490718760939418 a27.546243487907343,27.546243487907343 0 0,0 0.08724849736194502,-0.46608496165749164 l 6.423871090656865 1.259834915214006" fill="#ff5507" stroke="none" /><path d="M 79.3925641242962 95.95851677861259 l -5.508620680279175 -1.0803380967247893 a26.61355789160799,26.61355789160799 0 0,0 0.09203311010931546,-0.4487861297868086 l 5.489208274254865 1.1749998826750006" fill="#ff4806" stroke="none" /><path d="M 79.54389044137918 95.25157060432595 l -4.020168230078717 -0.9331923523657409 a25.127057131255654,25.127057131255654 0 0,0 0.1014262033668127,-0.42047709337434797 l 4.003509226451089 1.0022546773994856" fill="#ff3304" stroke="none" /><path d="M 79.62865764111835 94.90015583598534 l -3.0777135991975957 -0.7704872590555227 a24.17269154111343,24.17269154111343 0 0,0 0.1045223362143187,-0.40276719877811107 l 3.0639949311129695 0.8233508833824976" fill="#ff2603" stroke="none" /><path d="M 79.71946130924805 94.55025226153421 l -4.272541704756598 -1.1481092710626961 a25.424112059745383,25.424112059745383 0 0,0 0.11720906638031829,-0.4216633738580697 l 4.2521458678099195 1.2214839483397084" fill="#ff3705" stroke="none" /><path d="M 79.91906864156998 93.8553929516997 l -7.365479205951128 -2.2537787035459007 a28.702584136369786,28.702584136369786 0 0,0 0.14863088697675994,-0.47120052876882473 l 7.325592835206164 2.38022939874114" fill="#ff6409" stroke="none" /><path d="M 80.2630227832202 92.82701384747504 l -4.5736166117296735 -1.662184044829516 a25.866294761928774,25.866294761928774 0 0,0 0.15568480811296107,-0.4171578841259245 l 4.544327215115085 1.740665065984782" fill="#ff3d05" stroke="none" /><path d="M 80.52162464483688 92.15188598940014 l -6.954594549497637 -2.8021048946202876 a28.497878179082214,28.497878179082214 0 0,0 0.18724234087963532,-0.4534221803692882 l 6.905330521731802 2.921401645442887" fill="#ff6209" stroke="none" /><path d="M 80.95270993114464 91.15688171328213 l -3.601554875505874 -1.6721001079455846 a24.970782831164627,24.970782831164627 0 0,0 0.18435787006329263,-0.38830469147190444 l 3.57223881160083 1.733847215058021" fill="#ff3104" stroke="none" /><path d="M 81.26839172434947 90.50648371742162 l -2.6478351895466115 -1.3419705406834204 a23.96848717751374,23.96848717751374 0 0,0 0.1896826890631213,-0.3664065804826329 l 2.6243430673233763 1.3873498434263887" fill="#ff2303" stroke="none" /><path d="M 81.6062741919709 89.86733742301443 l -4.279091019031937 -2.3572486555787058 a25.88541105470025,25.88541105470025 0 0,0 0.218352512873552,-0.38842475597392706 l 4.2378808648659545 2.430556921487417" fill="#ff3e05" stroke="none" /><line stroke="#e1ed5e" stroke-width="0.3" x1="26.266209847984243" x2="21.928928074336255" y1="57.711370442889674" y2="55.22380399835377" /><path d="M 25.398753493254645 57.213857153982495 a86.0,86.0 0 0,1 29.58750427330803,-30.492523968695096" fill="none" id="id107" stroke="none" /><text fill="#e1ed5e" style="font-size:6.75px; font-family:Arial;" text-anchor="middle"><textPath startOffset="21.46611528233685" xlink:href="#id107">November</textPath></text><path d="M 82.15384107792192 88.93136811851018 l -8.65725718722684 -5.369446351295729 a31.187200602974,31.187200602974 0 0,0 0.28688126223027854,-0.4537772621641591 l 8.5635483287506 5.517671261174104" fill="#ff860c" stroke="none" /><path d="M 82.54541684631803 88.32363383020206 l -2.975717856539485 -1.9906273902411615 a24.580152813569036,24.580152813569036 0 0,0 0.23828179728411103,-0.34964913508498063 l 2.9410115935866337 2.041554548596558" fill="#ff2b04" stroke="none" /><path d="M 82.7489923806493 88.02491185347247 l -8.171679322278056 -5.672513881430836 a30.947550285430694,30.947550285430694 0 0,0 0.3075411044073463,-0.43499508209088605 l 8.072825598066832 5.8123354638535085" fill="#ff830c" stroke="none" /><path d="M 83.6137871275137 86.86637796730984 l -8.793305260973625 -7.047873026817966 a32.26919392036603,32.26919392036603 0 0,0 0.351121879537283,-0.4304339071943407 l 8.670684889359949 7.198191103620388" fill="#ff940d" stroke="none" /><path d="M 83.84228863543731 86.58626213691792 l -4.3236572322806754 -3.5893947734968488 a26.619409817966606,26.619409817966606 0 0,0 0.295715513608012,-0.35003389463744394 l 4.261231105185539 3.663287617763409" fill="#ff4806" stroke="none" /><path d="M 84.31358615837235 86.03803664274999 l -4.173188311875244 -3.7144182782353794 a26.586806228254318,26.586806228254318 0 0,0 0.3072122669997549,-0.3392314582983406 l 4.108632404259445 3.785702523803276" fill="#ff4706" stroke="none" /><path d="M 85.05521093208273 85.24692304244772 l -6.551966805900383 -6.467918019551365 a30.20664067579797,30.20664067579797 0 0,0 0.36846952087377505,-0.366887195651915 l 6.439661484859294 6.57974106585339" fill="#ff790b" stroke="none" /><path d="M 85.57189188830299 84.74124197986013 l -3.8626690460313005 -4.085049254482175 a26.622084984301974,26.622084984301974 0 0,0 0.33568182003745256,-0.3119796677984622 l 3.791779342198992 4.150933508355284" fill="#ff4806" stroke="none" /><path d="M 86.10567301691215 84.25364557470407 l -1.860952390679099 -2.109005779689993 a23.812658738478603,23.812658738478603 0 0,0 0.30968498915174314,-0.26855577090583244 l 1.8243736028805824 2.140726544015506" fill="#ff2003" stroke="none" /><path d="M 87.22198572758235 83.33499621200491 l -3.6218034662889362 -4.723532717862508 a26.952245096191866,26.952245096191866 0 0,0 0.3705983064939036,-0.27912696114256763 l 3.539959006036643 4.78517626851093" fill="#ff4c07" stroke="none" /><path d="M 88.09926311788651 82.69761687909137 l -3.2275781058868502 -4.692549166820435 a26.695373395364637,26.695373395364637 0 0,0 0.38084802620551444,-0.25715028736292356 l 3.146325385274796 4.747411366482025" fill="#ff4906" stroke="none" /><path d="M 88.70189139769569 82.29822771554957 l -3.013556583127854 -4.721612641425282 a26.601352445202878,26.601352445202878 0 0,0 0.3881021385812373,-0.24302952357501328 l 2.9318352921743744 4.772786506323225" fill="#ff4806" stroke="none" /><path d="M 89.00827224532344 82.1063720568725 l -3.017423972696938 -4.912117832534645 a26.764871987452196,26.764871987452196 0 0,0 0.39463903143542,-0.23776560079358244 l 2.932422875043869 4.963330042786847" fill="#ff4a06" stroke="none" /><line stroke="#e1ed5e" stroke-width="0.3" x1="56.762969772571076" x2="54.21961505331055" y1="26.818313649435495" y2="22.513508569990535" /><path d="M 56.25429882871897 25.957352633546506 a86.0,86.0 0 0,1 42.265352541879196,-11.944610805530505" fill="none" id="id108" stroke="none" /><text fill="#e1ed5e" style="font-size:6.75px; font-family:Arial;" text-anchor="middle"><textPath startOffset="22.20632615414155" xlink:href="#id108">December</textPath></text><path d="M 89.94658935756843 81.56283822128135 l -2.903677097882917 -5.3251146611752445 a27.065326606493116,27.065326606493116 0 0,0 0.4109482598004563,-0.21951432834590434 l 2.8115837915541553 5.374307716022899" fill="#ff4e07" stroke="none" /><path d="M 90.26544431104013 81.39251694778311 l -2.6564195223605176 -5.0777131305499665 a26.7305964187803,26.7305964187803 0 0,0 0.4095375742019006,-0.20978105203189398 l 2.5686214605698536 5.122686707894365" fill="#ff4906" stroke="none" /><path d="M 91.56875222667455 80.76684994638697 l -3.387790855667856 -7.728143168021072 a29.438087680699788,29.438087680699788 0 0,0 0.46584546075664635,-0.1994507148134693 l 3.2542616371209014 7.785313410797327" fill="#ff6e0a" stroke="none" /><path d="M 92.23578459929587 80.48803036053334 l -1.9504552107862565 -4.901618630074273 a26.275428013343983,26.275428013343983 0 0,0 0.42167912320647766,-0.1636049486258723 l 1.8657929225801024 4.934466282590696" fill="#ff4306" stroke="none" /><path d="M 92.91201910852362 80.23233633223022 l -0.9399500242444698 -2.6214257950555093 a23.784848155117185,23.784848155117185 0 0,0 0.3865807955220792,-0.13487044884475685 l 0.8946872246591053 2.637217097072476" fill="#ff2003" stroke="none" /><path d="M 93.59665428221793 80.00007090966166 l -1.6136711950721656 -5.04006981646203 a26.29209207030804,26.29209207030804 0 0,0 0.43221022689079025,-0.1342898213865461 l 1.5266755954706468 5.067099772731102" fill="#ff4306" stroke="none" /><path d="M 93.94186890950719 79.89281104454417 l -2.540643507681188 -8.43250142895837 a29.806926239188535,29.806926239188535 0 0,0 0.4925378564092788,-0.14378530656318486 l 2.395115433548488 8.474985064440252" fill="#ff730a" stroke="none" /><path d="M 94.98787191387505 79.60689891045804 l -1.3090893910756154 -5.326358749960012 a26.484871244350437,26.484871244350437 0 0,0 0.4436547789337905,-0.1049987522626129 l 1.2172109251792909 5.3481034143634965" fill="#ff4606" stroke="none" /><path d="M 95.33964822691252 79.52364482259891 l -0.49219530521582144 -2.1625762124758183 a23.21788008991531,23.21788008991531 0 0,0 0.39045539445165217,-0.08533842598905485 l 0.4548971866106483 2.1707281365607414" fill="#ff1802" stroke="none" /><path d="M 96.04723909329186 79.375362276772 l -1.7485348632297666 -9.123470645377626 a30.289515099562365,30.289515099562365 0 0,0 0.5129094928015219,-0.093730931374508 l 1.5912302493253514 9.15221705810287" fill="#ff7a0b" stroke="none" /><path d="M 97.47563105711357 79.15227682838746 l -1.4127928223691932 -11.667673912164451 a32.7528974333796,32.7528974333796 0 0,0 0.5602824435524311,-0.06295426076064997 l 1.2117436753070443 11.6902641263957" fill="#ff9a0e" stroke="none" /><path d="M 99.27714615592234 79.0124445844662 l -0.3289607609549418 -9.551145444743943 a30.55680880257113,30.55680880257113 0 0,0 0.5258293721281843,-0.013580621334312901 l 0.16450475363187855 9.555392858220616" fill="#ff7d0b" stroke="none" /></svg>