<?xml version="1.0" encoding="utf-8" ?>
<svg baseProfile="full" height="200mm" version="1.1" viewBox="0,0,200,200" width="200mm" xmlns="http://www.w3.org/2000/svg" xmlns:ev="http://www.w3.org/2001/xml-events" xmlns:xlink="http://www.w3.org/1999/xlink"><defs /><rect fill="#1a1a1a" height="200" width="200" x="0" y="0" /><text alignment-baseline="middle" fill="#e1ed5e" style="dominant-baseline: central; font-size:9.0px; font-family:Arial;" text-anchor="middle" x="100.0" y="100.0">2020</text><line stroke="#e1ed5e" stroke-width="0.3" x1="100.0" x2="100.0" y1="15.0" y2="10.0" /><path d="M 100.0 14.0 a86.0,86.0 0 0,1 42.35913384403234,11.155469271406648" fill="none" id="id13" stroke="none" /><text fill="#e1ed5e" style="font-size:6.75px; font-family:Arial;" text-anchor="middle"><textPath startOffset="22.145653131862478" xlink:href="#id13">January</textPath></text><path d="M 102.87502721639298 79.19773525538626 l 0.8122014255476897 -5.87668491757551 a26.93254555617748,26.93254555617748 0 0,0 0.45743632580789984,0.06722738720875131 l -0.9129628569632715 5.861876457067876" fill="#ff3204" stroke="none" /><path d="M 103.23170211078529 79.25015418208739 l 2.4622714643180332 -15.809549115289563 a37.00014449912087,37.00014449912087 0 0,0 0.6267516089821188,0.103131738751049 l -2.733300576353222 15.764951378042847" fill="#ffbd11" stroke="none" /><path d="M 103.58742460773223 79.30868818359171 l 1.0102453096265764 -5.826826483682217 a26.913755359884526,26.913755359884526 0 0,0 0.4545416293264375,0.08283262644161067 l -1.1101216725040681 5.80862568330924" fill="#ff3104" stroke="none" /><path d="M 103.94208987418118 79.37332000966035 l 0.9890146583298036 -5.174942610196413 a26.268603326614908,26.268603326614908 0 0,0 0.4421925521976936,0.08845089476423645 l -1.0777036960584543 5.1572023187693175" fill="#ff2803" stroke="none" /><path d="M 104.29559338865022 79.4440306129975 l 3.5039482010000036 -16.76766058531236 a38.129859733796096,38.129859733796096 0 0,0 0.639560459394463,0.13938922539663604 l -3.7912710770136004 16.705039901782005" fill="#ffcc13" stroke="none" /><path d="M 104.64783097203109 79.52079915486377 l 3.407647900991309 -15.014725405001501 a36.39655945998092,36.39655945998092 0 0,0 0.6081134490000819,0.14351311815694287 l -3.664893503731276 14.95401614319833" fill="#ffb510" stroke="none" /><path d="M 104.9986988182912 79.60360301121754 l 2.058173949447982 -8.398052067330182 a29.646580742222618,29.646580742222618 0 0,0 0.49325516120469237,0.12538353311892952 l -2.202034403878069 8.361483302375984" fill="#ff5908" stroke="none" /><path d="M 105.3480935250658 79.69241777938227 l 2.697087295405726 -10.241279766505459 a31.59047171446452,31.59047171446452 0 0,0 0.5232263626446316,0.14260767182308068 l -2.87249505898505 10.193471600538237" fill="#ff740a" stroke="none" /><path d="M 105.69591212413111 79.78721728523813 l 1.4523005178898232 -5.15370219288998 a26.354420891867022,26.354420891867022 0 0,0 0.4343961391048017,0.12644638513624354 l -1.5405566693762294 5.128012113451221" fill="#ff2904" stroke="none" /><path d="M 106.04205211174951 79.88797359093562 l 1.5982994795569434 -5.320219148711605 a26.555114131741096,26.555114131741096 0 0,0 0.43545249030609495,0.13490429460752748 l -1.6893926027346686 5.291998266297431" fill="#ff2c04" stroke="none" /><path d="M 106.38641147887787 79.99465700312896 l 2.3465203267515915 -7.350441502407482 a28.71590227544211,28.71590227544211 0 0,0 0.4683115998699228,0.15394332472756503 l -2.4723546642692567 7.309077256277895" fill="#ff4b07" stroke="none" /><path d="M 106.72888874123014 80.10723608172694 l 6.047573535813542 -17.878576575237233 a39.87370249918372,39.87370249918372 0 0,0 0.6465126451507707,0.2248906582522396 l -6.353591953009331 17.772127484416405" fill="#ffe215" stroke="none" /><path d="M 107.06938296918511 80.22567764915836 l 2.0284553693598144 -5.673950686058268 a27.025640843371413,27.025640843371413 0 0,0 0.43551285928077416,0.15992635440957023 l -2.125557380294713 5.638293482639976" fill="#ff3304" stroke="none" /><path d="M 107.40779381753099 80.34994680014964 l 5.790904649770717 -15.361062584377118 a37.41635831674878,37.41635831674878 0 0,0 0.5990675001224756,0.23173217848302805 l -6.053744412386719 15.259390517756053" fill="#ffc312" stroke="none" /><path d="M 107.74402155503746 80.48000691201159 l 1.9899380429420024 -5.015943791954636 a26.39625291649642,26.39625291649642 0 0,0 0.41975766203584874,0.17071178688648572 l -2.075750166168291 4.981044748488857" fill="#ff2a04" stroke="none" /><path d="M 108.73861861582097 80.90454125486305 l 13.891390239218731 -30.3551946694814 a54.38275851694065,54.38275851694065 0 0,0 0.8455516393610311,0.3957608616261205 l -14.410430592451268 30.112257576284744" fill="#71ff27" stroke="none" /><path d="M 109.06512990194946 81.05736502329252 l 3.8128982551815063 -7.967490883467192 a29.832842355804782,29.832842355804782 0 0,0 0.4600504872527556,0.22503374673922943 l -3.949108991696329 7.900863386630741" fill="#ff5b08" stroke="none" /><path d="M 109.3889696526874 81.21577127319529 l 5.411474622503691 -10.826574248145882 a33.10366752437529,33.10366752437529 0 0,0 0.5061279287391023,0.2584325267184558 l -5.596529772956372 10.732083769754592" fill="#ff890c" stroke="none" /><path d="M 109.71004243097381 81.37971332152246 l 2.7736172483635757 -5.318776788879627 a26.998528083650573,26.998528083650573 0 0,0 0.40910636159610847,0.21782609454247095 l -2.864512425746244 5.270380226614583" fill="#ff3304" stroke="none" /><path d="M 110.02825361518725 81.54914285379988 l 6.752598995107213 -12.424021589921788 a35.14050584864508,35.14050584864508 0 0,0 0.5275356523771386,0.29261513371224024 l -6.9648788356404525 12.3062735407764" fill="#ffa40f" stroke="none" /><path d="M 110.34350942703115 81.72400993836675 l 7.7882743192691155 -13.761134464116848 a36.81221169260301,36.81221169260301 0 0,0 0.5472880840546765,0.3159769226532421 l -8.023354871184189 13.625410644187435" fill="#ffbb11" stroke="none" /><line stroke="#e1ed5e" stroke-width="0.3" x1="143.13028292997686" x2="145.6673583964461" y1="26.7553504044142" y2="22.446841604673864" /><path d="M 143.63769802327073 25.89364864446614 a86.0,86.0 0 0,1 29.32050498858742,28.57503671076992" fill="none" id="id14" stroke="none" /><text fill="#e1ed5e" style="font-size:6.75px; font-family:Arial;" text-anchor="middle"><textPath startOffset="20.669276256404974" xlink:href="#id14">February</textPath></text><path d="M 110.96478420261332 82.08984904055464 l 20.36825721574852 -33.27001742796935 a60.009741881538716,60.009741881538716 0 0,0 0.873958651878327,0.5454148364745033 l -20.936379996416562 32.9154667946533" fill="#36ff2e" stroke="none" /><path d="M 111.8722381534696 82.67804972795209 l 5.764124463748805 -8.410029855556107 a31.195770348773678,31.195770348773678 0 0,0 0.4391248976054067,0.3065432826867695 l -5.907644452527973 8.309841757064211" fill="#ff6e0a" stroke="none" /><path d="M 112.16784306229584 82.88440491214696 l 10.962352986382053 -15.419922328422114 a39.9194922662478,39.9194922662478 0 0,0 0.5551071332368517,0.40185475582206165 l -11.225441129992872 15.229466801226978" fill="#ffe315" stroke="none" /><path d="M 112.7482090630111 83.31218511350987 l 21.812925188596257 -28.553819276177887 a56.93221814110458,56.93221814110458 0 0,0 0.7715401482293497,0.5999542858820084 l -22.299875281460835 28.175163938675087" fill="#56ff2b" stroke="none" /><path d="M 113.31354834802062 83.75963576809568 l 7.868038755229191 -9.597727956173213 a33.410576770420356,33.410576770420356 0 0,0 0.44042405526222933,0.3674174111240799 l -8.031637144653313 9.461248361137264" fill="#ff8d0d" stroke="none" /><path d="M 114.65682725009322 84.96080404539774 l 3.3792293042328296 -3.4673869599963094 a25.84169009963859,25.84169009963859 0 0,0 0.3150324506192873,0.3123398817506838 l -3.4382536749820796 3.408867068016964" fill="#ff2203" stroke="none" /><path d="M 115.41159269507618 85.73525988315684 l 11.056212674770128 -10.233465392096106 a36.06531289555502,36.06531289555502 0 0,0 0.41664418230089195,0.4579649416666603 l -11.230254557912897 10.042162874871773" fill="#ffb110" stroke="none" /><path d="M 115.6541949942343 86.00192230759917 l 20.477149098817435 -18.3107929925299 a48.4699613256095,48.4699613256095 0 0,0 0.549300691707147,0.6250033534255427 l -20.788460854483173 17.956577361293064" fill="#b3ff20" stroke="none" /><path d="M 116.1254893667686 86.54754324733833 l 14.505989589864976 -12.101412439263147 a39.89094801767301,39.89094801767301 0 0,0 0.43415252633455864,0.5295954899148221 l -14.711588935438163 11.85061466764983" fill="#ffe315" stroke="none" /><path d="M 116.35404254752997 86.82634096563983 l 5.6388930946177185 -4.542293120725768 a28.240824685567247,28.240824685567247 0 0,0 0.30087716707275824,0.38014847171485183 l -5.716036692332036 4.444824705096238" fill="#ff4506" stroke="none" /><path d="M 116.57777611688842 87.10902102172516 l 37.901820643975654 -29.472684979868138 a69.01236474128976,69.01236474128976 0 0,0 0.7192009315111726,0.9414571060081756 l -38.402173552841134 28.81770696061908" fill="#3aff92" stroke="none" /><path d="M 117.01052211995028 87.68569379921539 l 24.97149153283864 -18.077434123261 a51.828055628850045,51.828055628850045 0 0,0 0.5155284901626696,0.7251553828153725 l -25.27813512153127 17.646101513736124" fill="#8dff24" stroke="none" /><path d="M 117.21940702142032 87.97951657250589 l 14.477870554476867 -10.106678055115715 a38.656547711881444,38.656547711881444 0 0,0 0.3751714839509287,0.5473864072200442 l -14.649231775243122 9.856656912825622" fill="#ffd313" stroke="none" /><path d="M 117.62189284568427 88.57770195909679 l 15.084882003867548 -9.777838264533031 a38.97664557691377,38.97664557691377 0 0,0 0.3591091123286106,0.5645791710187191 l -15.25050880782205 9.517445418835637" fill="#ffd714" stroke="none" /><path d="M 117.81537515405839 88.88188828441811 l 36.17544868348749 -22.57615550311278 a63.642067078793986,63.642067078793986 0 0,0 0.5704512301193914,0.9317892133257468 l -36.55766787806228 21.95182917366248" fill="#33ff53" stroke="none" /><line stroke="#e1ed5e" stroke-width="0.3" x1="172.87174338648825" x2="177.1583165268699" y1="56.24261187166439" y2="53.66864786411523" /><path d="M 173.72905801456457 55.72781907015455 a86.0,86.0 0 0,1 12.242430191666344,42.057860355516425" fill="none" id="id15" stroke="none" /><text fill="#e1ed5e" style="font-size:6.75px; font-family:Arial;" text-anchor="middle"><textPath startOffset="22.145653131862474" xlink:href="#id15">March</textPath></text><path d="M 119.16976305983485 91.42560881287824 l 17.587346118787952 -7.866596216922396 a40.266501486833135,40.266501486833135 0 0,0 0.27681516687676155,0.6334072742156258 l -17.719795167681685 7.563526872930921" fill="#ffe715" stroke="none" /><path d="M 119.31412917781788 91.75594674310238 l 23.7733551505357 -10.147431662683967 a46.84845806740401,46.84845806740401 0 0,0 0.30936525510786816,0.7423639917921719 l -23.94404625018005 9.73783516145052" fill="#c6ff1e" stroke="none" /><path d="M 119.94978838288452 93.4421083053983 l 40.62150858569459 -13.353096717800897 a63.75993629242921,63.75993629242921 0 0,0 0.33287327321164056,1.0427207872706936 l -40.84474657468349 12.653806896838816" fill="#33ff55" stroke="none" /><path d="M 120.05942366710727 93.78553927170692 l 7.344051346474744 -2.27520588012072 a28.688410237272294,28.688410237272294 0 0,0 0.1416984515740711,0.4716680603663359 l -7.382026118052442 2.1488002161636603" fill="#ff4b07" stroke="none" /><path d="M 120.592083275326 95.88100663000786 l 13.673055253963724 -2.7349939870385027 a34.943910215111174,34.943910215111174 0 0,0 0.11260876030551922,0.5892166178512869 l -13.717990306551403 2.499874804153901" fill="#ffa20f" stroke="none" /><path d="M 120.93736805541906 98.37931529534042 l 24.820896108178765 -1.9212943370911482 a45.89514522035857,45.89514522035857 0 0,0 0.054060194976462916,0.7860233703758924 l -24.850220264320296 1.4949275425609216" fill="#d1ff1c" stroke="none" /><line stroke="#e1ed5e" stroke-width="0.3" x1="184.99686870605535" x2="189.99668451229388" y1="99.2704041080226" y2="99.22748670261217" /><path d="M 185.99683186730306 99.26182062694052 a86.0,86.0 0 0,1 -10.086455211305974,41.156179273409016" fill="none" id="id16" stroke="none" /><text fill="#e1ed5e" style="font-size:6.75px; font-family:Arial;" text-anchor="middle"><textPath startOffset="21.40746469413373" xlink:href="#id16">April</textPath></text><path d="M 120.51834098615036 104.47187691870673 l 6.7207053140880175 1.4647464427940855 a27.878470910056162,27.878470910056162 0 0,0 -0.10592377023824315,0.466719675916935 l -6.6945706822921105 -1.5799004526500373" fill="#ff3f05" stroke="none" /><path d="M 119.83427380445688 106.89939002012753 l 9.386607404278744 3.2651493110568803 a30.938289520111383,30.938289520111383 0 0,0 -0.1787935978710462,0.50011751435449 l -9.329173636363754 -3.4258017817922917" fill="#ff6b09" stroke="none" /><path d="M 119.4528033332814 107.91128576633889 l 7.48915789364477 3.045775317354323 a29.084814978695963,29.084814978695963 0 0,0 -0.19206248352301133,0.4608800425631138 l -7.435769565585273 -3.173887869358715" fill="#ff5107" stroke="none" /><path d="M 119.16976305983485 108.57439118712176 l 26.608313456017083 11.901560164792764 a50.14874747446006,50.14874747446006 0 0,0 -0.3582424375823705,0.7828243785838715 l -26.400086553579655 -12.356573525591324" fill="#a0ff22" stroke="none" /><path d="M 118.70294669586154 109.54985784667822 l 15.178425794938754 7.750212361461358 a38.042605471588274,38.042605471588274 0 0,0 -0.3019712079658672,0.5790696076707803 l -15.043146517997936 -8.009628212236642" fill="#ffcb12" stroke="none" /><line stroke="#e1ed5e" stroke-width="0.3" x1="174.33088141563837" x2="178.70328620479359" y1="141.23008692659167" y2="143.65538615756765" /><path d="M 175.20536237346943 141.71514677278685 a86.0,86.0 0 0,1 -30.301960400862466,31.63118572779886" fill="none" id="id17" stroke="none" /><text fill="#e1ed5e" style="font-size:6.75px; font-family:Arial;" text-anchor="middle"><textPath startOffset="22.145653131862474" xlink:href="#id17">May</textPath></text><path d="M 118.36410011445183 110.18625677009912 l 2.747737975210357 1.524123936267291 a24.142135858538904,24.142135858538904 0 0,0 -0.20413513455225785,0.3606872229030387 l -2.721169475636718 -1.5710679292694512" fill="#ff0901" stroke="none" /><path d="M 118.00360718960297 110.81064883170644 l 36.71143172790222 22.044159947497114 a63.821422294259,63.821422294259 0 0,0 -0.5720588680856947,0.9344151691250172 l -36.32760489536112 -22.67111223274669" fill="#33ff55" stroke="none" /><path d="M 117.21940702142032 112.02048342749411 l 9.149683003109482 6.387189336362538 a32.158534253025074,32.158534253025074 0 0,0 -0.31987772661257274,0.4499480818657732 l -9.038690177966949 -6.543314644937815" fill="#ff7c0b" stroke="none" /><path d="M 114.13192950727249 115.5334660781643 l 6.8984769019982375 7.58263455057888 a31.2511136124343,31.2511136124343 0 0,0 -0.39991748468462385,0.35760868081857605 l -6.767294390490236 -7.699938761280843" fill="#ff6f0a" stroke="none" /><path d="M 112.7482090630111 116.68781488649013 l 2.1407802082459266 2.8023500125618144 a24.526486281402875,24.526486281402875 0 0,0 -0.3367685243696958,0.2527173790174166 l -2.0923586949654642 -2.838686418843246" fill="#ff0e01" stroke="none" /><path d="M 112.45986205192187 116.90419585922612 l 1.5203872846533912 2.0626973504649393 a23.56247884965921,23.56247884965921 0 0,0 -0.3276519650839159,0.23719475492172115 l -1.4847543091955073 -2.0884928767597377" fill="#ff0000" stroke="none" /><path d="M 111.8722381534696 117.32195027204791 l 1.6898121070215444 2.465486364791078 a23.988994475071394,23.988994475071394 0 0,0 -0.3416760615387778,0.22989490272143037 l -1.6472397573857633 -2.4941309415696296" fill="#ff0601" stroke="none" /><path d="M 110.96478420261333 117.91015095944535 l 5.2621316318097255 8.59529655601634 a31.078152221332978,31.078152221332978 0 0,0 -0.4573923256350398,0.27465094959489494 l -5.113806549617252 -8.684361506147157" fill="#ff6d0a" stroke="none" /><line stroke="#e1ed5e" stroke-width="0.3" x1="143.1302829299769" x2="145.6673583964461" y1="173.24464959558577" y2="177.55315839532614" /><path d="M 143.63769802327073 174.10635135553383 a86.0,86.0 0 0,1 -40.685524379131806,11.842963189579606" fill="none" id="id18" stroke="none" /><text fill="#e1ed5e" style="font-size:6.75px; font-family:Arial;" text-anchor="middle"><textPath startOffset="21.407464694133747" xlink:href="#id18">June</textPath></text><path d="M 110.65571695917076 118.09573695890943 l 5.602248192557801 9.513842199402882 a32.04075985637566,32.04075985637566 0 0,0 -0.47635078869698,0.27502125608289507 l -5.43810493600042 -9.60861035276195" fill="#ff7a0b" stroke="none" /><path d="M 107.06938296918513 119.77432235084164 l 2.7941328199115865 7.815686788060188 a29.300128805287642,29.300128805287642 0 0,0 -0.47507260650180155,0.16525491341145054 l -2.659554441364763 -7.862500134040229" fill="#ff5407" stroke="none" /><path d="M 103.94208987418118 120.62667999033965 l 4.315806095621115 22.582121178357138 a43.99083250273914,43.99083250273914 0 0,0 -0.7429533490902294,0.13539084928245484 l -3.927518012979829 -22.652880201570955" fill="#e8ff1a" stroke="none" /><path d="M 102.15924093988457 120.88869738790638 l 0.5590049671473027 5.407865968723622 a26.43668105455658,26.43668105455658 0 0,0 -0.4518160177681644,0.04278744663398795 l -0.46608938599412314 -5.416665170862794" fill="#ff2b04" stroke="none" /><path d="M 101.80034050326958 120.92268563240118 l 5.401021509808741 62.76805689720356 a84.0,84.0 0 0,0 -1.4377240208990556,0.1112889320197854 l -4.3227284941344495 -62.8515235962184" fill="#4dd2ff" stroke="none" /><path d="M 101.08105385017728 120.97215588758144 l 0.39645884304002327 7.691195640145071 a28.701407013605447,28.701407013605447 0 0,0 -0.4922622590862553,0.02113985947930089 l -0.2643708233529385 -7.696868068050202" fill="#ff4b07" stroke="none" /><line stroke="#e1ed5e" stroke-width="0.3" x1="101.45913802915013" x2="101.54496967792366" y1="184.9874750549273" y2="189.98673829345242" /><path d="M 101.47630435890484 185.9873277026323 a86.0,86.0 0 0,1 -42.54439059252881,-10.42667462771756" fill="none" id="id19" stroke="none" /><text fill="#e1ed5e" style="font-size:6.75px; font-family:Arial;" text-anchor="middle"><textPath startOffset="22.145653131862474" xlink:href="#id19">July</textPath></text><path d="M 100.36049292484886 120.99690560180557 l 0.08058394549388184 4.693610830962907 a25.694302547216537,25.694302547216537 0 0,0 -0.4410768703427335,0.0037861144480652946 l -5.748862588678e-16 -4.694302547216537" fill="#ff2003" stroke="none" /><path d="M 100.0 121.0 l 1.3187644225243268e-15 10.768528717361626 a31.768528717361626,31.768528717361626 0 0,0 -0.5453490397841166,-0.004681165614421783 l 0.18485611493526305 -10.76694194994164" fill="#ff760a" stroke="none" /><path d="M 99.27912038922189 120.98762331915562 l -0.4669132443568405 13.593669662412724 a34.60168603036241,34.60168603036241 0 0,0 -0.5934588546625887,-0.025485676715504443 l 0.700197859620268 -13.583651417271392" fill="#ff9d0e" stroke="none" /><path d="M 98.91894614982273 120.97215588758144 l -1.0038398529868642 19.474224969972784 a40.500080323720624,40.500080323720624 0 0,0 -0.6940086973133547,-0.041749839854746174 l 1.337992902432665 -19.45412315229335" fill="#ffea16" stroke="none" /><path d="M 98.19965949673042 120.92268563240118 l -0.7400542192898273 8.600551813955702 a29.63233292638933,29.63233292638933 0 0,0 -0.5064312964381771,-0.04795957030732933 l 0.8875850791130198 -8.58658048814319" fill="#ff5908" stroke="none" /><path d="M 97.48249496171623 120.84855314841334 l -1.8943050007105355 15.68756283941431 a36.801519524282774,36.801519524282774 0 0,0 -0.6265409246690509,-0.08111826648471304 l 2.16332374727038 -15.652732976729201" fill="#ffbb11" stroke="none" /><path d="M 96.05791012581884 120.62667999033965 l -2.8670152947038496 15.001435507238215 a36.27294483647123,36.27294483647123 0 0,0 -0.6106006418968689,-0.12213722924769639 l 3.1241124221316774 -14.950008881327658" fill="#ffb410" stroke="none" /><path d="M 95.70440661134978 120.55596938700252 l -2.1098802536601147 10.096540799013244 a31.31463672607639,31.31463672607639 0 0,0 -0.525247236421085,-0.11447519050158016 l 2.282889906700336 -10.058834150377946" fill="#ff700a" stroke="none" /><path d="M 95.35216902796893 120.47920084513623 l -2.5429108124299606 11.204534238099553 a32.48947269863671,32.48947269863671 0 0,0 -0.5428338719951131,-0.1281073157308442 l 2.7348768381649613 -11.159230778722481" fill="#ff800b" stroke="none" /><path d="M 94.6519064749342 120.30758222061772 l -3.839873782591425 14.580626197222347 a36.07777473533013,36.07777473533013 0 0,0 -0.5975486221826751,-0.16286453415657945 l 4.089603805708795 -14.512561168921623" fill="#ffb110" stroke="none" /><path d="M 93.95794788825049 120.11202640906438 l -4.2039748497761655 13.993665006185903 a35.611504537278236,35.611504537278236 0 0,0 -0.5839597697593372,-0.18091222939884966 l 4.443575252407136 -13.919436188980406" fill="#ffab0f" stroke="none" /><path d="M 93.27111125876986 119.89276391827306 l -6.764145756226469 19.996995018348724 a42.110032628476446,42.110032628476446 0 0,0 -0.6827725261424799,-0.23750372710021664 l 7.10642405441397 -19.877932858679916" fill="#ffff18" stroke="none" /><path d="M 92.59220618246901 119.65005319985036 l -3.9062571674575564 10.361811227950886 a32.073661408134285,32.073661408134285 0 0,0 -0.5135264099431234,-0.19864304716974077 l 4.083555839894209 -10.293228292643105" fill="#ff7b0b" stroke="none" /><path d="M 91.59046798132341 119.24265499422711 l -9.824744455213978 22.480938004428904 a45.53402081129862,45.53402081129862 0 0,0 -0.7135540934805217,-0.31916366997217904 l 10.209211951550133 -22.30897058354687" fill="#d6ff1c" stroke="none" /><path d="M 89.97174638481275 118.45085714620012 l -5.263746980956951 9.684701576782505 a32.02272547561931,32.02272547561931 0 0,0 -0.48073096748907895,-0.2666533639907712 l 5.429222136602131 -9.592915297358585" fill="#ff7a0b" stroke="none" /><line stroke="#e1ed5e" stroke-width="0.3" x1="58.13341422392154" x2="55.670673884152215" y1="173.97424548756322" y2="178.32567169271397" /><path d="M 57.64086615596767 174.84453072859336 a86.0,86.0 0 0,1 -31.369924170532244,-30.572349798747886" fill="none" id="id20" stroke="none" /><text fill="#e1ed5e" style="font-size:6.75px; font-family:Arial;" text-anchor="middle"><textPath startOffset="22.145653131862474" xlink:href="#id20">August</textPath></text><path d="M 84.58840730492382 114.26474011684316 l -3.4193541608837545 3.1649031633204556 a25.65924832035693,25.65924832035693 0 0,0 -0.29642822081846304,-0.3258265412606694 l 3.4731800825440975 -3.105739046502112" fill="#ff1f03" stroke="none" /><line stroke="#e1ed5e" stroke-width="0.3" x1="26.387840678322732" x2="22.057713659400548" y1="142.50000000000003" y2="145.00000000000006" /><path d="M 25.521815274538298 143.00000000000003 a86.0,86.0 0 0,1 -11.493303480769221,-40.785679425670985" fill="none" id="id21" stroke="none" /><text fill="#e1ed5e" style="font-size:6.75px; font-family:Arial;" text-anchor="middle"><textPath startOffset="21.40746469413373" xlink:href="#id21">September</textPath></text><path d="M 79.83685265289637 105.86919833188381 l -9.68414113658675 2.8189123466752273 a31.086072395713295,31.086072395713295 0 0,0 -0.1447449063967511,-0.5136486094423985 l 9.731104535058074 -2.6522558133298344" fill="#ff6d0a" stroke="none" /><path d="M 79.34024301695615 103.76489593502545 l -7.791964802220239 1.4199555509688415 a28.92028971981242,28.92028971981242 0 0,0 -0.08481244383676702,-0.4891756380205873 l 7.815192063549239 -1.2859868800276615" fill="#ff4e07" stroke="none" /><path d="M 79.17382384314188 102.69636545807758 l -11.054463553173193 1.4312216250287633 a32.14672865859686,32.14672865859686 0 0,0 -0.06615783553339581,-0.5478817834828374 l 11.07740347496625 -1.2412461646225266" fill="#ff7c0b" stroke="none" /><line stroke="#e1ed5e" stroke-width="0.3" x1="15.003131293944662" x2="10.003315487706104" y1="100.72959589197737" y2="100.7725132973878" /><path d="M 14.003168132696942 100.73817937305945 a86.0,86.0 0 0,1 10.791469493833604,-42.453326145846276" fill="none" id="id22" stroke="none" /><text fill="#e1ed5e" style="font-size:6.75px; font-family:Arial;" text-anchor="middle"><textPath startOffset="22.145653131862435" xlink:href="#id22">October</textPath></text><path d="M 79.00077361379809 100.18025310272382 l -11.429876440743122 0.09811174251388666 a32.430297518642014,32.430297518642014 0 0,0 0.0,-0.5567296904754042 l 11.429876440743122 0.09811174251388245" fill="#ff800b" stroke="none" /><path d="M 79.01933749520258 99.09900007780938 l -15.990010388006947 -0.6866798468412146 a37.00474808988345,37.00474808988345 0 0,0 0.032702347957535786,-0.63441681387368 l 15.975866450592841 0.9610684540916066" fill="#ffbd11" stroke="none" /><path d="M 79.2786578344484 96.59031103205396 l -3.1103398065108245 -0.5118052315382466 a24.152167239693306,24.152167239693306 0 0,0 0.07082931559117102,-0.4085246701717181 l 3.1010956734274195 0.5651229346305574" fill="#ff0901" stroke="none" /><path d="M 80.5471966667186 92.08871423366112 l -11.984410236292335 -4.873955311013369 a33.93760136522624,33.93760136522624 0 0,0 0.22410800989430488,-0.537777640089956 l 11.898976381861551 5.078965460544589" fill="#ff940d" stroke="none" /><path d="M 81.63589988554816 89.8137432299009 l -18.677221930253097 -10.359940163033846 a42.35806590526326,42.35806590526326 0 0,0 0.3581609155714608,-0.6328360194986768 l 18.496627649660265 10.67903295263163" fill="#fcff18" stroke="none" /><line stroke="#e1ed5e" stroke-width="0.3" x1="26.387840678322718" x2="22.05771365940052" y1="57.5" y2="55.0" /><path d="M 25.521815274538284 57.0 a86.0,86.0 0 0,1 29.574782752854787,-30.346332500585742" fill="none" id="id23" stroke="none" /><text fill="#e1ed5e" style="font-size:6.75px; font-family:Arial;" text-anchor="middle"><textPath startOffset="21.40746469413373" xlink:href="#id23">November</textPath></text><path d="M 83.2033758604659 87.39550010848427 l -11.592442984712166 -8.699185332086603 a35.493466107035715,35.493466107035715 0 0,0 0.3698892797317475,-0.4841969407742445 l 11.441401727626113 8.896903186101733" fill="#ffa90f" stroke="none" /><path d="M 88.4268655584334 82.4767994020092 l -9.431473229956044 -14.280452558255105 a38.11385440384346,38.11385440384346 0 0,0 0.5490470746298319,-0.3558856803764912 l 9.184940523069187 14.440252080335503" fill="#ffcc13" stroke="none" /><path d="M 89.03521579738668 82.08984904055464 l -4.148930716174318 -6.776966520622574 a28.946124924090608,28.946124924090608 0 0,0 0.4260142399348968,-0.2558093106975892 l 4.031983719681986 6.847189831856086" fill="#ff4f07" stroke="none" /><line stroke="#e1ed5e" stroke-width="0.3" x1="56.869717070023135" x2="54.33264160355391" y1="26.7553504044142" y2="22.446841604673864" /><path d="M 56.362301976729285 25.89364864446614 a86.0,86.0 0 0,1 42.16139366436587,-11.88097634709845" fill="none" id="id24" stroke="none" /><text fill="#e1ed5e" style="font-size:6.75px; font-family:Arial;" text-anchor="middle"><textPath startOffset="22.145653131862474" xlink:href="#id24">December</textPath></text><path d="M 89.97174638481275 81.54914285379989 l -5.744987494989775 -10.57012991935416 a33.03048327498172,33.03048327498172 0 0,0 0.5005080570511474,-0.26649234915130693 l 5.562690622152065 10.667192736228044" fill="#ff880c" stroke="none" /><path d="M 95.35216902796891 79.52079915486377 l -1.4924408969023568 -6.575969965577775 a27.7432010810095,27.7432010810095 0 0,0 0.4653427668583174,-0.10141929017582219 l 1.3793357134249216 6.600620713887311" fill="#ff3e05" stroke="none" /><path d="M 95.70440661134978 79.44403061299748 l -1.0577721777478237 -5.061822788362109 a26.171163497782615,26.171163497782615 0 0,0 0.4405522987718843,-0.08812279814109444 l 0.9707233934449627 5.07923498316607" fill="#ff2703" stroke="none" /></svg>