<?xml version="1.0" encoding="utf-8" ?>
<svg baseProfile="full" height="200mm" version="1.1" viewBox="0,0,200,200" width="200mm" xmlns="http://www.w3.org/2000/svg" xmlns:ev="http://www.w3.org/2001/xml-events" xmlns:xlink="http://www.w3.org/1999/xlink"><defs /><rect fill="#1a1a1a" height="200" width="200" x="0" y="0" /><text alignment-baseline="middle" fill="#e1ed5e" style="dominant-baseline: central; font-size:9.0px; font-family:Arial;" text-anchor="middle" x="100.0" y="100.0">2021</text><line stroke="#e1ed5e" stroke-width="0.3" x1="100.0" x2="100.0" y1="15.0" y2="10.0" /><path d="M 100.0 14.0 a86.0,86.0 0 0,1 42.46469731375804,11.215312516191453" fill="none" id="id121" stroke="none" /><text fill="#e1ed5e" style="font-size:6.75px; font-family:Arial;" text-anchor="middle"><textPath startOffset="22.20632615414155" xlink:href="#id121">January</textPath></text><path d="M 100.0 79.0 l 0.0 -9.107664952340222 a30.107664952340222,30.107664952340222 0 0,0 0.5182539598451738,0.004460775451001859 l -0.15677348057264537 9.10631555349778" fill="#ff2103" stroke="none" /><path d="M 100.36148047927253 79.00311137660856 l 0.1227729421267953 -7.131366531853313 a28.132423277327,28.132423277327 0 0,0 0.48410992665951824,0.012503131142210137 l -0.24550950398118132 7.128196608568744" fill="#ff0100" stroke="none" /><path d="M 100.72285384407766 79.0124445844662 l 1.3766713592773792 -39.970689342710465 a60.994389988633685,60.994389988633685 0 0,0 1.048984910343592,0.04517149683776895 l -2.0644971020103027 39.9410701193485" fill="#3fff2d" stroke="none" /><path d="M 101.08401301168833 79.027996857942 l 0.371174331172184 -7.180973988006353 a28.190560325909587,28.190560325909587 0 0,0 0.4843916204792637,0.029219825363445768 l -0.49472800049105964 7.173520893262603" fill="#ff0200" stroke="none" /><path d="M 101.44485096284872 79.0497635885617 l 0.4922402142531338 -7.137448169386012 a28.154401917644808,28.154401917644808 0 0,0 0.48319631732166207,0.03750533389936691 l -0.6150267209371371 7.1279175732981805" fill="#ff0100" stroke="none" /><path d="M 101.80526077348638 79.07773832637324 l 0.6119183706479889 -7.091893017135441 a28.11824350938003,28.11824350938003 0 0,0 0.48185949092303354,0.04575836481536604 l -0.7339029886612666 7.080309107804897" fill="#ff0100" stroke="none" /><path d="M 102.16513564639614 79.11191278185805 l 0.839346719850896 -8.09757463449898 a29.1409592725554,29.1409592725554 0 0,0 0.4984953743985197,0.056011763618512025 l -0.978608797759141 8.081926917409866" fill="#ff1101" stroke="none" /><path d="M 102.52436894288641 79.15227682838746 l 1.33455564242198 -11.021545273217598 a32.10204931408186,32.10204931408186 0 0,0 0.5480053268482452,0.07114681928309262 l -1.5240756977780712 10.996940130770367" fill="#ff4006" stroke="none" /><path d="M 102.88285421437855 79.19881850522331 l 1.9622997752572058 -14.158937891725321 a35.29426957314397,35.29426957314397 0 0,0 0.6010631244033023,0.08858108019116052 l -2.205731880089164 14.12306232737319" fill="#ff710a" stroke="none" /><path d="M 103.2404852339499 79.25152402106235 l 6.224821194519914 -39.85685590372144 a61.34002183234113,61.34002183234113 0 0,0 1.0418187753523733,0.17190902458087082 l -6.909969176011163 39.74380061620094" fill="#3bff2e" stroke="none" /><path d="M 103.59715602781102 79.31037775812273 l 1.2335760818540793 -7.095111511108671 a28.201549646068493,28.201549646068493 0 0,0 0.4775527926952722,0.0872697204244291 l -1.3555239956522522 7.072826309333504" fill="#ff0200" stroke="none" /><path d="M 103.95276090670814 79.375362276772 l 1.713638555566878 -8.941389381063399 a30.10412001035348,30.10412001035348 0 0,0 0.5080910164334355,0.10191827802443251 l -1.8672959814674388 8.910567146961759" fill="#ff2103" stroke="none" /><path d="M 104.307194497241 79.44645832069477 l 1.4516950224273377 -6.92735704603374 a28.07783117073116,28.07783117073116 0 0,0 0.4721852556158369,0.10320140805349838 l -1.5707230021967027 6.90134213988437" fill="#ff0000" stroke="none" /><path d="M 104.66035177308747 79.52364482259891 l 1.9844479480322463 -8.719140312460347 a29.942116161559326,29.942116161559326 0 0,0 0.5015679632311036,0.11870493188584652 l -2.1342395982258737 8.68368946843363" fill="#ff1e03" stroke="none" /><path d="M 105.01212808612495 79.60689891045804 l 1.7708477617786933 -7.205138575790522 a28.41956357825319,28.41956357825319 0 0,0 0.47405335756728073,0.12084675608220852 l -1.8946100080309989 7.173588823539445" fill="#ff0600" stroke="none" /><path d="M 105.36241919743992 79.69619591428918 l 4.950517282809712 -18.74421400719296 a40.386933231299025,40.386933231299025 0 0,0 0.6706194697873822,0.183305633890125 l -5.272434641820806 18.656221832476543" fill="#ffbb11" stroke="none" /><path d="M 105.71112130821622 79.79150937346287 l 14.529491349890685 -51.411811079937586 a74.42546618800571,74.42546618800571 0 0,0 1.2298268960824903,0.35902019504045285 l -15.412308463696604 51.15409255597843" fill="#40ffc5" stroke="none" /><path d="M 106.0581310904928 79.89281104454417 l 2.065555516589879 -6.8556646347972094 a28.1600738248236,28.1600738248236 0 0,0 0.4629175899940542,0.1438307485785163 l -2.1832584792946514 6.8190937513361725" fill="#ff0100" stroke="none" /><path d="M 106.40334571778207 80.00007090966166 l 3.4495656921343794 -10.774222145083238 a32.31297336229307,32.31297336229307 0 0,0 0.5282666104618285,0.17416119585659326 l -3.6345151248386256 10.713247224967409" fill="#ff4306" stroke="none" /><path d="M 106.74666289553966 80.11325718540242 l 8.563142221711885 -25.24107246570596 a47.65406430412226,47.65406430412226 0 0,0 0.7745328441201379,0.2702193009624591 l -8.996357069895296 25.089932311571296" fill="#dfff1b" stroke="none" /><path d="M 107.08798089147638 80.2323363322302 l 2.4358328642345093 -6.793292130484095 a28.216792896611487,28.216792896611487 0 0,0 0.45579213621644926,0.16787209035658804 l -2.552407326223535 6.750356772321182" fill="#ff0200" stroke="none" /><path d="M 107.4271985657038 80.35727306442388 l 2.6644935895914403 -7.046791537742887 a28.533710710226313,28.533710710226313 0 0,0 0.4579209940178845,0.17766623144945418 l -2.785397748608992 6.999882602402887" fill="#ff0701" stroke="none" /><path d="M 107.76421540070413 80.48803036053334 l 6.630850879805483 -16.66375214665758 a38.9345704993304,38.9345704993304 0 0,0 0.6205727988939997,0.2531472263238823 l -6.91670754828787 16.54714403415012" fill="#ffa70f" stroke="none" /><path d="M 108.09893153111575 80.62456947434976 l 24.296794593347244 -58.12629157695072 a84.0,84.0 0 0,0 1.329264968838739,0.5691218881488367 l -25.2937433199763 57.69945016083909" fill="#4dd2ff" stroke="none" /><line stroke="#e1ed5e" stroke-width="0.3" x1="143.23703022742887" x2="145.7803849466894" y1="26.81831364943548" y2="22.513508569990506" /><path d="M 143.74570117128098 25.957352633546492 a86.0,86.0 0 0,1 28.547481713284135,27.462654790039103" fill="none" id="id122" stroke="none" /><text fill="#e1ed5e" style="font-size:6.75px; font-family:Arial;" text-anchor="middle"><textPath startOffset="19.985693538727396" xlink:href="#id122">February</textPath></text><line stroke="#e1ed5e" stroke-width="0.3" x1="172.23445277983987" x2="176.4835382374775" y1="55.19839476539836" y2="52.563006222186495" /><path d="M 173.08426987136738 54.67131705675599 a86.0,86.0 0 0,1 12.851231095245387,41.99856678651699" fill="none" id="id123" stroke="none" /><text fill="#e1ed5e" style="font-size:6.75px; font-family:Arial;" text-anchor="middle"><textPath startOffset="22.20632615414155" xlink:href="#id123">March</textPath></text><line stroke="#e1ed5e" stroke-width="0.3" x1="184.98032266829074" x2="189.97916517819016" y1="98.17113171792111" y2="98.06355123074" /><path d="M 185.9800911702706 98.14961562048488 a86.0,86.0 0 0,1 -9.607161424134198,41.387399972396054" fill="none" id="id124" stroke="none" /><text fill="#e1ed5e" style="font-size:6.75px; font-family:Arial;" text-anchor="middle"><textPath startOffset="21.466115282336823" xlink:href="#id124">April</textPath></text><line stroke="#e1ed5e" stroke-width="0.3" x1="174.80103733775053" x2="179.2010983576182" y1="140.37084112569926" y2="142.7455964860345" /><path d="M 175.68104954172406 140.8457921977663 a86.0,86.0 0 0,1 -30.038265399797805,32.042727171017184" fill="none" id="id125" stroke="none" /><text fill="#e1ed5e" style="font-size:6.75px; font-family:Arial;" text-anchor="middle"><textPath startOffset="22.206326154141568" xlink:href="#id125">May</textPath></text><line stroke="#e1ed5e" stroke-width="0.3" x1="143.8653032363475" x2="146.44561519142675" y1="172.8068346515853" y2="177.08958963109032" /><path d="M 144.38136562736335 173.6633856474863 a86.0,86.0 0 0,1 -40.68145358897372,12.25698825130547" fill="none" id="id126" stroke="none" /><text fill="#e1ed5e" style="font-size:6.75px; font-family:Arial;" text-anchor="middle"><textPath startOffset="21.466115282336833" xlink:href="#id126">June</textPath></text><line stroke="#e1ed5e" stroke-width="0.3" x1="102.19456741930631" x2="102.32365962044197" y1="184.97166512339345" y2="189.96999836594603" /><path d="M 102.22038585953345 185.97133177190398 a86.0,86.0 0 0,1 -42.740103519485714,-10.115201625700543" fill="none" id="id127" stroke="none" /><text fill="#e1ed5e" style="font-size:6.75px; font-family:Arial;" text-anchor="middle"><textPath startOffset="22.20632615414155" xlink:href="#id127">July</textPath></text><line stroke="#e1ed5e" stroke-width="0.3" x1="58.666819895761336" x2="56.23545636021788" y1="174.27360380694188" y2="178.64263932499728" /><path d="M 58.180547188652646 175.14741091055294 a86.0,86.0 0 0,1 -31.652253787137756,-30.449443065178592" fill="none" id="id128" stroke="none" /><text fill="#e1ed5e" style="font-size:6.75px; font-family:Arial;" text-anchor="middle"><textPath startOffset="22.20632615414155" xlink:href="#id128">August</textPath></text><line stroke="#e1ed5e" stroke-width="0.3" x1="26.63291911575756" x2="22.317208475507996" y1="142.92168965132927" y2="145.44649492493687" /><path d="M 25.769776987707644 143.4266507060508 a86.0,86.0 0 0,1 -11.730757126820373,-40.83630448921669" fill="none" id="id129" stroke="none" /><text fill="#e1ed5e" style="font-size:6.75px; font-family:Arial;" text-anchor="middle"><textPath startOffset="21.46611528233685" xlink:href="#id129">September</textPath></text><line stroke="#e1ed5e" stroke-width="0.3" x1="15.007084014347285" x2="10.007500721073583" y1="101.09737516637583" y2="101.16192664675087" /><path d="M 14.007167355692545 101.11028546245083 a86.0,86.0 0 0,1 10.666146001902534,-42.60595125391555" fill="none" id="id130" stroke="none" /><text fill="#e1ed5e" style="font-size:6.75px; font-family:Arial;" text-anchor="middle"><textPath startOffset="22.20632615414155" xlink:href="#id130">October</textPath></text><line stroke="#e1ed5e" stroke-width="0.3" x1="26.266209847984243" x2="21.928928074336255" y1="57.711370442889674" y2="55.22380399835377" /><path d="M 25.398753493254645 57.213857153982495 a86.0,86.0 0 0,1 29.58750427330803,-30.492523968695096" fill="none" id="id131" stroke="none" /><text fill="#e1ed5e" style="font-size:6.75px; font-family:Arial;" text-anchor="middle"><textPath startOffset="21.46611528233685" xlink:href="#id131">November</textPath></text><line stroke="#e1ed5e" stroke-width="0.3" x1="56.762969772571076" x2="54.21961505331055" y1="26.818313649435495" y2="22.513508569990535" /><path d="M 56.25429882871897 25.957352633546506 a86.0,86.0 0 0,1 42.265352541879196,-11.944610805530505" fill="none" id="id132" stroke="none" /><text fill="#e1ed5e" style="font-size:6.75px; font-family:Arial;" text-anchor="middle"><textPath startOffset="22.20632615414155" xlink:href="#id132">December</textPath></text></svg>