<?xml version="1.0" encoding="utf-8" ?>
<svg baseProfile="full" height="200mm" version="1.1" viewBox="0,0,200,200" width="200mm" xmlns="http://www.w3.org/2000/svg" xmlns:ev="http://www.w3.org/2001/xml-events" xmlns:xlink="http://www.w3.org/1999/xlink"><defs /><rect fill="#1a1a1a" height="200" width="200" x="0" y="0" /><text alignment-baseline="middle" fill="#e1ed5e" style="dominant-baseline: central; font-size:9.0px; font-family:Arial;" text-anchor="middle" x="100.0" y="100.0">2017</text><line stroke="#e1ed5e" stroke-width="0.3" x1="100.0" x2="100.0" y1="15.0" y2="10.0" /><path d="M 100.0 14.0 a86.0,86.0 0 0,1 42.46469731375804,11.215312516191453" fill="none" id="id73" stroke="none" /><text fill="#e1ed5e" style="font-size:6.75px; font-family:Arial;" text-anchor="middle"><textPath startOffset="22.20632615414155" xlink:href="#id73">January</textPath></text><line stroke="#e1ed5e" stroke-width="0.3" x1="143.23703022742887" x2="145.7803849466894" y1="26.81831364943548" y2="22.513508569990506" /><path d="M 143.74570117128098 25.957352633546492 a86.0,86.0 0 0,1 28.547481713284135,27.462654790039103" fill="none" id="id74" stroke="none" /><text fill="#e1ed5e" style="font-size:6.75px; font-family:Arial;" text-anchor="middle"><textPath startOffset="19.985693538727396" xlink:href="#id74">February</textPath></text><path d="M 111.90073688211348 82.69761687909136 l 2.857446096497978 -4.154417293542637 a26.042239705059416,26.042239705059416 0 0,0 0.36715696343649235,0.2572169163430561 l -2.928534199518121 4.104615534435646" fill="#ff2c04" stroke="none" /><path d="M 113.06298171725822 83.55741782278167 l 4.638328160496427 -5.838337187834313 a28.456558807070675,28.456558807070675 0 0,0 0.38090676043891736,0.3080001099853284 l -4.738138319499836 5.757630980584855" fill="#ff4e07" stroke="none" /><path d="M 116.60985879189232 87.15038557335679 l 2.05935129990001 -1.5931423923747208 a23.60365713157115,23.60365713157115 0 0,0 0.24584227206549036,0.323499612730971 l -2.086469512189614 1.5574580037627161" fill="#ff0801" stroke="none" /><path d="M 117.45458315368197 88.32363383020206 l 2.1199570579064586 -1.4181601848876995 a23.550567826459066,23.550567826459066 0 0,0 0.22250056647623237,0.3388836276297382 l -2.144054259740616 1.3814584932802874" fill="#ff0701" stroke="none" /><path d="M 117.65298651832404 88.62581576622439 l 4.448838499762627 -2.8664786363536026 a26.292340103360875,26.292340103360875 0 0,0 0.24185497800405134,0.3825564936038108 l -4.497521074012635 2.789474495035585" fill="#ff2f04" stroke="none" /><line stroke="#e1ed5e" stroke-width="0.3" x1="172.23445277983987" x2="176.4835382374775" y1="55.19839476539836" y2="52.563006222186495" /><path d="M 173.08426987136738 54.67131705675599 a86.0,86.0 0 0,1 12.851231095245387,41.99856678651699" fill="none" id="id75" stroke="none" /><text fill="#e1ed5e" style="font-size:6.75px; font-family:Arial;" text-anchor="middle"><textPath startOffset="22.20632615414155" xlink:href="#id75">March</textPath></text><path d="M 118.03404312379186 89.2402003453031 l 6.098711018541615 -3.6387241763234015 a28.101731459231708,28.101731459231708 0 0,0 0.24427139088169525,0.4175389887515478 l -6.160442083893638 3.5332057752179584" fill="#ff4906" stroke="none" /><path d="M 118.3937258080291 89.86733742301442 l 6.069039468361714 -3.3432883441414383 a27.92898383751934,27.92898383751934 0 0,0 0.22834192009335572,0.42308289880549077 l -6.125689487673535 3.238324462003489" fill="#ff4706" stroke="none" /><path d="M 118.56541770881063 90.18545643968196 l 2.04990225552729 -1.0836737043475704 a23.31871687678989,23.31871687678989 0 0,0 0.18454051313011777,0.35647353330179105 l -2.0682522018175242 1.0482274487854344" fill="#ff0400" stroke="none" /><path d="M 119.04729006885535 91.15688171328212 l 5.569916918123817 -2.5859549561172845 a27.140939464761843,27.140939464761843 0 0,0 0.1930854034034989,0.4254380919594992 l -5.6136046384906635 2.4896948553157223" fill="#ff3b05" stroke="none" /><path d="M 119.196687751892 91.48605970444005 l 2.6196948027590987 -1.1618632042958241 a23.865785575562064,23.865785575562064 0 0,0 0.16332071924337208,0.37696673764412636 l -2.6393062318451515 1.116597322065095" fill="#ff0c01" stroke="none" /><path d="M 119.61058180528143 92.48833698450437 l 7.108843973550191 -2.7229809339294957 a28.612508640837422,28.612508640837422 0 0,0 0.17221380017425947,0.46144736515237683 l -7.154662362226076 2.6002104317477857" fill="#ff5007" stroke="none" /><path d="M 119.97218684219823 93.5106431181261 l 5.970157961552457 -1.9398219113300919 a27.277395569307746,27.277395569307746 0 0,0 0.14125081834512604,0.44780369442093226 l -6.002664263665789 1.8367680504827404" fill="#ff3d05" stroke="none" /><path d="M 120.28053869075195 94.5502522615342 l 2.906794876963434 -0.7811083841741919 a24.00991474373745,24.00991474373745 0 0,0 0.10381849191488866,0.4000549995762424 l -2.9198097007486252 0.7309569590490991" fill="#ff0e01" stroke="none" /><path d="M 120.45610955862082 95.25157060432595 l 2.697224808190251 -0.6261005558876855 a23.768939069752133,23.768939069752133 0 0,0 0.08908328189505048,0.39934288525930123 l -2.707602477087339 0.5795795010784204" fill="#ff0a01" stroke="none" /><path d="M 120.6074358757038 95.95851677861258 l 4.312848235759477 -0.845825938090758 a25.395006418907798,25.395006418907798 0 0,0 0.08043478420276803,0.4296858335055656 l -4.326768743872105 0.7714620271226296" fill="#ff2203" stroke="none" /><path d="M 120.78858239683441 97.02765380044208 l 2.4485212375033165 -0.3500889409341378 a23.47342242996807,23.47342242996807 0 0,0 0.0537474317256378,0.4004807955059741 l -2.4541846682867905 0.30788980336349936" fill="#ff0601" stroke="none" /><path d="M 120.94382443527127 98.46500227214037 l 6.2047605226452935 -0.45475425625388255 a27.221402942822344,27.221402942822344 0 0,0 0.030227953745584832,0.4676130652351863 l -6.211669067395294 0.347882126765661" fill="#ff3d05" stroke="none" /><line stroke="#e1ed5e" stroke-width="0.3" x1="184.98032266829074" x2="189.97916517819016" y1="98.17113171792111" y2="98.06355123074" /><path d="M 185.9800911702706 98.14961562048488 a86.0,86.0 0 0,1 -9.607161424134198,41.387399972396054" fill="none" id="id76" stroke="none" /><text fill="#e1ed5e" style="font-size:6.75px; font-family:Arial;" text-anchor="middle"><textPath startOffset="21.466115282336823" xlink:href="#id76">April</textPath></text><path d="M 120.99513854157772 99.54816195383933 l 3.6380561834398506 -0.078294896434852 a24.63889858125679,24.63889858125679 0 0,0 0.005475693538383516,0.4240984989738017 l -3.6388648840959497 0.015660139400587605" fill="#ff1702" stroke="none" /><path d="M 120.9904718944345 100.63252640178507 l 7.222880869958559 0.2176541275572018 a28.226159518088153,28.226159518088153 0 0,0 -0.018814572907378306,0.4855205260640769 l -7.218064164199978 -0.34195190063528486" fill="#ff4b07" stroke="none" /><path d="M 120.9764740272857 100.99374915477107 l 8.226252377348528 0.38971427401430425 a29.23547845551203,29.23547845551203 0 0,0 -0.02814074776832938,0.5024719552886031 l -8.21832527869267 -0.5312579456383307" fill="#ff5908" stroke="none" /><path d="M 120.95626037817324 101.35467743843564 l 9.771471209811438 0.6316580987914249 a30.791866091708087,30.791866091708087 0 0,0 -0.03874414606141993,0.5286330906407128 l -9.75915050508568 -0.7997643259289079" fill="#ff6f0a" stroke="none" /><path d="M 120.89721153311464 102.0752229133903 l 25.123705068180417 2.4949399753229735 a46.24728266236545,46.24728266236545 0 0,0 -0.0854863368944444,0.7914973091279933 l -25.077036429784922 -2.9270336063357583" fill="#c9ff1d" stroke="none" /><path d="M 120.8583938346157 102.4346265915055 l 9.965188801391154 1.1631534929106784 a31.032841765693405,31.032841765693405 0 0,0 -0.06649671634464667,0.5300442559696589 l -9.943690575799659 -1.334515503167732" fill="#ff720a" stroke="none" /><path d="M 120.81339534386255 102.79330883721812 l 3.7973022052522536 0.5096255383745811 a24.831347312288095,24.831347312288095 0 0,0 -0.060500926179504096,0.4231433367871137 l -3.7879672280561483 -0.5749143471421042" fill="#ff1a02" stroke="none" /><path d="M 120.64145759157962 103.86396538481128 l 2.45341107579827 0.45926482805479313 a23.496026860660322,23.496026860660322 0 0,0 -0.07783905540484451,0.39689966653629033 l -2.4451420874177616 -0.5014282216590285" fill="#ff0601" stroke="none" /><path d="M 120.41448212921028 104.9243191809786 l 2.3536562644444854 0.5677417930602572 a23.421162645248362,23.421162645248362 0 0,0 -0.09791014696704617,0.39110236707782114 l -2.3435348031823784 -0.6081719995354743" fill="#ff0500" stroke="none" /><path d="M 120.32669344350535 105.2749913415812 l 4.232213086963363 1.0983039347499735 a25.372401988215543,25.372401988215543 0 0,0 -0.11334446849258173,0.421796932438133 l -4.212680542129005 -1.1709918003636546" fill="#ff2203" stroke="none" /><path d="M 120.13307415673323 105.97154293290107 l 7.974033429712297 2.36512728275977 a29.317393594259194,29.317393594259194 0 0,0 -0.14766644486537267,0.48258248574335727 l -7.932140212340792 -2.5020367410551843" fill="#ff5a08" stroke="none" /><path d="M 118.97047184881838 109.00673069616215 l 4.3179539054288965 2.0500622385447995 a25.77990388097041,25.77990388097041 0 0,0 -0.19377494630461273,0.3992337836307254 l -4.28202570250957 -2.1240849781408" fill="#ff2803" stroke="none" /><path d="M 118.81262510543309 109.33194174019688 l 1.8577923998913481 0.9215519016620242 a23.07380098094078,23.07380098094078 0 0,0 -0.17955958330439203,0.3542880926816474 l -1.841654146800687 -0.9533942060463658" fill="#ff0000" stroke="none" /><path d="M 118.64920377521936 109.65438752849418 l 9.610487999664702 4.975192324832355 a31.82192303894137,31.82192303894137 0 0,0 -0.25601114670903014,0.4842766092538225 l -9.52342434473078 -5.139883949172312" fill="#ff7d0b" stroke="none" /><line stroke="#e1ed5e" stroke-width="0.3" x1="174.80103733775053" x2="179.2010983576182" y1="140.37084112569926" y2="142.7455964860345" /><path d="M 175.68104954172406 140.8457921977663 a86.0,86.0 0 0,1 -30.038265399797805,32.042727171017184" fill="none" id="id77" stroke="none" /><text fill="#e1ed5e" style="font-size:6.75px; font-family:Arial;" text-anchor="middle"><textPath startOffset="22.206326154141568" xlink:href="#id77">May</textPath></text><path d="M 118.48025628344425 109.97397251340804 l 3.59555623255952 1.9405563691283336 a25.08580269264953,25.08580269264953 0 0,0 -0.20835979892585335,0.3782335572451698 l -3.5616200241821567 -2.0021604447713086" fill="#ff1e03" stroke="none" /><path d="M 118.30583269289576 110.29060199501025 l 9.274095547690228 5.213421740821115 a31.639013792422396,31.639013792422396 0 0,0 -0.2709625463940238,0.47244603913898614 l -9.182981005143827 -5.372287625818416" fill="#ff7a0b" stroke="none" /><path d="M 117.94076556474637 110.91462005526583 l 10.868280616252685 6.611933763490175 a33.72152473748313,33.72152473748313 0 0,0 -0.305959184133431,0.4933036243481666 l -10.752856792451292 -6.798033719203615" fill="#ff970d" stroke="none" /><path d="M 117.75023020441432 111.22182372390056 l 9.447313016529 5.972659515685285 a32.17695776687844,32.17695776687844 0 0,0 -0.30000437343223074,0.46561344979019037 l -9.34310377971972 -6.134394565396928" fill="#ff820c" stroke="none" /><path d="M 117.35343817320211 111.8261652097733 l 12.42462531123637 8.46723687454146 a36.035471872016856,36.035471872016856 0 0,0 -0.3537294991277101,0.5095737258861565 l -12.277034904946523 -8.679851862614635" fill="#ffb610" stroke="none" /><path d="M 117.14729908036423 112.12312394758627 l 10.50360263329188 7.426036953271953 a33.863580104677574,33.863580104677574 0 0,0 -0.3406034486007335,0.4730684000869555 l -10.374219392315544 -7.60573895881004" fill="#ff990e" stroke="none" /><path d="M 116.71984013943494 112.70617746262583 l 6.546544735064905 4.975021200984083 a29.222413509332107,29.222413509332107 0 0,0 -0.30779993584280396,0.39787290892572474 l -6.459937982004033 -5.08697210402306" fill="#ff5908" stroke="none" /><path d="M 116.498646956653 112.99209946851258 l 3.3255263474661225 2.6187340819494733 a25.23283518219823,25.23283518219823 0 0,0 -0.2716520029889103,0.3389276421336 l -3.2799564324223582 -2.6755895576613233" fill="#ff2003" stroke="none" /><path d="M 116.27256486870786 113.27417163493432 l 3.3746060987148843 2.752799015770309 a25.35498205997564,25.35498205997564 0 0,0 -0.2787888942988486,0.33581918266973937 l -3.326721204522492 -2.8104794555538186" fill="#ff2203" stroke="none" /><path d="M 116.0416608686014 113.55231037782055 l 33.75354700226702 28.515659885469155 a65.18647750090523,65.18647750090523 0 0,0 -0.731508652275439,0.8509098241899967 l -33.2576958404208 -29.09244680882068" fill="#35ff67" stroke="none" /><path d="M 115.56566222782051 114.09645910891815 l 15.391605956751992 13.938831564914091 a41.76517660225814,41.76517660225814 0 0,0 -0.4871680966388647,0.528724752033856 l -15.149391452117404 -14.201707571749282" fill="#ffff18" stroke="none" /><path d="M 115.32070863581623 114.36230785411682 l 16.16594737552551 15.154671920198647 a43.158563481352246,43.158563481352246 0 0,0 -0.5127513733567837,0.5376177650116116 l -15.90268945078976 -15.430696801792765" fill="#eeff19" stroke="none" /><path d="M 115.07121518719521 114.62390073753431 l 11.767692529766908 11.418426804186698 a37.39692221600448,37.39692221600448 0 0,0 -0.4522523328963453,0.4581292255206104 l -11.569399571815026 -11.619296523687973" fill="#ffc712" stroke="none" /><path d="M 114.81725581225074 114.88116024355365 l 7.831845683810283 7.865623169386409 a32.09981237038744,32.09981237038744 0 0,0 -0.3949041930770317,0.3864968692408197 l -7.6952915383574565 -7.9992701415498" fill="#ff810b" stroke="none" /><path d="M 114.29624159901734 115.38237550388516 l 15.693582860413771 16.885877514605927 a44.05257908423582,44.05257908423582 0 0,0 -0.5598882478442451,0.5114446395834903 l -15.400595063102664 -17.153514920776" fill="#e4ff1b" stroke="none" /><path d="M 114.0293411484842 115.62618273729858 l 5.796506840035195 6.4562743297590615 a29.676575924158136,29.676575924158136 0 0,0 -0.3830506116091101,0.33799762821410845 l -5.684513875519497 -6.555095099745459" fill="#ff5f08" stroke="none" /><path d="M 113.75828350139079 115.86535959552629 l 10.123676423736434 11.674113771176021 a36.45230586918595,36.45230586918595 0 0,0 -0.47758513347553233,0.407008411736049 l -9.921225813683854 -11.846646573135017" fill="#ffbb11" stroke="none" /><path d="M 113.48314897796784 116.09983520530334 l 20.5360266926388 24.52147091628641 a52.98485466934395,52.98485466934395 0 0,0 -0.7042693177586762,0.579565702104349 l -20.11088724633543 -24.87133173724794" fill="#7dff26" stroke="none" /><path d="M 113.20401910651253 116.32954008644616 l 8.312938181943053 10.28069227885581 a34.221103393791765,34.221103393791765 0 0,0 -0.4612393765027422,0.3664364561232311 l -8.134741312722959 -10.422262648984168" fill="#ff9d0e" stroke="none" /><path d="M 112.92097659922987 116.55440617244103 l 16.485250472603145 21.120967914620607 a47.79288653346062,47.79288653346062 0 0,0 -0.6528764823247633,0.5005978465652263 l -16.119245261784886 -21.401605103013203" fill="#b7ff1f" stroke="none" /><path d="M 112.63410532772338 116.77436683061366 l 8.604907439491951 11.424780005338494 a35.302797985450475,35.302797985450475 0 0,0 -0.48854874670710186,0.3614166832629322 l -8.406973722366285 -11.571206637341195" fill="#ffac0f" stroke="none" /><path d="M 112.34349029814194 116.9893568818739 l 16.991914091119423 23.387363349216137 a49.9083709141183,49.9083709141183 0 0,0 -0.6993652224574571,0.49897851692505735 l -16.58682154081308 -23.676386127985413" fill="#9fff22" stroke="none" /><path d="M 112.04921762599082 117.19931262002967 l 7.659199671161688 10.93290648841657 a34.34884953421771,34.34884953421771 0 0,0 -0.48716992166148704,0.3350799143712855 l -7.469872864877318 -11.06312719215295" fill="#ff9f0e" stroke="none" /><path d="M 111.7513745106137 117.40417183066458 l 8.15223320052769 12.073725273369988 a35.568244511010896,35.568244511010896 0 0,0 -0.5103624758367131,0.338240419769368 l -7.943196025951012 -12.212263714230673" fill="#ffaf10" stroke="none" /><path d="M 111.1453310114006 117.79835938074945 l 15.90727356805738 25.402867931205808 a50.97243819743902,50.97243819743902 0 0,0 -0.747646247379815,0.45926538956348467 l -15.467648120745258 -25.672921787597673" fill="#93ff23" stroke="none" /><line stroke="#e1ed5e" stroke-width="0.3" x1="143.8653032363475" x2="146.44561519142675" y1="172.8068346515853" y2="177.08958963109032" /><path d="M 144.38136562736335 173.6633856474863 a86.0,86.0 0 0,1 -40.68145358897372,12.25698825130547" fill="none" id="id78" stroke="none" /><text fill="#e1ed5e" style="font-size:6.75px; font-family:Arial;" text-anchor="middle"><textPath startOffset="21.466115282336833" xlink:href="#id78">June</textPath></text><path d="M 110.5260780823613 118.17145234162733 l 5.58427170157622 9.640278771818393 a32.140873629810066,32.140873629810066 0 0,0 -0.4811201551314624,0.27319258054838125 l -5.417502779523558 -9.734974518161403" fill="#ff810b" stroke="none" /><path d="M 110.21172684928248 118.3499491758327 l 16.641965092498673 29.904757357937896 a55.22352282826952,55.22352282826952 0 0,0 -0.8346041139973176,0.4550927080090362 l -16.124738166632707 -30.186790717706703" fill="#65ff29" stroke="none" /><path d="M 109.2508944713604 118.85261126421891 l 5.717990083843299 11.652823907686814 a33.98012771980645,33.98012771980645 0 0,0 -0.5273187220770981,0.253145031702975 l -5.516558693765968 -11.749523215889349" fill="#ff9a0e" stroke="none" /><path d="M 108.92500713936063 119.00905698771935 l 7.050928975432209 15.017524201101562 a37.59040784752625,37.59040784752625 0 0,0 -0.5880786680984725,0.26995807308678266 l -6.791382311566316 -15.136669344522419" fill="#ffca12" stroke="none" /><path d="M 108.2653958097858 119.30500536409082 l 5.713595312732539 13.344913020372863 a35.51660686658547,35.51660686658547 0 0,0 -0.5640858119911764,0.23578791516102562 l -5.483038041243902 -13.44128597855386" fill="#ffaf10" stroke="none" /><path d="M 107.59598834532513 119.57807347666477 l 7.604289698663447 19.599469573949914 a42.022950064189075,42.022950064189075 0 0,0 -0.6766290870574404,0.2558432238756305 l -7.265790390845732 -19.727461047932177" fill="#fcff18" stroke="none" /><path d="M 107.2578585660854 119.70592522655815 l 6.092214800855122 16.54106762162127 a38.62730833799664,38.62730833799664 0 0,0 -0.625910354902105,0.2244291844441248 l -5.806584885323282 -16.643484347105357" fill="#ffd714" stroke="none" /><path d="M 106.57524785965236 119.94407469862006 l 4.767579566612944 14.461046189849696 a36.226676322459596,36.226676322459596 0 0,0 -0.5939081617201081,0.1901506383811872 l -4.517950059801895 -14.54096967489059" fill="#ffb811" stroke="none" /><path d="M 104.83641907484287 120.43548508189849 l 3.3989459812396796 14.361681404967793 a35.75841206096317,35.75841206096317 0 0,0 -0.6001961781522275,0.13660269607645673 l -3.1512296536945903 -14.418060834621935" fill="#ffb210" stroke="none" /><path d="M 104.48393922423573 120.51570834832081 l 6.236614964654674 28.53485903735388 a50.20844991606044,50.20844991606044 0 0,0 -0.8459132518427434,0.17726934658413698 l -5.744510251382552 -28.637984364664558" fill="#9cff22" stroke="none" /><path d="M 103.41894727170886 120.7198165907248 l 3.4227849919091726 20.743074293274056 a42.023572204483365,42.023572204483365 0 0,0 -0.7147291844999726,0.11162599947081905 l -3.065219943800683 -20.79891860009198" fill="#fcff18" stroke="none" /><path d="M 103.06178313531738 120.77559828337769 l 1.8141511055568909 12.309844599914364 a33.44280588564469,33.44280588564469 0 0,0 -0.5702339341970548,0.0790292272962698 l -1.6019885801730056 -12.339248392703235" fill="#ff930d" stroke="none" /><path d="M 102.70371172650421 120.8252237178851 l 1.3083707732369634 10.077669816460611 a31.162246946904112,31.162246946904112 0 0,0 -0.5325369459687969,0.06448280784798884 l -1.1347064042167863 -10.098698153033952" fill="#ff740a" stroke="none" /><path d="M 102.34483914955558 120.86867818915974 l 1.6513367040857876 14.69662184122325 a35.78910431548108,35.78910431548108 0 0,0 -0.6127902527870835,0.0635182152495582 l -1.3981138546931016 -14.722869424928566" fill="#ffb210" stroke="none" /><path d="M 101.98527174616119 120.90594882070398 l 1.9605040450586169 20.64513198660652 a41.738009809407814,41.738009809407814 0 0,0 -0.7158181618579761,0.061763803010849 l -1.604841565459099 -20.675820041896028" fill="#fffe18" stroke="none" /><path d="M 101.62511606390274 120.93702456842531 l 0.9804137607546185 12.631065221794707 a33.66905757266533,33.66905757266533 0 0,0 -0.5782055223895844,0.03987643811469963 l -0.7628454775861037 -12.646070004425692" fill="#ff960d" stroke="none" /><path d="M 101.26447882468166 120.96189622390904 l 0.12487035366684184 2.0700381405486388 a23.07380098094078,23.07380098094078 0 0,0 -0.3966627362463038,0.020502932620707164 l -0.0892195490070584 -2.071880879931548" fill="#ff0000" stroke="none" /><path d="M 100.90346689309514 120.98055641714683 l 0.10706345880847001 2.486257055917856 a23.488561177128936,23.488561177128936 0 0,0 -0.40409233913055037,0.013917757209906819 l -0.06425076800326739 -2.4877316115538566" fill="#ff0601" stroke="none" /><line stroke="#e1ed5e" stroke-width="0.3" x1="102.19456741930631" x2="102.32365962044197" y1="184.97166512339345" y2="189.96999836594603" /><path d="M 102.22038585953345 185.97133177190398 a86.0,86.0 0 0,1 -42.740103519485714,-10.115201625700543" fill="none" id="id79" stroke="none" /><text fill="#e1ed5e" style="font-size:6.75px; font-family:Arial;" text-anchor="middle"><textPath startOffset="22.20632615414155" xlink:href="#id79">July</textPath></text><path d="M 100.54218724476979 120.99299961872073 l 0.8055547123022992 31.190349701791757 a52.20075051845025,52.20075051845025 0 0,0 -0.8984502597725778,0.015467636006951183 l -0.26854476263705357 -31.199594815077866" fill="#86ff25" stroke="none" /><path d="M 100.18074693466247 120.99922214144158 l 0.085676153235441 9.95387599449484 a30.954244708515752,30.954244708515752 0 0,0 -0.5328461757957861,0.0 l 0.08567615323543415 -9.95387599449484" fill="#ff710a" stroke="none" /><path d="M 99.81925306533755 120.99922214144158 l -0.10113712905471188 11.750135866668055 a32.75057111820666,32.75057111820666 0 0,0 -0.563684599102707,-0.009704341566835159 l 0.30338141805008684 -11.74665404782206" fill="#ff8a0c" stroke="none" /><path d="M 99.45781275523022 120.99299961872073 l -0.4452631764932983 17.240187379035866 a38.245936337601634,38.245936337601634 0 0,0 -0.6579751633296528,-0.02266199501102674 l 0.7419586914975942 -17.229968585598744" fill="#ffd213" stroke="none" /><path d="M 99.09653310690486 120.98055641714683 l -0.29363937969202897 6.818974352030711 a27.8252937884723,27.8252937884723 0 0,0 -0.4783458598827873,-0.024725017094828404 l 0.4109733079883052 -6.812909528173681" fill="#ff4506" stroke="none" /><path d="M 98.73552117531835 120.96189622390904 l -0.5098706280924427 8.452379735488199 a29.467744165377397,29.467744165377397 0 0,0 -0.5060555191368807,-0.03490055146492927 l 0.6552889080082535 -8.442350839506984" fill="#ff5c08" stroke="none" /><path d="M 98.37488393609728 120.93702456842531 l -0.8834973786165355 11.382452449464603 a32.41668916027519,32.41668916027519 0 0,0 -0.5559549905275848,-0.047970135919318965 l 1.079296686885662 -11.36555806126662" fill="#ff850c" stroke="none" /><path d="M 98.01472825383883 120.90594882070398 l -3.930457719614388 41.38977350938848 a62.575976826096976,62.575976826096976 0 0,0 -1.0714419762965837,-0.11105934170506263 l 4.642332292516565 -41.31598479922766" fill="#32ff48" stroke="none" /><path d="M 97.65516085044442 120.86867818915974 l -2.778702701998123 24.72999159978112 a45.885611771289376,45.885611771289376 0 0,0 -0.784147035296482,-0.09494928564930004 l 3.203977160345995 -24.67849678540647" fill="#ceff1d" stroke="none" /><path d="M 97.2962882734958 120.8252237178851 l -2.6827701757867106 20.663922320840477 a41.83734487639488,41.83734487639488 0 0,0 -0.7133693819472919,-0.0988664961012779 l 3.0380681489208334 -20.614681259246595" fill="#ffff18" stroke="none" /><path d="M 96.93821686468263 120.77559828337769 l -4.306643545333243 29.22254525981338 a50.53818427203002,50.53818427203002 0 0,0 -0.8595441400149155,-0.134243117252272 l 4.8090235489566755 -29.144083835214" fill="#98ff23" stroke="none" /><path d="M 96.58105272829116 120.7198165907248 l -1.1873411110061391 7.195633069350728 a28.292935909674448,28.292935909674448 0 0,0 -0.47983610591932985,-0.08342565758767195 l 1.311026188397519 -7.17412883324205" fill="#ff4c07" stroke="none" /><path d="M 96.22490169976321 120.6578951692458 l -4.272214836010431 23.378190236069955 a44.76534448138516,44.76534448138516 0 0,0 -0.7568165255117134,-0.14504568835282797 l 4.673998976093839 -23.301187349368657" fill="#dbff1b" stroke="none" /><path d="M 95.51606077576429 120.51570834832081 l -2.656799303342534 12.155856027840768 a33.44280588564469,33.44280588564469 0 0,0 -0.5613292963074064,-0.12775672030827523 l 2.865648749042803 -12.108322573954805" fill="#ff930d" stroke="none" /><path d="M 95.16358092515715 120.4354850818985 l -4.783197609464795 20.210606624316664 a41.76890944402383,41.76890944402383 0 0,0 -0.6982304028658505,-0.17160804516312417 l 5.130381297073856 -20.125277320839512" fill="#ffff18" stroke="none" /><path d="M 94.81253420990036 120.34920634021253 l -3.8552267648592307 15.12314646511117 a36.606804042266035,36.606804042266035 0 0,0 -0.6092584700428089,-0.16091069940237004 l 4.114975677713529 -15.054544416405218" fill="#ffbd11" stroke="none" /><path d="M 94.11515582081647 120.15858648285463 l -4.991259870478322 17.097605424006083 a38.81125448500609,38.81125448500609 0 0,0 -0.6396926881251837,-0.19273415945298156 l 5.284827533043751 -17.009155895447375" fill="#ffd914" stroke="none" /><path d="M 93.08242187328487 119.8279376855182 l -6.831276335674438 19.58056982012396 a41.738009809407814,41.738009809407814 0 0,0 -0.6763156341136224,-0.24250272423543856 l 7.167311530417787 -19.460079554848562" fill="#fffe18" stroke="none" /><path d="M 92.7421414339146 119.70592522655815 l -15.787795473627783 42.86569023944268 a66.68065110767307,66.68065110767307 0 0,0 -1.0736530399332425,-0.40596371086405086 l 16.52331873432131 -42.587578278471995" fill="#37ff79" stroke="none" /><path d="M 92.40401165467489 119.57807347666478 l -4.563143912138162 11.7611511149064 a33.61534612725896,33.61534612725896 0 0,0 -0.5376517278906777,-0.21394271839478424 l 4.764916716070697 -11.680861552105549" fill="#ff950d" stroke="none" /><path d="M 92.06813273071674 119.44442032107085 l -8.302259543821764 20.352411191984018 a42.980631357187534,42.980631357187534 0 0,0 -0.6826317736400174,-0.28534013674460434 l 8.651362776959242 -20.20648601221944" fill="#f1ff19" stroke="none" /><path d="M 91.07499286063937 119.00905698771935 l -7.63263061590537 16.25646994769244 a38.95911649494717,38.95911649494717 0 0,0 -0.604584882457433,-0.2902374841423735 l 7.911328166363045 -16.122678187050504" fill="#ffdb14" stroke="none" /><path d="M 90.7491055286396 118.85261126421891 l -2.562959719484009 5.2231147406201135 a26.81804865202936,26.81804865202936 0 0,0 -0.412673696451281,-0.20692315836608086 l 2.6524873236180504 -5.1782237413447305" fill="#ff3705" stroke="none" /><path d="M 90.42595943632237 118.69057910512821 l -13.102653920641869 25.579188636402055 a49.73977089436782,49.73977089436782 0 0,0 -0.7586714820816114,-0.3969010623964705 l 13.541016305249977 -25.34985815506087" fill="#a1ff22" stroke="none" /><line stroke="#e1ed5e" stroke-width="0.3" x1="58.666819895761336" x2="56.23545636021788" y1="174.27360380694188" y2="178.64263932499728" /><path d="M 58.180547188652646 175.14741091055294 a86.0,86.0 0 0,1 -31.652253787137756,-30.449443065178592" fill="none" id="id80" stroke="none" /><text fill="#e1ed5e" style="font-size:6.75px; font-family:Arial;" text-anchor="middle"><textPath startOffset="22.20632615414155" xlink:href="#id80">August</textPath></text><path d="M 89.7882731507175 118.34994917583269 l -11.1462079263754 20.029163722355456 a43.92172224233846,43.92172224233846 0 0,0 -0.6574689307534921,-0.3733280177668983 l 11.4893256240501 -19.834332538793927" fill="#e5ff1a" stroke="none" /><path d="M 89.4739219176387 118.17145234162733 l -2.0731304645440614 3.578901005642866 a25.135988676388294,25.135988676388294 0 0,0 -0.3725298699789909,-0.2200972135534488 l 2.1344282055514343 -3.5426852197956675" fill="#ff1e03" stroke="none" /><path d="M 89.1626897886671 117.98757091392108 l -10.427597884471723 17.307537825450805 a41.2060798577965,41.2060798577965 0 0,0 -0.6043966516881741,-0.37126978789933157 l 10.723973736092205 -17.125479570723098" fill="#fff817" stroke="none" /><path d="M 88.8546689885994 117.79835938074946 l -2.7262567808590754 4.353652475669023 a26.136805029790317,26.136805029790317 0 0,0 -0.3792552442346958,-0.24205864071141128 l 2.8007938271406947 -4.306079406133807" fill="#ff2d04" stroke="none" /><path d="M 88.54995079064634 117.60387380957326 l -16.20118454341433 24.908505025016716 a50.71383521511571,50.71383521511571 0 0,0 -0.7276838892498416,-0.48226920240511384 l 16.627543131404135 -24.625937801520283" fill="#96ff23" stroke="none" /><path d="M 88.24862548938628 117.40417183066458 l -10.828756802813427 16.037744685817213 a40.35125909345271,40.35125909345271 0 0,0 -0.5723021294182326,-0.39363462314328607 l 11.10321581685455 -15.848969273308825" fill="#ffed16" stroke="none" /><path d="M 87.95078237400918 117.19931262002967 l -10.815024581888133 15.437598900692432 a39.84898449586886,39.84898449586886 0 0,0 -0.5584031976241717,-0.39840585498040043 l 11.079155107361192 -15.249148783867813" fill="#ffe715" stroke="none" /><path d="M 87.65650970185807 116.9893568818739 l -11.857576342858748 16.320553698917482 a41.17331380229764,41.17331380229764 0 0,0 -0.569789705172403,-0.42151680213855436 l 12.136751018449715 -16.11402694803916" fill="#fff717" stroke="none" /><path d="M 86.79598089348748 116.32954008644616 l -17.553882591685394 21.709058972227275 a48.91813094571908,48.91813094571908 0 0,0 -0.6502148382244117,-0.53508254545787 l 17.924967558454494 -21.403681307912226" fill="#abff21" stroke="none" /><path d="M 86.24171649860922 115.8653595955263 l -26.792308568487332 30.895540842023138 a61.89452582375983,61.89452582375983 0 0,0 -0.7989040256071802,-0.7049399156200387 l 27.3201549470011 -30.429777784630808" fill="#31ff40" stroke="none" /><path d="M 85.70375840098266 115.38237550388516 l -8.960622018068044 9.641390828186488 a34.16241482603114,34.16241482603114 0 0,0 -0.4272972469273454,-0.40403621751921065 l 9.125255099386205 -9.485719973921347" fill="#ff9d0e" stroke="none" /><path d="M 85.44109423537348 115.13401014063109 l -2.021588340199613 2.1014449118214595 a23.915971559300832,23.915971559300832 0 0,0 -0.2942234472059296,-0.28795956891790314 l 2.0574617397813366 -2.0663352399809867" fill="#ff0c01" stroke="none" /><path d="M 84.67929136418377 114.36230785411682 l -15.126545798830517 14.1802910489608 a41.73386220744594,41.73386220744594 0 0,0 -0.4868028312345323,-0.5283283285782433 l 15.368395038060777 -13.917811465581213" fill="#fffe18" stroke="none" /><path d="M 84.19399662182784 113.82643327865904 l -18.142746601189607 15.870518901658917 a45.10461832186708,45.10461832186708 0 0,0 -0.5061543409761461,-0.5887718483620091 l 18.413243451736534 -15.555869954135376" fill="#d7ff1c" stroke="none" /><path d="M 83.95833913139862 113.55231037782056 l -7.940249854013372 6.708079130986867 a31.39451265676948,31.39451265676948 0 0,0 -0.34519612161147967,-0.41581096589904654 l 8.054541975518388 -6.570406907974059" fill="#ff770b" stroke="none" /><path d="M 83.50135304334701 112.99209946851258 l -20.756067978496837 16.344667563366393 a47.41898021659699,47.41898021659699 0 0,0 -0.4994645313515493,-0.6456252352682571 l 21.034339327066455 -15.984964333984884" fill="#bcff1f" stroke="none" /><path d="M 83.28015986056508 112.70617746262583 l -2.344432109086899 1.7816420598949028 a23.944590012837814,23.944590012837814 0 0,0 -0.246559419708646,-0.3303066348642461 l 2.3747527954906302 -1.7410225455213488" fill="#ff0d01" stroke="none" /><path d="M 83.06392112726016 112.41649034213515 l -5.586246786547123 4.095492220787281 a27.926702656440305,27.926702656440305 0 0,0 -0.2808897111122855,-0.3901312414265721 l 5.655916290035015 -3.998727373909571" fill="#ff4706" stroke="none" /><path d="M 82.85270091963577 112.12312394758628 l -39.84913998436124 28.173303618896593 a69.80255110438131,69.80255110438131 0 0,0 -0.6851921220202835,-0.987070355813506 l 40.328193013543654 -27.483192000896075" fill="#3bff9c" stroke="none" /><path d="M 82.24976979558568 111.22182372390057 l -13.273671110595552 8.391710735959416 a36.70385792817407,36.70385792817407 0 0,0 -0.3330182283771809,-0.5369314194563432 l 13.41615397864069 -8.161982985137808" fill="#ffbe11" stroke="none" /><line stroke="#e1ed5e" stroke-width="0.3" x1="26.63291911575756" x2="22.317208475507996" y1="142.92168965132927" y2="145.44649492493687" /><path d="M 25.769776987707644 143.4266507060508 a86.0,86.0 0 0,1 -11.730757126820373,-40.83630448921669" fill="none" id="id81" stroke="none" /><text fill="#e1ed5e" style="font-size:6.75px; font-family:Arial;" text-anchor="middle"><textPath startOffset="21.46611528233685" xlink:href="#id81">September</textPath></text><path d="M 81.87401531095188 110.60418214915194 l -15.737011052770448 9.20656916297763 a39.23223608413707,39.23223608413707 0 0,0 -0.33599234981955856,-0.5858309827898569 l 15.893155398742385 -8.934318334329465" fill="#ffdf14" stroke="none" /><path d="M 81.51974371655577 109.97397251340807 l -41.49142684485514 22.393323152309605 a68.14869482208104,68.14869482208104 0 0,0 -0.5482643360922993,-1.0371095050769028 l 41.87074368917233 -21.675798632146574" fill="#39ff89" stroke="none" /><path d="M 81.18737489456691 109.33194174019688 l -15.830992156434132 7.852912374822775 a38.671687678988775,38.671687678988775 0 0,0 -0.2906761886352893,-0.5988790440318272 l 15.96382160168414 -7.579244374825664" fill="#ffd814" stroke="none" /><path d="M 80.87730276802145 108.67885076344099 l -2.0646016870590342 0.9370210546433426 a23.267286612462556,23.267286612462556 0 0,0 -0.16238229938899645,-0.36612921744711807 l 2.0804250711793104 -0.9013435007035286" fill="#ff0300" stroke="none" /><path d="M 80.58989483394504 108.01547362559985 l -2.049437220798509 0.8463225649782443 a23.217308008821885,23.217308008821885 0 0,0 -0.14936179123680238,-0.3707037167783941 l 2.063701626292699 -0.8109194803570449" fill="#ff0200" stroke="none" /><path d="M 80.0844068197444 106.66101706037122 l -21.369518673365018 7.147300467872831 a43.533091938510154,43.533091938510154 0 0,0 -0.23157065270255395,-0.7127011855155815 l 21.48938157708382 -6.778400382379446" fill="#eaff1a" stroke="none" /><path d="M 79.97269907076064 106.31721596034903 l -3.0799416442711527 0.9715066738587389 a24.22953026761908,24.22953026761908 0 0,0 -0.12203979128887966,-0.39883309910712755 l 3.096208208066163 -0.9183466021995635" fill="#ff1101" stroke="none" /><path d="M 79.86692584326677 105.97154293290107 l -14.996320330688144 4.447963087658542 a36.642058658942034,36.642058658942034 0 0,0 -0.1741498692292239,-0.6062385411034047 l 15.070662836803471 -4.189167071050542" fill="#ffbd11" stroke="none" /><path d="M 79.76711848015287 105.62410040840567 l -5.69622982240352 1.5833715251644627 a26.912199216564076,26.912199216564076 0 0,0 -0.12022310373234546,-0.4473948930804132 l 5.722641002477641 -1.4850856989085106" fill="#ff3805" stroke="none" /><path d="M 79.67330655649465 105.27499134158121 l -41.798825068186396 10.847235972528525 a64.18337996642417,64.18337996642417 0 0,0 -0.26831307482634514,-1.071777358457339 l 41.9793494573078 -10.126130774673793" fill="#34ff5c" stroke="none" /><path d="M 79.50377843672027 104.57218783832718 l -16.873304069270727 3.764006718005597 a38.28803449751473,38.28803449751473 0 0,0 -0.1379571874098203,-0.6444900512661258 l 16.93559529540499 -3.473002847323307" fill="#ffd313" stroke="none" /><path d="M 79.4281124754447 104.21870165774334 l -16.35478263107071 3.3538948973629243 a37.69513479706376,37.69513479706376 0 0,0 -0.12487871687252446,-0.6367538869324496 l 16.4100912809189 -3.07187728336252" fill="#ffcb12" stroke="none" /><path d="M 79.35854240842038 103.8639653848113 l -2.931618319386073 0.5487825487773406 a23.982540570789034,23.982540570789034 0 0,0 -0.07246559623625276,-0.4064255475677994 l 2.9406303579615143 -0.4982382504763274" fill="#ff0d01" stroke="none" /><path d="M 79.29508885075956 103.50808413554451 l -2.5431484071982546 0.4308919037285883 a23.579393660094144,23.579393660094144 0 0,0 -0.0643585465629095,-0.4007607308822741 l 2.550188708122455 -0.38705194315310054" fill="#ff0801" stroke="none" /><path d="M 79.23777060512086 103.15116336523772 l -62.286688184637434 9.45349009571317 a84.0,84.0 0 0,0 -0.20466379593360395,-1.4314181120783975 l 62.440186031587636 -8.379926511654372" fill="#4dd2ff" stroke="none" /><path d="M 79.10278846688536 102.07522291339032 l -8.873696592290031 0.8812131927560173 a29.917344218045358,29.917344218045358 0 0,0 -0.04647930635387788,-0.5128952725569177 l 8.887550494920985 -0.7283365316505334" fill="#ff6309" stroke="none" /><path d="M 79.04373962182676 101.35467743843564 l -2.276429745810318 0.1471554543216569 a23.28118107903486,23.28118107903486 0 0,0 -0.022409410726449922,-0.4001350823114255 l 2.2786255074243 -0.10794865567479373" fill="#ff0300" stroke="none" /><line stroke="#e1ed5e" stroke-width="0.3" x1="15.007084014347285" x2="10.007500721073583" y1="101.09737516637583" y2="101.16192664675087" /><path d="M 14.007167355692545 101.11028546245083 a86.0,86.0 0 0,1 10.666146001902534,-42.60595125391555" fill="none" id="id82" stroke="none" /><text fill="#e1ed5e" style="font-size:6.75px; font-family:Arial;" text-anchor="middle"><textPath startOffset="22.20632615414155" xlink:href="#id82">October</textPath></text><path d="M 79.32604984820605 96.31383870115002 l -2.822924145780193 -0.5033268272082564 a23.86744461634682,23.86744461634682 0 0,0 0.07559646670370378,-0.4038393479588534 l 2.813841955166627 0.5518442526296825" fill="#ff0c01" stroke="none" /><path d="M 79.46518482838121 95.60439243477599 l -10.3852940128126 -2.22303812078558 a31.620556963692025,31.620556963692025 0 0,0 0.11851025329354142,-0.531258227989505 l 10.345489372517022 2.401474518325044" fill="#ff7a0b" stroke="none" /><path d="M 79.71946130924805 94.55025226153421 l -10.066835089607757 -2.705140755857495 a31.423960630698836,31.423960630698836 0 0,0 0.14486929096445206,-0.5211719185466934 l 10.018779028076944 2.8780239778231307" fill="#ff780b" stroke="none" /><path d="M 79.91906864156998 93.8553929516997 l -4.964939054159244 -1.5192322986434186 a26.192175515981432,26.192175515981432 0 0,0 0.13563121216874746,-0.42998800714594 l 4.938052358222293 1.604470472215773" fill="#ff2e04" stroke="none" /><path d="M 80.65960295795068 91.81776055985345 l -2.2582789554480835 -0.9553981283810461 a23.45206227986438,23.45206227986438 0 0,0 0.1604894868078358,-0.3704318628304459 l 2.241498758797567 0.9941291357980911" fill="#ff0600" stroke="none" /><path d="M 80.803312248108 91.48605970444005 l -2.2900291784738345 -1.0156529059912844 a23.505151584976463,23.505151584976463 0 0,0 0.16721977077241362,-0.3684465990764364 l 2.2722070907380694 1.0549215139097916" fill="#ff0601" stroke="none" /><path d="M 81.10775173730289 90.83032412892265 l -2.856318386733198 -1.3863629900871726 a24.174989301820336,24.174989301820336 0 0,0 0.1849271413474192,-0.37280183254927146 l 2.832031232432366 1.4353244111354055" fill="#ff1001" stroke="none" /><path d="M 81.26839172434947 90.50648371742162 l -23.86675360766516 -12.096100380296184 a47.757009776490335,47.757009776490335 0 0,0 0.3779411678729955,-0.7300620400730112 l 23.65500300663205 12.50513514262953" fill="#b8ff1f" stroke="none" /><line stroke="#e1ed5e" stroke-width="0.3" x1="26.266209847984243" x2="21.928928074336255" y1="57.711370442889674" y2="55.22380399835377" /><path d="M 25.398753493254645 57.213857153982495 a86.0,86.0 0 0,1 29.58750427330803,-30.492523968695096" fill="none" id="id83" stroke="none" /><text fill="#e1ed5e" style="font-size:6.75px; font-family:Arial;" text-anchor="middle"><textPath startOffset="21.46611528233685" xlink:href="#id83">November</textPath></text><path d="M 81.96595687620814 89.24020034530311 l -8.96507848367309 -5.348908600850341 a31.439514138055895,31.439514138055895 0 0,0 0.2812851436237061,-0.46235881716873656 l 8.871677541763166 5.5024351912261515" fill="#ff780b" stroke="none" /><path d="M 82.34701348167596 88.62581576622439 l -15.314324628806713 -9.867336020626608 a39.217926857368575,39.217926857368575 0 0,0 0.3705223163232814,-0.5643309078353279 l 15.142205677125512 10.129484992439604" fill="#ffdf14" stroke="none" /><path d="M 83.17141714833178 87.43820079747576 l -5.420333700483993 -4.046041437731958 a27.763909279436454,27.763909279436454 0 0,0 0.2891730929927561,-0.3805178938895166 l 5.349884667267127 4.138744107502501" fill="#ff4406" stroke="none" /><path d="M 85.83668400450813 84.49514656593479 l -4.507607372553859 -4.934564170707272 a27.683445801375953,27.683445801375953 0 0,0 0.35459727362155097,-0.3183609334149638 l 4.421999111336336 5.011424112891515" fill="#ff4306" stroke="none" /><path d="M 86.93701828274178 83.55741782278169 l -6.888606178955094 -8.67079780371432 a32.07409723822377,32.07409723822377 0 0,0 0.4352415969307024,-0.339712970092226 l 6.738332026864966 8.788089163029769" fill="#ff800b" stroke="none" /><path d="M 88.70189139769569 82.29822771554957 l -1.5279725860814135 -2.394013345754125 a23.8400704433984,23.8400704433984 0 0,0 0.34781623761685027,-0.21780249608694965 l 1.486537196092321 2.4199601831640045" fill="#ff0b01" stroke="none" /><line stroke="#e1ed5e" stroke-width="0.3" x1="56.762969772571076" x2="54.21961505331055" y1="26.818313649435495" y2="22.513508569990535" /><path d="M 56.25429882871897 25.957352633546506 a86.0,86.0 0 0,1 42.265352541879196,-11.944610805530505" fill="none" id="id84" stroke="none" /><text fill="#e1ed5e" style="font-size:6.75px; font-family:Arial;" text-anchor="middle"><textPath startOffset="22.20632615414155" xlink:href="#id84">December</textPath></text><path d="M 96.04723909329186 79.375362276772 l -0.5026469159190304 -2.622701141861225 a23.670433523157445,23.670433523157445 0 0,0 0.40082484030687704,-0.0732481775581802 l 0.4574269545092601 2.6309648007701414" fill="#ff0901" stroke="none" /><path d="M 97.47563105711357 79.15227682838746 l -2.594410438062665 -21.426167026293477 a42.58266894894499,42.58266894894499 0 0,0 0.7284339304706611,-0.08184803956196746 l 2.225209804082286 21.46765101932604" fill="#f5ff19" stroke="none" /><path d="M 98.19473922651362 79.07773832637324 l -1.337054129610704 -15.49593099366675 a36.553507357055864,36.553507357055864 0 0,0 0.6273448887951918,-0.048694037352655054 l 1.0701190514531778 15.516650293207869" fill="#ffbc11" stroke="none" /><path d="M 98.55514903715128 79.0497635885617 l -0.8848600412656037 -12.830407794447723 a33.86088416340235,33.86088416340235 0 0,0 0.5818234317143315,-0.03509717829187751 l 0.6638745607116492 12.843738242119906" fill="#ff990e" stroke="none" /><path d="M 99.63851952072746 79.00311137660856 l -0.7560640459849648 -43.91659709438402 a64.92310477632574,64.92310477632574 0 0,0 1.1175445252574896,-0.009619058550289357 l 1.0758057934588229e-14 43.923104776325744" fill="#35ff64" stroke="none" /></svg>