<?xml version="1.0" encoding="utf-8" ?>
<svg baseProfile="full" height="200mm" version="1.1" viewBox="0,0,200,200" width="200mm" xmlns="http://www.w3.org/2000/svg" xmlns:ev="http://www.w3.org/2001/xml-events" xmlns:xlink="http://www.w3.org/1999/xlink"><defs /><rect fill="#1a1a1a" height="200" width="200" x="0" y="0" /><text alignment-baseline="middle" fill="#e1ed5e" style="dominant-baseline: central; font-size:9.0px; font-family:Arial;" text-anchor="middle" x="100.0" y="100.0">2021</text><line stroke="#e1ed5e" stroke-width="0.3" x1="100.0" x2="100.0" y1="15.0" y2="10.0" /><path d="M 100.0 14.0 a86.0,86.0 0 0,1 42.46469731375804,11.215312516191453" fill="none" id="id121" stroke="none" /><text fill="#e1ed5e" style="font-size:6.75px; font-family:Arial;" text-anchor="middle"><textPath startOffset="22.20632615414155" xlink:href="#id121">January</textPath></text><path d="M 100.0 79.0 l 0.0 -8.910274971787178 a29.910274971787178,29.910274971787178 0 0,0 0.514856215808321,0.004431529995370591 l -0.15337573653579253 8.908954818400366" fill="#ff2003" stroke="none" /><path d="M 100.36148047927253 79.00311137660856 l 0.12011209010976746 -6.97680877106552 a27.977842613745835,27.977842613745835 0 0,0 0.4814498631103689,0.012434429548687518 l -0.24018858841500418 6.973707549374473" fill="#ff0100" stroke="none" /><path d="M 100.72285384407766 79.0124445844662 l 1.3468348277121864 -39.10440653220565 a60.127593515179875,60.127593515179875 0 0,0 1.034077696398809,0.04452956084714908 l -2.019753356500327 39.075429244834304" fill="#48ff2c" stroke="none" /><path d="M 101.08401301168833 79.027996857942 l 0.3631298879043142 -7.02534108722861 a28.034719660895654,28.034719660895654 0 0,0 0.4817138477996875,0.029058294802733742 l -0.48400578454361365 7.018049523045572" fill="#ff0200" stroke="none" /><path d="M 101.44485096284872 79.0497635885617 l 0.48157191597609983 -6.98275860156309 a27.99934491205857,27.99934491205857 0 0,0 0.4805351713206441,0.03729877775283754 l -0.6016972766590851 6.973434561621788" fill="#ff0100" stroke="none" /><path d="M 101.80526077348638 79.07773832637324 l 0.5986562934949176 -6.938190763916633 a27.96397016322149,27.96397016322149 0 0,0 0.4792157242162636,0.04550730731056654 l -0.7179971448014255 6.926857912090888" fill="#ff0100" stroke="none" /><path d="M 102.16513564639614 79.11191278185805 l 0.82115559912175 -7.922076292388809 a28.964520657289917,28.964520657289917 0 0,0 0.4954771541418531,0.05567263140536161 l -0.9573994567733284 7.906767707512846" fill="#ff1101" stroke="none" /><path d="M 102.52436894288641 79.15227682838746 l 1.3056318827444855 -10.782675857343236 a31.86143513803639,31.86143513803639 0 0,0 0.5438978678851727,0.07061355322482425 l -1.4910444791375044 10.758603980954275" fill="#ff3e05" stroke="none" /><path d="M 102.88285421437855 79.19881850522331 l 1.9197709474507174 -13.852071917875314 a34.98447056232969,34.98447056232969 0 0,0 0.5957872322080784,0.08780355082585634 l -2.1579271600874517 13.816973882888488" fill="#ff6e0a" stroke="none" /><path d="M 103.2404852339499 79.25152402106235 l 6.089910946837082 -38.99304019981595 a60.4657344967108,60.4657344967108 0 0,0 1.0269695963970402,0.1694587828205659 l -6.760209749372997 38.88243515405576" fill="#44ff2d" stroke="none" /><path d="M 103.59715602781102 79.31037775812273 l 1.206840847292633 -6.941339503626164 a28.045470810052024,28.045470810052024 0 0,0 0.47490982147717514,0.08678673432776876 l -1.326145789872709 6.919537287947657" fill="#ff0200" stroke="none" /><path d="M 103.95276090670814 79.375362276772 l 1.676498950308191 -8.747603082897939 a29.90680685915609,29.90680685915609 0 0,0 0.5047608064982808,0.10125026924042899 l -1.8268261662735972 8.717448857580303" fill="#ff2003" stroke="none" /><path d="M 104.307194497241 79.44645832069477 l 1.4202325066512986 -6.77722077293234 a27.924433679227107,27.924433679227107 0 0,0 0.4696055679862534,0.1026375882549238 l -1.53668079879108 6.751769686581546" fill="#ff0000" stroke="none" /><path d="M 104.66035177308747 79.52364482259891 l 1.9414391039519678 -8.53017080757385 a29.748314111915445,29.748314111915445 0 0,0 0.4983215360652546,0.11793660746354502 l -2.087984326979746 8.495488287969437" fill="#ff1d03" stroke="none" /><path d="M 105.01212808612495 79.60689891045804 l 1.7324682641699143 -7.048981957074344 a28.258759736863837,28.258759736863837 0 0,0 0.47137106440994775,0.12016297983265585 l -1.8535482172648872 7.01811598107282" fill="#ff0500" stroke="none" /><path d="M 105.36241919743992 79.69619591428918 l 4.843224961968436 -18.33797156659777 a39.96676116814841,39.96676116814841 0 0,0 0.6636425704869132,0.1813985837574089 l -5.15816542167906 18.251886442014065" fill="#ffb711" stroke="none" /><path d="M 105.71112130821622 79.79150937346287 l 14.21459438892336 -50.29756539321433 a73.26757865184003,73.26757865184003 0 0,0 1.210693643614604,0.35343467397674855 l -15.078278250261391 50.04543239031888" fill="#3effb8" stroke="none" /><path d="M 106.0581310904928 79.89281104454417 l 2.0207888321120806 -6.707082147845587 a28.00489389226831,28.00489389226831 0 0,0 0.4603666193950137,0.14303814959590583 l -2.1359408242178124 6.671303863367161" fill="#ff0100" stroke="none" /><path d="M 106.40334571778207 80.00007090966166 l 3.3748034222825565 -10.540712951363318 a32.06778783958603,32.06778783958603 0 0,0 0.5242582103816953,0.17283968937179506 l -3.5557444549066695 10.481059537732285" fill="#ff4206" stroke="none" /><path d="M 106.74666289553966 80.11325718540242 l 8.37755365587621 -24.694023927006317 a47.07639206187553,47.07639206187553 0 0,0 0.7651437997376652,0.2669436477361335 l -8.801379459677149 24.546159426097976" fill="#e6ff1a" stroke="none" /><path d="M 107.08798089147638 80.2323363322302 l 2.3830411767693067 -6.64606143979176 a28.060383694365694,28.060383694365694 0 0,0 0.4532656235586595,0.16694155442260664 l -2.497089126100543 6.604056617562828" fill="#ff0200" stroke="none" /><path d="M 107.4271985657038 80.35727306442388 l 2.6067461493215807 -6.894066766698361 a28.37043296358482,28.37043296358482 0 0,0 0.45530064404649867,0.17664957637013579 l -2.725029958367746 6.848174486437679" fill="#ff0701" stroke="none" /><path d="M 107.76421540070413 80.48803036053334 l 6.487140770456474 -16.302599455009176 a38.545875423192314,38.545875423192314 0 0,0 0.6143774411894766,0.25061998436003946 l -6.766802081234339 16.188518584465555" fill="#ffa30f" stroke="none" /><path d="M 108.09893153111575 80.62456947434976 l 23.770211343153147 -56.86652328024291 a82.63460405714127,82.63460405714127 0 0,0 1.3076581474644933,0.5598709748503782 l -24.745553248407955 56.44893277742975" fill="#4be0ff" stroke="none" /><path d="M 108.43124777332544 80.76684994638697 l 2.803747848895118 -6.395838971889877 a27.983391593955574,27.983391593955574 0 0,0 0.43949633017299705,0.19718919233809634 l -2.9134262975348952 6.34662944903525" fill="#ff0100" stroke="none" /><path d="M 108.76106565485865 80.91482961587045 l 5.520259909110492 -12.025375117652063 a34.23189012138394,34.23189012138394 0 0,0 0.5334009674340416,0.25043890633639687 l -5.726439087844132 11.928571228675663" fill="#ff6309" stroke="none" /><path d="M 109.08828744355905 81.06846463323043 l 3.8391891968643375 -7.9972983371764945 a29.871085299055903,29.871085299055903 0 0,0 0.46162026024409186,0.22651505690699675 l -3.976280724118861 7.930028120134666" fill="#ff1f03" stroke="none" /><path d="M 109.41281617654863 81.2277094730956 l 7.971371017322454 -15.897568785815922 a38.78413476094795,38.78413476094795 0 0,0 0.5942089812990186,0.3043769194234046 l -8.243840486210228 15.757999341080017" fill="#ffa60f" stroke="none" /><path d="M 109.73455568895987 81.39251694778311 l 9.898106727812117 -18.92010884437987 a42.35282265833585,42.35282265833585 0 0,0 0.6430670141961128,0.34350412816252984 l -10.22231878853654 18.74692598971559" fill="#ffd914" stroke="none" /><path d="M 110.05341064243156 81.56283822128135 l 14.507062425362909 -26.60480769993649 a51.30298092538053,51.30298092538053 0 0,0 0.771684563482123,0.4294416240926519 l -14.962871077917066 26.35115067828366" fill="#b0ff20" stroke="none" /><path d="M 110.36928655335952 81.73862282372117 l 31.107859660078564 -54.7841315288365 a84.0,84.0 0 0,0 1.2512130701386868,0.7247833704398019 l -32.04626946268258 54.24054400100664" fill="#4dd2ff" stroke="none" /><line stroke="#e1ed5e" stroke-width="0.3" x1="143.23703022742887" x2="145.7803849466894" y1="26.81831364943548" y2="22.513508569990506" /><path d="M 143.74570117128098 25.957352633546492 a86.0,86.0 0 0,1 28.547481713284135,27.462654790039103" fill="none" id="id122" stroke="none" /><text fill="#e1ed5e" style="font-size:6.75px; font-family:Arial;" text-anchor="middle"><textPath startOffset="19.985693538727396" xlink:href="#id122">February</textPath></text><path d="M 110.68208982089419 81.91981866633111 l 3.7563580174996565 -6.357897681943433 a28.38465222537227,28.38465222537227 0 0,0 0.4185221460092956,0.2521549100943466 l -3.8652422297265896 6.292296162390472" fill="#ff0701" stroke="none" /><path d="M 110.99172775467656 82.1063720568725 l 6.49773848744016 -10.577783362267741 a33.41410916297377,33.41410916297377 0 0,0 0.4874972899084586,0.3052707582175894 l -6.678854929720882 10.46436826272721" fill="#ff5608" stroke="none" /><path d="M 111.2981086023043 82.29822771554956 l 3.7746399002166053 -5.914070958373274 a28.015991852687787,28.015991852687787 0 0,0 0.40427473032015976,0.26295153023346 l -3.875881656321045 5.8482205039802855" fill="#ff0100" stroke="none" /><path d="M 111.60114157652 82.49532879139004 l 3.8540403064040603 -5.8152646395485625 a27.9764553686934,27.9764553686934 0 0,0 0.39912450931454485,0.2694906503425996 l -3.953569510125147 5.748062076907293" fill="#ff0100" stroke="none" /><path d="M 111.90073688211348 82.69761687909136 l 7.420313027181097 -10.78833186088859 a34.0938592386667,34.0938592386667 0 0,0 0.4806728596184507,0.33674205594153817 l -7.604917026383198 10.659004962183115" fill="#ff6108" stroke="none" /><line stroke="#e1ed5e" stroke-width="0.3" x1="172.23445277983987" x2="176.4835382374775" y1="55.19839476539836" y2="52.563006222186495" /><path d="M 173.08426987136738 54.67131705675599 a86.0,86.0 0 0,1 12.851231095245387,41.99856678651699" fill="none" id="id123" stroke="none" /><text fill="#e1ed5e" style="font-size:6.75px; font-family:Arial;" text-anchor="middle"><textPath startOffset="22.20632615414155" xlink:href="#id123">March</textPath></text><line stroke="#e1ed5e" stroke-width="0.3" x1="184.98032266829074" x2="189.97916517819016" y1="98.17113171792111" y2="98.06355123074" /><path d="M 185.9800911702706 98.14961562048488 a86.0,86.0 0 0,1 -9.607161424134198,41.387399972396054" fill="none" id="id124" stroke="none" /><text fill="#e1ed5e" style="font-size:6.75px; font-family:Arial;" text-anchor="middle"><textPath startOffset="21.466115282336823" xlink:href="#id124">April</textPath></text><line stroke="#e1ed5e" stroke-width="0.3" x1="174.80103733775053" x2="179.2010983576182" y1="140.37084112569926" y2="142.7455964860345" /><path d="M 175.68104954172406 140.8457921977663 a86.0,86.0 0 0,1 -30.038265399797805,32.042727171017184" fill="none" id="id125" stroke="none" /><text fill="#e1ed5e" style="font-size:6.75px; font-family:Arial;" text-anchor="middle"><textPath startOffset="22.206326154141568" xlink:href="#id125">May</textPath></text><line stroke="#e1ed5e" stroke-width="0.3" x1="143.8653032363475" x2="146.44561519142675" y1="172.8068346515853" y2="177.08958963109032" /><path d="M 144.38136562736335 173.6633856474863 a86.0,86.0 0 0,1 -40.68145358897372,12.25698825130547" fill="none" id="id126" stroke="none" /><text fill="#e1ed5e" style="font-size:6.75px; font-family:Arial;" text-anchor="middle"><textPath startOffset="21.466115282336833" xlink:href="#id126">June</textPath></text><line stroke="#e1ed5e" stroke-width="0.3" x1="102.19456741930631" x2="102.32365962044197" y1="184.97166512339345" y2="189.96999836594603" /><path d="M 102.22038585953345 185.97133177190398 a86.0,86.0 0 0,1 -42.740103519485714,-10.115201625700543" fill="none" id="id127" stroke="none" /><text fill="#e1ed5e" style="font-size:6.75px; font-family:Arial;" text-anchor="middle"><textPath startOffset="22.20632615414155" xlink:href="#id127">July</textPath></text><line stroke="#e1ed5e" stroke-width="0.3" x1="58.666819895761336" x2="56.23545636021788" y1="174.27360380694188" y2="178.64263932499728" /><path d="M 58.180547188652646 175.14741091055294 a86.0,86.0 0 0,1 -31.652253787137756,-30.449443065178592" fill="none" id="id128" stroke="none" /><text fill="#e1ed5e" style="font-size:6.75px; font-family:Arial;" text-anchor="middle"><textPath startOffset="22.20632615414155" xlink:href="#id128">August</textPath></text><line stroke="#e1ed5e" stroke-width="0.3" x1="26.63291911575756" x2="22.317208475507996" y1="142.92168965132927" y2="145.44649492493687" /><path d="M 25.769776987707644 143.4266507060508 a86.0,86.0 0 0,1 -11.730757126820373,-40.83630448921669" fill="none" id="id129" stroke="none" /><text fill="#e1ed5e" style="font-size:6.75px; font-family:Arial;" text-anchor="middle"><textPath startOffset="21.46611528233685" xlink:href="#id129">September</textPath></text><line stroke="#e1ed5e" stroke-width="0.3" x1="15.007084014347285" x2="10.007500721073583" y1="101.09737516637583" y2="101.16192664675087" /><path d="M 14.007167355692545 101.11028546245083 a86.0,86.0 0 0,1 10.666146001902534,-42.60595125391555" fill="none" id="id130" stroke="none" /><text fill="#e1ed5e" style="font-size:6.75px; font-family:Arial;" text-anchor="middle"><textPath startOffset="22.20632615414155" xlink:href="#id130">October</textPath></text><line stroke="#e1ed5e" stroke-width="0.3" x1="26.266209847984243" x2="21.928928074336255" y1="57.711370442889674" y2="55.22380399835377" /><path d="M 25.398753493254645 57.213857153982495 a86.0,86.0 0 0,1 29.58750427330803,-30.492523968695096" fill="none" id="id131" stroke="none" /><text fill="#e1ed5e" style="font-size:6.75px; font-family:Arial;" text-anchor="middle"><textPath startOffset="21.46611528233685" xlink:href="#id131">November</textPath></text><line stroke="#e1ed5e" stroke-width="0.3" x1="56.762969772571076" x2="54.21961505331055" y1="26.818313649435495" y2="22.513508569990535" /><path d="M 56.25429882871897 25.957352633546506 a86.0,86.0 0 0,1 42.265352541879196,-11.944610805530505" fill="none" id="id132" stroke="none" /><text fill="#e1ed5e" style="font-size:6.75px; font-family:Arial;" text-anchor="middle"><textPath startOffset="22.20632615414155" xlink:href="#id132">December</textPath></text></svg>