<?xml version="1.0" encoding="utf-8" ?>
<svg baseProfile="full" height="200mm" version="1.1" viewBox="0,0,200,200" width="200mm" xmlns="http://www.w3.org/2000/svg" xmlns:ev="http://www.w3.org/2001/xml-events" xmlns:xlink="http://www.w3.org/1999/xlink"><defs /><rect fill="#1a1a1a" height="200" width="200" x="0" y="0" /><text alignment-baseline="middle" fill="#e1ed5e" style="dominant-baseline: central; font-size:9.0px; font-family:Arial;" text-anchor="middle" x="100.0" y="100.0">2021</text><line stroke="#e1ed5e" stroke-width="0.3" x1="100.0" x2="100.0" y1="15.0" y2="10.0" /><path d="M 100.0 14.0 a86.0,86.0 0 0,1 42.46469731375804,11.215312516191453" fill="none" id="id121" stroke="none" /><text fill="#e1ed5e" style="font-size:6.75px; font-family:Arial;" text-anchor="middle"><textPath startOffset="22.20632615414155" xlink:href="#id121">January</textPath></text><path d="M 100.0 79.0 l 0.0 -7.689876665209706 a28.689876665209706,28.689876665209706 0 0,0 0.49384906510522536,0.0042507148170748766 l -0.13236858583269698 7.68873732700119" fill="#ff1b02" stroke="none" /><path d="M 100.36148047927253 79.00311137660856 l 0.10366090405394143 -6.02122820408158 a27.022120446209687,27.022120446209687 0 0,0 0.4650035518960169,0.012009669851365163 l -0.20729109114482613 6.018551742087855" fill="#ff0100" stroke="none" /><path d="M 100.72285384407766 79.0124445844662 l 1.1623652183921687 -33.74846054145596 a54.768471712814275,54.768471712814275 0 0,0 0.9419112216718307,0.04056067856807575 l -1.7431172724533308 33.72345213636369" fill="#80ff26" stroke="none" /><path d="M 101.08401301168833 79.027996857942 l 0.31339370112340237 -6.063113277971311 a27.07120731266985,27.07120731266985 0 0,0 0.46515804676866207,0.028059603672610803 l -0.41771379673167636 6.056820404918397" fill="#ff0200" stroke="none" /><path d="M 101.44485096284872 79.0497635885617 l 0.41561328365404704 -6.026363114378971 a27.04067767621292,27.04067767621292 0 0,0 0.46408216765704124,0.03602170801134747 l -0.5192856406734294 6.018316144179159" fill="#ff0100" stroke="none" /><path d="M 101.80526077348638 79.07773832637324 l 0.5166611666198822 -5.987899523095703 a27.01014803975599,27.01014803975599 0 0,0 0.46287017109908934,0.04395510008681369 l -0.6196564648092157 5.978118878493711" fill="#ff0100" stroke="none" /><path d="M 102.16513564639614 79.11191278185805 l 0.7086857925469938 -6.837026894651796 a27.8736578552289,27.8736578552289 0 0,0 0.47681647602742466,0.05357588679109582 l -0.8262689720841437 6.823815054390099" fill="#ff0e01" stroke="none" /><path d="M 102.52436894288641 79.15227682838746 l 1.12680564631967 -9.305823639163474 a30.373795632922217,30.373795632922217 0 0,0 0.5185027797007294,0.06731654193457247 l -1.2868231545282456 9.285048774064766" fill="#ff3505" stroke="none" /><path d="M 102.88285421437855 79.19881850522331 l 1.6568289820564037 -11.954819008768554 a33.0690836358108,33.0690836358108 0 0,0 0.5631680998554796,0.08299633863568898 l -1.8623660623405391 11.924528185971896" fill="#ff5e08" stroke="none" /><path d="M 103.2404852339499 79.25152402106235 l 5.255804588698856 -33.65234752996697 a55.06029912012315,55.06029912012315 0 0,0 0.9351619332097769,0.15430973175625443 l -5.8342957280475085 33.556891535271085" fill="#7cff26" stroke="none" /><path d="M 103.59715602781102 79.31037775812273 l 1.0415455527020732 -5.990616994789201 a27.08048592767146,27.08048592767146 0 0,0 0.4585691866087718,0.08380058775227757 l -1.1445098604137458 5.9718009256861855" fill="#ff0200" stroke="none" /><path d="M 103.95276090670814 79.375362276772 l 1.4468768021238405 -7.549485177133774 a28.686883563596282,28.686883563596282 0 0,0 0.4841711972687589,0.0971201873259739 l -1.5766144088597247 7.523461033730592" fill="#ff1b02" stroke="none" /><path d="M 104.307194497241 79.44645832069477 l 1.2257099636824726 -5.848976832001596 a26.976026681362953,26.976026681362953 0 0,0 0.45365619504532795,0.09915167308604136 l -1.3262088828813285 5.827011660819684" fill="#ff0000" stroke="none" /><path d="M 104.66035177308747 79.52364482259891 l 1.6755293534349154 -7.361833574285113 a28.550098819862793,28.550098819862793 0 0,0 0.4782499285574734,0.11318630645408283 l -1.8020029689549122 7.331901355690161" fill="#ff1902" stroke="none" /><path d="M 105.01212808612495 79.60689891045804 l 1.4951802632398934 -6.083516169458674 a27.264561676897056,27.264561676897056 0 0,0 0.4547873147293308,0.11593541278647691 l -1.5996764666542491 6.05687776050333" fill="#ff0500" stroke="none" /><path d="M 105.36241919743992 79.69619591428918 l 4.179871298846356 -15.826306155956358 a37.36897341365614,37.36897341365614 0 0,0 0.6205066622326156,0.16960791056313493 l -4.451675850302682 15.752011704566929" fill="#ff9d0e" stroke="none" /><path d="M 105.71112130821622 79.79150937346287 l 12.267688488055494 -43.408545264743864 a66.10873510575625,66.10873510575625 0 0,0 1.0923989416965765,0.31890120663256566 l -13.013077647475498 43.1909457291926" fill="#35ff64" stroke="none" /><path d="M 106.0581310904928 79.89281104454417 l 1.7440109238579657 -5.78844476334016 a27.045466638794398,27.045466638794398 0 0,0 0.44459479455124346,0.138137766843637 l -1.8433910911199274 5.757566861614003" fill="#ff0100" stroke="none" /><path d="M 106.40334571778207 80.00007090966166 l 2.9125725265328364 -9.09700125035586 a30.551885178920962,30.551885178920962 0 0,0 0.4994755711809933,0.16466924286959536 l -3.068730919956247 9.045518283227027" fill="#ff3805" stroke="none" /><path d="M 106.74666289553966 80.11325718540242 l 7.23011967350579 -21.3118000249916 a43.504831721175954,43.504831721175954 0 0,0 0.7070943798398237,0.2466913449640151 l -7.595896057408887 21.18418782685538" fill="#fff216" stroke="none" /><path d="M 107.08798089147638 80.2323363322302 l 2.056647274690847 -5.735781773652019 a27.093356264609184,27.093356264609184 0 0,0 0.4376450142426535,0.16118835218377678 l -2.155074614706077 5.699530153661918" fill="#ff0200" stroke="none" /><path d="M 107.4271985657038 80.35727306442388 l 2.2497124330353446 -5.949818981512087 a27.360939548849316,27.360939548849316 0 0,0 0.4390998690185064,0.17036392735341613 l -2.351795467053518 5.910212350268124" fill="#ff0601" stroke="none" /><path d="M 107.76421540070413 80.48803036053334 l 5.598627718293412 -14.069709355579004 a36.142699682636206,36.142699682636206 0 0,0 0.576073551447667,0.2349948659809608 l -5.839985139329467 13.971253603414464" fill="#ff8b0c" stroke="none" /><path d="M 108.09893153111575 80.62456947434976 l 20.514517690373072 -49.07778399532757 a74.19280325345395,74.19280325345395 0 0,0 1.1740701702947756,0.5026755746983436 l -21.356271618458162 48.717388892666435" fill="#40ffc4" stroke="none" /><path d="M 108.43124777332544 80.76684994638697 l 2.419731739662125 -5.519831096133938 a27.026909408791166,27.026909408791166 0 0,0 0.4244741907427499,0.1904491962605985 l -2.514388048871655 5.477361569356808" fill="#ff0100" stroke="none" /><path d="M 108.76106565485865 80.91482961587045 l 4.764175964868904 -10.378316247301862 a32.41958058569772,32.41958058569772 0 0,0 0.5051615784842303,0.23718013457559495 l -4.942115754652733 10.294771130086264" fill="#ff5407" stroke="none" /><path d="M 109.08828744355905 81.06846463323043 l 3.3133535734611232 -6.901946131011363 a28.65605461697801,28.65605461697801 0 0,0 0.4428434808251305,0.2173013727927701 l -3.4316683212966854 6.843889598083761" fill="#ff1a02" stroke="none" /><path d="M 109.41281617654863 81.2277094730956 l 6.879569953781334 -13.720153825409016 a36.34832576347846,36.34832576347846 0 0,0 0.556890124195554,0.2852607513427362 l -7.114720565565643 13.599700548753779" fill="#ff8e0d" stroke="none" /><path d="M 109.73455568895987 81.39251694778311 l 8.542409768156771 -16.328710838476205 a39.428227323692056,39.428227323692056 0 0,0 0.5986612185127144,0.3197840899785508 l -8.822216033197796 16.1792480219959" fill="#ffba11" stroke="none" /><path d="M 110.05341064243156 81.56283822128135 l 12.520098557986826 -22.960872763402264 a47.15252465745615,47.15252465745615 0 0,0 0.7092546037489185,0.3946994190926068 l -12.913477250807778 22.74195794674948" fill="#ddff1b" stroke="none" /><path d="M 110.36928655335952 81.73862282372117 l 26.847162950873088 -47.28060761326653 a75.37118735865909,75.37118735865909 0 0,0 1.1226835087503098,0.6503307524745086 l -27.657043192088725 46.811472703401975" fill="#41ffd2" stroke="none" /><line stroke="#e1ed5e" stroke-width="0.3" x1="143.23703022742887" x2="145.7803849466894" y1="26.81831364943548" y2="22.513508569990506" /><path d="M 143.74570117128098 25.957352633546492 a86.0,86.0 0 0,1 28.547481713284135,27.462654790039103" fill="none" id="id122" stroke="none" /><text fill="#e1ed5e" style="font-size:6.75px; font-family:Arial;" text-anchor="middle"><textPath startOffset="19.985693538727396" xlink:href="#id122">February</textPath></text><path d="M 110.68208982089419 81.91981866633111 l 3.2418673897726205 -5.4870864455893775 a27.37321126546436,27.37321126546436 0 0,0 0.4036087893917368,0.2431697795989535 l -3.335838245381995 5.43047005653181" fill="#ff0601" stroke="none" /><path d="M 110.99172775467656 82.1063720568725 l 5.60777391600284 -9.128994302050256 a31.713807225252275,31.713807225252275 0 0,0 0.4626906256750207,0.28973682735037837 l -5.764083694050124 9.031113133376932" fill="#ff4a06" stroke="none" /><path d="M 111.2981086023043 82.29822771554956 l 3.257645289303926 -5.104048573493935 a27.055044563957356,27.055044563957356 0 0,0 0.3904081248454686,0.2539323043079956 l -3.3450204399336747 5.047217345026411" fill="#ff0100" stroke="none" /><path d="M 111.60114157652 82.49532879139004 l 3.326170596624111 -5.018775289794919 a27.020923205564316,27.020923205564316 0 0,0 0.38549246405659077,0.2602862325322902 l -3.4120677550872434 4.960777144963959" fill="#ff0100" stroke="none" /><path d="M 111.90073688211348 82.69761687909136 l 6.403987775567655 -9.310704966599443 a32.30045514148344,32.30045514148344 0 0,0 0.4553885211746859,0.3190287610460587 l -6.563307436325992 9.199091362789448" fill="#ff5207" stroke="none" /><path d="M 112.19680574252982 82.90503203632743 l 8.256503421753488 -11.572264449097727 a35.2157361129587,35.2157361129587 0 0,0 0.4904289030611331,0.3563174550369296 l -8.454477641168408 11.428427759244123" fill="#ff7e0b" stroke="none" /><path d="M 112.48926042617603 83.11751280151076 l 37.46778127852809 -50.647461595467746 a84.0,84.0 0 0,0 1.1550153849664682,0.8699336419766106 l -38.33404281725294 49.995011363985284" fill="#4dd2ff" stroke="none" /><path d="M 112.77801427241765 83.33499621200491 l 3.945701514774447 -5.145958463354654 a27.48455464548374,27.48455464548374 0 0,0 0.3729620623764053,0.2911028055109911 l -4.033696132310283 5.077277268620438" fill="#ff0801" stroke="none" /><path d="M 113.06298171725822 83.55741782278167 l 10.336986349682297 -13.011328592375113 a37.617700157731704,37.617700157731704 0 0,0 0.5035336984837328,0.40715589908564787 l -10.559423446730522 12.831466596025336" fill="#ffa00e" stroke="none" /><path d="M 113.34407831869373 83.78471172551755 l 4.10147634417766 -4.983980135866108 a27.4546236293495,27.4546236293495 0 0,0 0.3623258102142065,0.30343744612191986 l -4.186659691350983 4.912641532350369" fill="#ff0801" stroke="none" /><path d="M 113.6212207817346 84.01681056812373 l 3.8886526138539392 -4.5629589563170825 a26.99518253168887,26.99518253168887 0 0,0 0.3510738931460369,0.3044478205966528 l -3.96662030564674 4.495346142300758" fill="#ff0000" stroke="none" /><path d="M 113.89432698308785 84.25364557470407 l 9.909025473472086 -11.229836990629206 a35.976582543091155,35.976582543091155 0 0,0 0.46082406704463974,0.41373239739284307 l -10.100860528112715 11.057605584467066" fill="#ff890c" stroke="none" /><path d="M 114.16331599549186 84.49514656593476 l 5.792799202884318 -6.3414882956985235 a29.589004389882366,29.589004389882366 0 0,0 0.373092147085739,0.34674848966511335 l -5.901099233764903 6.24083521995877" fill="#ff2904" stroke="none" /><path d="M 116.15771136456269 86.58626213691792 l 13.839728751326843 -11.489405236784462 a38.987343456034665,38.987343456034665 0 0,0 0.42422222712566066,0.5200462898553012 l -14.035449470528913 11.24947477732106" fill="#ffb410" stroke="none" /><path d="M 116.38621287248628 86.86637796730983 l 15.394713247127658 -12.338930701242926 a40.729328595047605,40.729328595047605 0 0,0 0.4337594352585701,0.5508304338180728 l -15.604826762980192 12.072107873471815" fill="#ffcc13" stroke="none" /><path d="M 117.2510076193507 88.02491185347247 l 27.04811190183452 -18.77591914447256 a53.92621291879668,53.92621291879668 0 0,0 0.5227646480669375,0.7670926152687566 l -27.36730101557019 18.307548505933397" fill="#8aff24" stroke="none" /><path d="M 117.45458315368197 88.32363383020206 l 35.711308906542804 -23.889331273293713 a63.96507573022178,63.96507573022178 0 0,0 0.6043279164029114,0.920432877236815 l -36.11723345830364 23.271080332079222" fill="#32ff48" stroke="none" /><line stroke="#e1ed5e" stroke-width="0.3" x1="172.23445277983987" x2="176.4835382374775" y1="55.19839476539836" y2="52.563006222186495" /><path d="M 173.08426987136738 54.67131705675599 a86.0,86.0 0 0,1 12.851231095245387,41.99856678651699" fill="none" id="id123" stroke="none" /><text fill="#e1ed5e" style="font-size:6.75px; font-family:Arial;" text-anchor="middle"><textPath startOffset="22.20632615414155" xlink:href="#id123">March</textPath></text><path d="M 118.03404312379186 89.2402003453031 l 26.19718850616008 -15.630244305601012 a51.505691644020445,51.505691644020445 0 0,0 0.4477078913966874,0.7652779130422058 l -26.462356072027095 15.17698698020491" fill="#a6ff21" stroke="none" /><path d="M 119.04729006885535 91.15688171328212 l 8.161185183433366 -3.7890075530963814 a29.997862070276124,29.997862070276124 0 0,0 0.21341005187392134,0.4702207607298273 l -8.225197552270634 3.647964783524491" fill="#ff2f04" stroke="none" /><path d="M 119.47837535516314 92.15188598940014 l 19.436361793983924 -7.831186150236059 a41.95470439558351,41.95470439558351 0 0,0 0.2641277397096531,0.6721762877712991 l -19.568283083575277 7.495460857568975" fill="#ffdd14" stroke="none" /><path d="M 119.85752413597 93.16781622104841 l 56.09332632454763 -19.299481224238317 a80.32058018661749,80.32058018661749 0 0,0 0.43856071857233847,1.3112407274694067 l -56.41722433689174 18.331067393846595" fill="#48f7ff" stroke="none" /><path d="M 120.87857604477298 97.74499172005257 l 43.40435393766507 -4.687923989898123 a64.65678151308413,64.65678151308413 0 0,0 0.10998695618016689,1.1075536388644518 l -43.47861801952747 3.940094820329236" fill="#33ff51" stroke="none" /><path d="M 120.96714384426684 98.82574320788733 l 10.275976438526824 -0.5755020911839316 a31.292079207920793,31.292079207920793 0 0,0 0.025490217434245354,0.5380582025073123 l -10.284360264194564 0.39853278205361964" fill="#ff4306" stroke="none" /><line stroke="#e1ed5e" stroke-width="0.3" x1="184.98032266829074" x2="189.97916517819016" y1="98.17113171792111" y2="98.06355123074" /><path d="M 185.9800911702706 98.14961562048488 a86.0,86.0 0 0,1 -9.607161424134198,41.387399972396054" fill="none" id="id124" stroke="none" /><text fill="#e1ed5e" style="font-size:6.75px; font-family:Arial;" text-anchor="middle"><textPath startOffset="21.466115282336823" xlink:href="#id124">April</textPath></text><line stroke="#e1ed5e" stroke-width="0.3" x1="174.80103733775053" x2="179.2010983576182" y1="140.37084112569926" y2="142.7455964860345" /><path d="M 175.68104954172406 140.8457921977663 a86.0,86.0 0 0,1 -30.038265399797805,32.042727171017184" fill="none" id="id125" stroke="none" /><text fill="#e1ed5e" style="font-size:6.75px; font-family:Arial;" text-anchor="middle"><textPath startOffset="22.206326154141568" xlink:href="#id125">May</textPath></text><line stroke="#e1ed5e" stroke-width="0.3" x1="143.8653032363475" x2="146.44561519142675" y1="172.8068346515853" y2="177.08958963109032" /><path d="M 144.38136562736335 173.6633856474863 a86.0,86.0 0 0,1 -40.68145358897372,12.25698825130547" fill="none" id="id126" stroke="none" /><text fill="#e1ed5e" style="font-size:6.75px; font-family:Arial;" text-anchor="middle"><textPath startOffset="21.466115282336833" xlink:href="#id126">June</textPath></text><line stroke="#e1ed5e" stroke-width="0.3" x1="102.19456741930631" x2="102.32365962044197" y1="184.97166512339345" y2="189.96999836594603" /><path d="M 102.22038585953345 185.97133177190398 a86.0,86.0 0 0,1 -42.740103519485714,-10.115201625700543" fill="none" id="id127" stroke="none" /><text fill="#e1ed5e" style="font-size:6.75px; font-family:Arial;" text-anchor="middle"><textPath startOffset="22.20632615414155" xlink:href="#id127">July</textPath></text><line stroke="#e1ed5e" stroke-width="0.3" x1="58.666819895761336" x2="56.23545636021788" y1="174.27360380694188" y2="178.64263932499728" /><path d="M 58.180547188652646 175.14741091055294 a86.0,86.0 0 0,1 -31.652253787137756,-30.449443065178592" fill="none" id="id128" stroke="none" /><text fill="#e1ed5e" style="font-size:6.75px; font-family:Arial;" text-anchor="middle"><textPath startOffset="22.20632615414155" xlink:href="#id128">August</textPath></text><line stroke="#e1ed5e" stroke-width="0.3" x1="26.63291911575756" x2="22.317208475507996" y1="142.92168965132927" y2="145.44649492493687" /><path d="M 25.769776987707644 143.4266507060508 a86.0,86.0 0 0,1 -11.730757126820373,-40.83630448921669" fill="none" id="id129" stroke="none" /><text fill="#e1ed5e" style="font-size:6.75px; font-family:Arial;" text-anchor="middle"><textPath startOffset="21.46611528233685" xlink:href="#id129">September</textPath></text><line stroke="#e1ed5e" stroke-width="0.3" x1="15.007084014347285" x2="10.007500721073583" y1="101.09737516637583" y2="101.16192664675087" /><path d="M 14.007167355692545 101.11028546245083 a86.0,86.0 0 0,1 10.666146001902534,-42.60595125391555" fill="none" id="id130" stroke="none" /><text fill="#e1ed5e" style="font-size:6.75px; font-family:Arial;" text-anchor="middle"><textPath startOffset="22.20632615414155" xlink:href="#id130">October</textPath></text><line stroke="#e1ed5e" stroke-width="0.3" x1="26.266209847984243" x2="21.928928074336255" y1="57.711370442889674" y2="55.22380399835377" /><path d="M 25.398753493254645 57.213857153982495 a86.0,86.0 0 0,1 29.58750427330803,-30.492523968695096" fill="none" id="id131" stroke="none" /><text fill="#e1ed5e" style="font-size:6.75px; font-family:Arial;" text-anchor="middle"><textPath startOffset="21.46611528233685" xlink:href="#id131">November</textPath></text><line stroke="#e1ed5e" stroke-width="0.3" x1="56.762969772571076" x2="54.21961505331055" y1="26.818313649435495" y2="22.513508569990535" /><path d="M 56.25429882871897 25.957352633546506 a86.0,86.0 0 0,1 42.265352541879196,-11.944610805530505" fill="none" id="id132" stroke="none" /><text fill="#e1ed5e" style="font-size:6.75px; font-family:Arial;" text-anchor="middle"><textPath startOffset="22.20632615414155" xlink:href="#id132">December</textPath></text></svg>