<?xml version="1.0" encoding="utf-8" ?>
<svg baseProfile="full" height="200mm" version="1.1" viewBox="0,0,200,200" width="200mm" xmlns="http://www.w3.org/2000/svg" xmlns:ev="http://www.w3.org/2001/xml-events" xmlns:xlink="http://www.w3.org/1999/xlink"><defs /><rect fill="#1a1a1a" height="200" width="200" x="0" y="0" /><text alignment-baseline="middle" fill="#e1ed5e" style="dominant-baseline: central; font-size:9.0px; font-family:Arial;" text-anchor="middle" x="100.0" y="100.0">2016</text><line stroke="#e1ed5e" stroke-width="0.3" x1="100.0" x2="100.0" y1="15.0" y2="10.0" /><path d="M 100.0 14.0 a86.0,86.0 0 0,1 42.35913384403234,11.155469271406648" fill="none" id="id61" stroke="none" /><text fill="#e1ed5e" style="font-size:6.75px; font-family:Arial;" text-anchor="middle"><textPath startOffset="22.145653131862478" xlink:href="#id61">January</textPath></text><line stroke="#e1ed5e" stroke-width="0.3" x1="143.13028292997686" x2="145.6673583964461" y1="26.7553504044142" y2="22.446841604673864" /><path d="M 143.63769802327073 25.89364864446614 a86.0,86.0 0 0,1 29.32050498858742,28.57503671076993" fill="none" id="id62" stroke="none" /><text fill="#e1ed5e" style="font-size:6.75px; font-family:Arial;" text-anchor="middle"><textPath startOffset="20.669276256404974" xlink:href="#id62">February</textPath></text><line stroke="#e1ed5e" stroke-width="0.3" x1="172.87174338648825" x2="177.1583165268699" y1="56.24261187166439" y2="53.66864786411523" /><path d="M 173.72905801456457 55.72781907015455 a86.0,86.0 0 0,1 12.242430191666344,42.057860355516425" fill="none" id="id63" stroke="none" /><text fill="#e1ed5e" style="font-size:6.75px; font-family:Arial;" text-anchor="middle"><textPath startOffset="22.145653131862474" xlink:href="#id63">March</textPath></text><line stroke="#e1ed5e" stroke-width="0.3" x1="184.99686870605535" x2="189.99668451229388" y1="99.2704041080226" y2="99.22748670261217" /><path d="M 185.99683186730306 99.26182062694052 a86.0,86.0 0 0,1 -10.086455211305974,41.156179273409016" fill="none" id="id64" stroke="none" /><text fill="#e1ed5e" style="font-size:6.75px; font-family:Arial;" text-anchor="middle"><textPath startOffset="21.40746469413373" xlink:href="#id64">April</textPath></text><path d="M 120.51834098615036 104.47187691870673 l 4.581169245414146 0.9984445147434051 a25.688710174893476,25.688710174893476 0 0,0 -0.09760381202617234,0.430060404899237 l -4.56335457183031 -1.076939253581659" fill="#ff1101" stroke="none" /><path d="M 120.43855184770803 104.8234425847677 l 38.224661146770465 9.020915950281672 a60.2746947075018,60.2746947075018 0 0,0 -0.24630098292027905,1.0049920607312743 l -38.06417263733389 -9.675763835621046" fill="#38ff2e" stroke="none" /><path d="M 120.35273937422433 105.17358676015961 l 7.622948238644412 1.9377236329562038 a28.865374290316318,28.865374290316318 0 0,0 -0.12619738096951102,0.4791920107704918 l -7.58856137687017 -2.0682961480994986" fill="#ff4006" stroke="none" /><path d="M 120.05942366710727 106.21446072829308 l 3.5393119438228147 1.0964878874427477 a24.70526850889318,24.70526850889318 0 0,0 -0.12897948260817807,0.4040263922344294 l -3.519967745437382 -1.1570833133685607" fill="#ff0200" stroke="none" /><path d="M 119.94978838288452 106.5578916946017 l 6.996521301919672 2.299895520512219 a28.364837386764755,28.364837386764755 0 0,0 -0.15602629680478816,0.46126402244728065 l -6.956009583542518 -2.41966121743366" fill="#ff3805" stroke="none" /><line stroke="#e1ed5e" stroke-width="0.3" x1="174.33088141563837" x2="178.70328620479359" y1="141.23008692659167" y2="143.65538615756765" /><path d="M 175.20536237346943 141.71514677278685 a86.0,86.0 0 0,1 -30.301960400862466,31.631185727798858" fill="none" id="id65" stroke="none" /><text fill="#e1ed5e" style="font-size:6.75px; font-family:Arial;" text-anchor="middle"><textPath startOffset="22.145653131862474" xlink:href="#id65">May</textPath></text><path d="M 118.00360718960297 110.81064883170644 l 35.47886396544649 21.30403842069075 a62.38371468716801,62.38371468716801 0 0,0 -0.5591720762094715,0.9133655630752144 l -35.107923924781616 -21.90994109989052" fill="#31ff3f" stroke="none" /><path d="M 117.21940702142032 112.02048342749411 l 4.1423237958004995 2.891663718546989 a26.05178834576589,26.05178834576589 0 0,0 -0.2591345353201727,0.3645051762347598 l -4.092074161950366 -2.9623461214912523" fill="#ff1602" stroke="none" /><path d="M 117.01052211995028 112.31430620078461 l 5.904782276001886 4.2746070040009805 a28.289630907367002,28.289630907367002 0 0,0 -0.28814737703831994,0.3909272572585747 l -5.830532879379739 -4.375340570528433" fill="#ff3705" stroke="none" /><path d="M 116.79662413953412 112.60449989151573 l 3.7312186912962244 2.799976066557932 a25.664960760346816,25.664960760346816 0 0,0 -0.26746313874672706,0.35011783430156546 l -3.6826035751951927 -2.8636148141003748" fill="#ff1001" stroke="none" /><path d="M 116.57777611688842 112.89097897827486 l 32.09410036506506 24.956566563305206 a61.65539930773713,61.65539930773713 0 0,0 -0.6568753598733246,0.8299405587749406 l -31.660958574550175 -25.50382706599483" fill="#30ff36" stroke="none" /><path d="M 114.65682725009322 115.03919595460226 l 5.083988062868611 5.216619627406302 a28.28423331315185,28.28423331315185 0 0,0 -0.3506268641723023,0.33589260437651824 l -4.993688712830997 -5.3031243620884005" fill="#ff3705" stroke="none" /><path d="M 114.39649973595853 115.28858382429668 l 3.131447143243427 3.325488349175032 a25.56780406447412,25.56780406447412 0 0,0 -0.3221180842065522,0.29814768979781564 l -3.0738992877229077 -3.378753785105227" fill="#ff0f01" stroke="none" /><path d="M 113.86319453409587 115.77377054828091 l 17.618763215241607 20.046918307190747 a47.6889443562298,47.6889443562298 0 0,0 -0.6195486956584212,0.5351514073385304 l -17.27203503982033 -20.346413846993993" fill="#c3ff1e" stroke="none" /><path d="M 113.59037401385872 116.0094264158162 l 5.961575550693693 7.02272100854867 a30.211894127189026,30.211894127189026 0 0,0 -0.3982584622852112,0.33224137379137275 l -5.840142754246587 -7.124024566251913" fill="#ff5307" stroke="none" /><path d="M 113.31354834802062 116.24036423190432 l 14.531005190409791 17.725463623905544 a43.9203440752122,43.9203440752122 0 0,0 -0.5871715602308606,0.47298384522809606 l -14.224582859823679 -17.972295762927043" fill="#f2ff19" stroke="none" /><path d="M 113.03279911837588 116.46651593811092 l 3.020847970749104 3.816742727724098 a25.86755046322211,25.86755046322211 0 0,0 -0.3505546484990164,0.27259341498367223 l -2.954883377614857 -3.8680371943285636" fill="#ff1302" stroke="none" /><path d="M 111.8722381534696 117.32195027204791 l 21.726688129700243 31.699887291173944 a59.43087081186671,59.43087081186671 0 0,0 -0.8464759076884188,0.5695467677122524 l -21.179315933914822 -32.06818373294332" fill="#41ff2d" stroke="none" /><path d="M 110.96478420261333 117.91015095944535 l 26.867973737299604 43.88681589326295 a72.45814436993797,72.45814436993797 0 0,0 -1.0664018545419058,0.6403436734384426 l -26.11063912620026 -44.34157356723731" fill="#3effb6" stroke="none" /><line stroke="#e1ed5e" stroke-width="0.3" x1="143.1302829299769" x2="145.66735839644613" y1="173.24464959558577" y2="177.55315839532614" /><path d="M 143.63769802327073 174.10635135553383 a86.0,86.0 0 0,1 -40.68552437913181,11.842963189579606" fill="none" id="id66" stroke="none" /><text fill="#e1ed5e" style="font-size:6.75px; font-family:Arial;" text-anchor="middle"><textPath startOffset="21.407464694133747" xlink:href="#id66">June</textPath></text><path d="M 110.65571695917076 118.09573695890943 l 2.508577239322711 4.260112579738005 a25.943836461462894,25.943836461462894 0 0,0 -0.3857076740888924,0.22268842946372733 l -2.4350770973734197 -4.302547906477903" fill="#ff1402" stroke="none" /><path d="M 110.02825361518725 118.45085714620011 l 1.9740557499732319 3.6320402374178395 a25.133837489576074,25.133837489576074 0 0,0 -0.38085086625649117,0.20278163477123085 l -1.911416067930187 -3.665392339911639" fill="#ff0801" stroke="none" /><path d="M 109.71004243097381 118.62028667847754 l 14.73710440327128 28.260340853324653 a52.87207416123099,52.87207416123099 0 0,0 -0.8083706545100928,0.41275981606180556 l -14.249806527047605 -28.509158621059296" fill="#87ff25" stroke="none" /><path d="M 109.3889696526874 118.78422872680471 l 2.259749387272765 4.521012520648491 a26.05430722306629,26.05430722306629 0 0,0 -0.4017819217508215,0.19653167147717876 l -2.181807216259874 -4.559137942222893" fill="#ff1602" stroke="none" /><path d="M 108.4095320186766 119.2426549942271 l 1.7280373542301672 3.954087641350223 a25.31519665520511,25.31519665520511 0 0,0 -0.3996967274299445,0.17060676550328524 l -1.6599055516297916 -3.9831690565129123" fill="#ff0b01" stroke="none" /><path d="M 107.74402155503746 119.51999308798841 l 1.9986597858435835 5.037928281530769 a26.419904271239105,26.419904271239105 0 0,0 -0.4230049827741078,0.1636274145190294 l -1.9118825405759463 -5.071495584187839" fill="#ff1c02" stroke="none" /><path d="M 105.69591212413111 120.21278271476187 l 13.122707698725142 46.56786017114448 a69.38151566730258,69.38151566730258 0 0,0 -1.1491515038299374,0.31320635241860717 l -12.32137479396051 -46.78626701770723" fill="#3aff93" stroke="none" /><path d="M 104.64783097203109 120.47920084513623 l 1.8589943433638059 8.19107208433675 a29.399376278001803,29.399376278001803 0 0,0 -0.4931221549080028,0.10747367850668271 l -1.7181097718366671 -8.22177722097715" fill="#ff4806" stroke="none" /><path d="M 104.29559338865022 120.5559693870025 l 1.3625194921801278 6.520149007690345 a27.660991101109218,27.660991101109218 0 0,0 -0.4656313127589993,0.09313930331726916 l -1.2503916938901698 -6.542577707670476" fill="#ff2e04" stroke="none" /><path d="M 103.94208987418118 120.62667999033965 l 2.7857032821582104 14.575976698413406 a35.83978569551857,35.83978569551857 0 0,0 -0.6052917687225764,0.1103043235909504 l -2.5350767798845766 -14.62164919593572" fill="#ffa30f" stroke="none" /><path d="M 103.58742460773223 120.69131181640829 l 1.232253858621877 7.1073127978110415 a28.213344909126217,28.213344909126217 0 0,0 -0.47791054753806045,0.07863999873109312 l -1.1100658080307444 -7.127418795037805" fill="#ff3605" stroke="none" /><path d="M 103.2317021107853 120.74984581791261 l 0.6580321259517776 4.225038289006996 a25.275974137241686,25.275974137241686 0 0,0 -0.42930025743159766,0.06309235407616265 l -0.5854067629124945 -4.235711716382041" fill="#ff0a01" stroke="none" /><path d="M 102.875027216393 120.80226474461374 l 2.8488514925274537 20.612870246144972 a41.80880521824558,41.80880521824558 0 0,0 -0.7117892907510227,0.09215537420577127 l -2.4945843798856555 -20.65873721655114" fill="#fff216" stroke="none" /><path d="M 102.51750503828377 120.84855314841334 l 4.838789684785468 40.07211996922842 a61.363209540890345,61.363209540890345 0 0,0 -1.04686833052611,0.11730377999383014 l -4.150185452658558 -40.14927950972922" fill="#30ff32" stroke="none" /><path d="M 102.15924093988457 120.88869738790638 l 2.0054604804355156 19.401010941123765 a40.50438661625104,40.50438661625104 0 0,0 -0.6922400972092687,0.06555585692503359 l -1.6721208198412316 -19.43257855355398" fill="#ffe115" stroke="none" /><path d="M 101.44090949804482 120.95050786540614 l 3.1089286135089935 45.203139724380186 a66.309924719268,66.309924719268 0 0,0 -1.1362857580904595,0.06835612956027308 l -2.3324985032860686 -45.24984783176515" fill="#36ff6f" stroke="none" /><path d="M 101.08105385017728 120.97215588758144 l 0.5404219552154812 10.484041556294354 a31.497960908852054,31.497960908852054 0 0,0 -0.540226386331933,0.023199645480167695 l -0.3603698082827187 -10.491773770200352" fill="#ff6609" stroke="none" /><line stroke="#e1ed5e" stroke-width="0.3" x1="101.45913802915013" x2="101.54496967792366" y1="184.9874750549273" y2="189.98673829345242" /><path d="M 101.47630435890484 185.9873277026323 a86.0,86.0 0 0,1 -42.54439059252881,-10.42667462771756" fill="none" id="id67" stroke="none" /><text fill="#e1ed5e" style="font-size:6.75px; font-family:Arial;" text-anchor="middle"><textPath startOffset="22.145653131862474" xlink:href="#id67">July</textPath></text><path d="M 100.0 121.0 l 1.0901453572638226e-15 8.901712379625081 a29.90171237962508,29.90171237962508 0 0,0 -0.513302654939056,-0.004406085942763042 l 0.1528097300902028 -8.900400691876753" fill="#ff4f07" stroke="none" /><path d="M 99.63950707515114 120.99690560180557 l -0.6202575235596025 36.12689119058649 a57.13221535544158,57.13221535544158 0 0,0 -0.9804614167497213,-0.025253208159389 l 1.2403322543800677 -36.110920265077056" fill="#59ff2a" stroke="none" /><path d="M 98.91894614982273 120.97215588758144 l -2.315159950119461 44.913484532365274 a65.97311484024263,65.97311484024263 0 0,0 -1.1305141896512396,-0.06800892633503479 l 3.085818491903147 -44.86712362820555" fill="#36ff6b" stroke="none" /><path d="M 98.19965949673042 120.92268563240118 l -0.5512140436677527 6.405942726323314 a27.429614229086464,27.429614229086464 0 0,0 -0.46878573919046335,-0.04439449689603252 l 0.6610993462432313 -6.395536473922098" fill="#ff2b04" stroke="none" /><path d="M 96.41257539226777 120.69131181640829 l -0.9977408150898763 5.754703882134643 a26.840556780406448,26.840556780406448 0 0,0 -0.4533053915314682,-0.08260734273412028 l 1.0963809401724018 -5.7367283654691565" fill="#ff2203" stroke="none" /><path d="M 95.70440661134978 120.55596938700252 l -0.874144102918869 4.183095976194186 a25.273455259941283,25.273455259941283 0 0,0 -0.42391718116409965,-0.0923907765823042 l 0.9458237007021051 -4.167473741478163" fill="#ff0a01" stroke="none" /><path d="M 95.35216902796893 120.47920084513623 l -0.9236833345186097 4.069919202901962 a25.173419847153838,25.173419847153838 0 0,0 -0.4205973145129727,-0.09925982099794917 l 0.9934128027714704 -4.053463238257786" fill="#ff0901" stroke="none" /><path d="M 94.6519064749342 120.30758222061772 l -3.0927839313468173 11.743804344868476 a33.14422714447275,33.14422714447275 0 0,0 -0.5489608882139411,-0.14962173120334538 l 3.2939262204954534 -11.688982119520986" fill="#ff7d0b" stroke="none" /><path d="M 94.30408787586889 120.21278271476187 l -1.7589599201685695 6.241928227740294 a27.485029529695336,27.485029529695336 0 0,0 -0.45303179909999597,-0.13187095416182665 l 1.8658517316501722 -6.210813579275952" fill="#ff2b04" stroke="none" /><path d="M 93.95794788825049 120.11202640906438 l -18.12615633524852 60.33607922719316 a84.0,84.0 0 0,0 -1.3774374685134654,-0.4267336487734039 l 19.15923443663362 -60.0160289906131" fill="#4dd2ff" stroke="none" /><path d="M 93.27111125876986 119.89276391827306 l -3.8743437693396348 11.45380892828016 a33.09133072116428,33.09133072116428 0 0,0 -0.5365431955193183,-0.18663757519075494 l 4.070392736903975 -11.385612920520815" fill="#ff7c0b" stroke="none" /><path d="M 92.25597844496254 119.51999308798841 l -4.97568357387975 12.541972963255827 a34.492906019031516,34.492906019031516 0 0,0 -0.5485120040777602,-0.22307505690463553 l 5.190250039147951 -12.454710649771899" fill="#ff900d" stroke="none" /><path d="M 91.92203290615298 119.3841803445677 l -3.3654889578324476 8.075948335561618 a29.749140383143512,29.749140383143512 0 0,0 -0.4697034045181557,-0.2004884530979029 l 3.503627437521035 -8.016985232804311" fill="#ff4d07" stroke="none" /><path d="M 90.6110303473126 118.78422872680471 l -2.7499570181299586 5.501756159436471 a27.15073852797039,27.15073852797039 0 0,0 -0.4151125262715969,-0.21195941370812896 l 2.8439967661151377 -5.453738794055505" fill="#ff2603" stroke="none" /><line stroke="#e1ed5e" stroke-width="0.3" x1="58.13341422392154" x2="55.67067388415222" y1="173.97424548756322" y2="178.32567169271397" /><path d="M 57.64086615596768 174.84453072859336 a86.0,86.0 0 0,1 -31.369924170532247,-30.572349798747897" fill="none" id="id68" stroke="none" /><text fill="#e1ed5e" style="font-size:6.75px; font-family:Arial;" text-anchor="middle"><textPath startOffset="22.145653131862474" xlink:href="#id68">August</textPath></text><path d="M 89.03521579738668 117.91015095944536 l -6.2775797606389645 10.25395476056937 a33.02296119443905,33.02296119443905 0 0,0 -0.48093362413546575,-0.30013815115757625 l 6.452677513564143 -10.144680812570247" fill="#ff7c0b" stroke="none" /><path d="M 84.58840730492382 114.26474011684316 l -30.837797873659053 28.543005330268375 a63.019911125327,63.019911125327 0 0,0 -0.7280369205592726,-0.8002401089914097 l 31.323232495060203 -28.009427645719292" fill="#32ff47" stroke="none" /><line stroke="#e1ed5e" stroke-width="0.3" x1="26.387840678322732" x2="22.057713659400548" y1="142.50000000000003" y2="145.00000000000006" /><path d="M 25.521815274538298 143.00000000000003 a86.0,86.0 0 0,1 -11.493303480769221,-40.785679425670985" fill="none" id="id69" stroke="none" /><text fill="#e1ed5e" style="font-size:6.75px; font-family:Arial;" text-anchor="middle"><textPath startOffset="21.40746469413373" xlink:href="#id69">September</textPath></text><path d="M 79.48165901384964 104.47187691870673 l -9.702375018913951 2.1145874772723747 a30.930133997418295,30.930133997418295 0 0,0 -0.10861232787993826,-0.5197493070107992 l 9.737245057618257 -1.9477217189761666" fill="#ff5e08" stroke="none" /><path d="M 79.34024301695615 103.76489593502545 l -9.704107742021234 1.7684116914332655 a30.863923508379123,30.863923508379123 0 0,0 -0.09051239819853561,-0.5220514600753414 l 9.733034957712004 -1.6015671984373314" fill="#ff5d08" stroke="none" /><path d="M 79.17382384314188 102.69636545807758 l -7.213590368316928 0.9339436942890643 a28.2737979643359,28.2737979643359 0 0,0 -0.0581873600730682,-0.4818748128012448 l 7.228559814649657 -0.8099752045644203" fill="#ff3705" stroke="none" /><path d="M 79.0935383218832 101.97986365728391 l -3.830268022180256 0.362730364015118 a24.847405156558793,24.847405156558793 0 0,0 -0.03656872755955747,-0.42498404569358866 l 3.8359303724375544 -0.2969252709458673" fill="#ff0400" stroke="none" /><path d="M 79.06263194458094 101.62068470465958 l -6.635384608888191 0.5136207338331288 a27.655233667279727,27.655233667279727 0 0,0 -0.0325752825706192,-0.4736374592850166 l 6.643223852623876 -0.39963985039376887" fill="#ff2e04" stroke="none" /><path d="M 79.01933749520258 100.90099992219065 l -3.5950826211398503 0.15438831644021223 a24.598396143433213,24.598396143433213 0 0,0 -0.014495850078595704,-0.4220308586785286 l 3.597203158215294 -0.09265119319756379" fill="#ff0000" stroke="none" /><line stroke="#e1ed5e" stroke-width="0.3" x1="15.003131293944662" x2="10.003315487706104" y1="100.72959589197737" y2="100.7725132973878" /><path d="M 14.003168132696942 100.73817937305945 a86.0,86.0 0 0,1 10.791469493833604,-42.45332614584628" fill="none" id="id70" stroke="none" /><text fill="#e1ed5e" style="font-size:6.75px; font-family:Arial;" text-anchor="middle"><textPath startOffset="22.145653131862435" xlink:href="#id70">October</textPath></text><path d="M 79.00077361379809 99.81974689727619 l -17.859981294265392 -0.1533064591844177 a38.86063925793076,38.86063925793076 0 0,0 0.011451986865108035,-0.6670208222826313 l 17.854717875801615 0.45987419743610136" fill="#ffcb12" stroke="none" /><path d="M 79.01933749520258 99.09900007780938 l -3.5950826211398508 -0.1543883164402077 a24.598396143433213,24.598396143433213 0 0,0 0.021738434968559543,-0.4217198309204507 l 3.591902596714721 0.21607994073737036" fill="#ff0000" stroke="none" /><path d="M 79.34024301695615 96.23510406497455 l -9.861995968087976 -1.7971841857561586 a31.024411976376246,31.024411976376246 0 0,0 0.09997795181938879,-0.5231268905802164 l 9.829691723986427 1.9662136413696896" fill="#ff5f08" stroke="none" /><path d="M 79.407916724674 95.88100663000787 l -4.012255890352848 -0.8025635478503388 a25.091736254697906,25.091736254697906 0 0,0 0.0881105748006025,-0.4216409968080169 l 3.997887604727879 0.8713209959437648" fill="#ff0801" stroke="none" /><path d="M 79.48165901384962 95.52812308129327 l -5.144058881784678 -1.1211236911136415 a26.264813397457132,26.264813397457132 0 0,0 0.09979270630151847,-0.43970507695450844 l 5.124055313925498 1.2092631020071583" fill="#ff1902" stroke="none" /><path d="M 79.56144815229197 95.17655741523228 l -15.727638304816237 -3.711679815797791 a37.15967740092987,37.15967740092987 0 0,0 0.1518458967442956,-0.6195830762560455 l 15.661604881555643 3.981118716661954" fill="#ffb410" stroke="none" /><path d="M 79.64726062577567 94.8264132398404 l -17.121815526408977 -4.3522985524743625 a38.66632586618536,38.66632586618536 0 0,0 0.16904645014991168,-0.6418969057727187 l 17.04457959545434 4.645575962619866" fill="#ffc912" stroke="none" /><path d="M 80.05021161711548 93.44210830539832 l -6.942509948731454 -2.282140915917459 a28.307982727698512,28.307982727698512 0 0,0 0.1557135567108032,-0.46033946192968556 l 6.902310970448285 2.400982052321306" fill="#ff3805" stroke="none" /><path d="M 80.16572619554312 93.10060997987247 l -4.2445694869234645 -1.4764816018238607 a25.49403694353374,25.49403694353374 0 0,0 0.14733104706479447,-0.41211116014586097 l 4.218598269814727 1.5491277183506433" fill="#ff0e01" stroke="none" /><path d="M 80.9802524753101 91.09779779509293 l -6.173340870000961 -2.889435237414462 a27.81608197489119,27.81608197489119 0 0,0 0.20613139607527042,-0.43073533808415687 l 6.122830215965785 2.994983077563706" fill="#ff3004" stroke="none" /><path d="M 81.1358732173502 90.77261029715801 l -6.838808936711442 -3.34520414803164 a28.613126720661647,28.613126720661647 0 0,0 0.21961267848188626,-0.4393724696648852 l 6.780376345017811 3.4621084738602956" fill="#ff3c05" stroke="none" /><line stroke="#e1ed5e" stroke-width="0.3" x1="26.387840678322718" x2="22.05771365940052" y1="57.49999999999999" y2="54.99999999999999" /><path d="M 25.521815274538284 56.99999999999999 a86.0,86.0 0 0,1 29.574782752854787,-30.34633250058573" fill="none" id="id71" stroke="none" /><text fill="#e1ed5e" style="font-size:6.75px; font-family:Arial;" text-anchor="middle"><textPath startOffset="21.40746469413373" xlink:href="#id71">November</textPath></text><path d="M 86.68645165197937 83.75963576809568 l -2.7407607441218187 -3.3432824663652525 a25.323113126720664,25.323113126720664 0 0,0 0.3385449763111331,-0.27270786857479307 l 2.68296499745544 3.3898386287334445" fill="#ff0b01" stroke="none" /><path d="M 87.25179093698888 83.31218511350988 l -2.477584628439989 -3.2432378101629706 a25.08130090588195,25.08130090588195 0 0,0 0.3443865785924333,-0.2584341089285253 l 2.421545060936803 3.285290946355497" fill="#ff0701" stroke="none" /><line stroke="#e1ed5e" stroke-width="0.3" x1="56.869717070023135" x2="54.33264160355391" y1="26.7553504044142" y2="22.446841604673864" /><path d="M 56.362301976729285 25.89364864446614 a86.0,86.0 0 0,1 42.16139366436587,-11.88097634709845" fill="none" id="id72" stroke="none" /><text fill="#e1ed5e" style="font-size:6.75px; font-family:Arial;" text-anchor="middle"><textPath startOffset="22.145653131862474" xlink:href="#id72">December</textPath></text><path d="M 95.70440661134978 79.44403061299748 l -1.1252875585570619 -5.384908326377292 a26.501228024080696,26.501228024080696 0 0,0 0.4461084402027379,-0.08923418203608123 l 1.0326826328233472 5.403431905076239" fill="#ff1d02" stroke="none" /><path d="M 97.48249496171623 79.15144685158666 l -0.808319881550419 -6.694048176726415 a27.742674693565153,27.742674693565153 0 0,0 0.473295444584402,-0.05303374176550849 l 0.6932885353652177 6.706937678998895" fill="#ff2f04" stroke="none" /></svg>