<?xml version="1.0" encoding="utf-8" ?>
<svg baseProfile="full" height="200mm" version="1.1" viewBox="0,0,200,200" width="200mm" xmlns="http://www.w3.org/2000/svg" xmlns:ev="http://www.w3.org/2001/xml-events" xmlns:xlink="http://www.w3.org/1999/xlink"><defs /><rect fill="#1a1a1a" height="200" width="200" x="0" y="0" /><text alignment-baseline="middle" fill="#e1ed5e" style="dominant-baseline: central; font-size:9.0px; font-family:Arial;" text-anchor="middle" x="100.0" y="100.0">2021</text><line stroke="#e1ed5e" stroke-width="0.3" x1="100.0" x2="100.0" y1="15.0" y2="10.0" /><path d="M 100.0 14.0 a86.0,86.0 0 0,1 42.46469731375804,11.215312516191453" fill="none" id="id121" stroke="none" /><text fill="#e1ed5e" style="font-size:6.75px; font-family:Arial;" text-anchor="middle"><textPath startOffset="22.20632615414155" xlink:href="#id121">January</textPath></text><path d="M 100.0 79.0 l 0.0 -10.73987618523114 a31.73987618523114,31.73987618523114 0 0,0 0.5463497931184791,0.004702605158156328 l -0.18486931384595076 10.738284956681541" fill="#ff2703" stroke="none" /><path d="M 100.36148047927253 79.00311137660856 l 0.1447754396146867 -8.409399553496524 a29.410645681412525,29.410645681412525 0 0,0 0.5061059043325512,0.013071222351049325 l -0.28950797914210563 8.405661539003114" fill="#ff0100" stroke="none" /><path d="M 100.72285384407766 79.0124445844662 l 1.6233886538166753 -47.13395330476494 a68.16190141265619,68.16190141265619 0 0,0 1.1722521703312074,0.05047964435240496 l -2.4344816565372143 47.099025933888335" fill="#37ff75" stroke="none" /><path d="M 101.08401301168833 79.027996857942 l 0.43769356698842266 -8.467897306733592 a29.479201640247098,29.479201640247098 0 0,0 0.5065340343671769,0.030555516237474125 l -0.5833896501952115 8.459108521115814" fill="#ff0200" stroke="none" /><path d="M 101.44485096284872 79.0497635885617 l 0.5804560205205954 -8.416571099051437 a29.436563178045105,29.436563178045105 0 0,0 0.5052012457534627,0.039213339856119585 l -0.7252474556363993 8.405332497006853" fill="#ff0100" stroke="none" /><path d="M 101.80526077348638 79.07773832637324 l 0.7215820488147308 -8.36285187493299 a29.393924715843113,29.393924715843113 0 0,0 0.5037207105444271,0.04783435103456111 l -0.8654278864494022 8.349191979383251" fill="#ff0100" stroke="none" /><path d="M 102.16513564639614 79.11191278185805 l 0.9897684966290099 -9.548764631799619 a30.599924357536707,30.599924357536707 0 0,0 0.5234529380624269,0.058816036693509856 l -1.153988138201162 9.530312641635508" fill="#ff1502" stroke="none" /><path d="M 102.52436894288641 79.15227682838746 l 1.5737252563546265 -12.996748587447895 a34.09167999256846,34.09167999256846 0 0,0 0.5819697694171208,0.07555637871456132 l -1.7972097542795933 12.967733885569196" fill="#ff4d07" stroke="none" /><path d="M 102.88285421437855 79.19881850522331 l 2.3139692484135654 -16.696402499131704 a37.85598736638157,37.85598736638157 0 0,0 0.6446893027961412,0.09501044484480872 l -2.601027531638363 16.654097570125927" fill="#ff870c" stroke="none" /><path d="M 103.2404852339499 79.25152402106235 l 7.340389578908294 -46.999719442751044 a68.56947494841052,68.56947494841052 0 0,0 1.1646061459280994,0.19216999280865457 l -8.148324930975269 46.86640318700276" fill="#37ff7a" stroke="none" /><path d="M 103.59715602781102 79.31037775812273 l 1.4546488538504219 -8.366647164610013 a29.49216038856339,29.49216038856339 0 0,0 0.4994074344470909,0.09126351651321943 l -1.5984514094004136 8.340368166746057" fill="#ff0200" stroke="none" /><path d="M 103.95276090670814 79.375362276772 l 2.0207447253862374 -10.543801883257306 a31.73569594383879,31.73569594383879 0 0,0 0.5356284124492556,0.10744202060683448 l -2.201939547302618 10.507455906573263" fill="#ff2703" stroke="none" /><path d="M 104.307194497241 79.44645832069477 l 1.711857526728607 -8.168828931961755 a29.3462699639703,29.3462699639703 0 0,0 0.49351660746337606,0.10786361535490908 l -1.8522168583455108 8.138151818510975" fill="#ff0000" stroke="none" /><path d="M 104.66035177308747 79.52364482259891 l 2.3400866599101233 -10.281722910044046 a31.5446589122083,31.5446589122083 0 0,0 0.5284125622934004,0.12505818116968193 l -2.5167229091660475 10.239918816733494" fill="#ff2403" stroke="none" /><path d="M 105.01212808612495 79.60689891045804 l 2.088206560509231 -8.496392500861525 a29.749245234193047,29.749245234193047 0 0,0 0.49623315113653355,0.12650087931671555 l -2.2341486003307898 8.459188625375942" fill="#ff0701" stroke="none" /><path d="M 105.36241919743992 79.69619591428918 l 5.837713941877236 -22.103419337467024 a43.86132215063466,43.86132215063466 0 0,0 0.7283112197792911,0.19907496848139525 l -6.217323050880237 21.999657828159336" fill="#ffdf14" stroke="none" /><path d="M 105.71112130821622 79.79150937346287 l 17.13336392464865 -60.62547187961136 a84.0,84.0 0 0,0 1.3880391291062915,0.40520668432518603 l -18.174393271478365 60.321566866367476" fill="#4dd2ff" stroke="none" /><line stroke="#e1ed5e" stroke-width="0.3" x1="143.23703022742887" x2="145.7803849466894" y1="26.81831364943548" y2="22.513508569990506" /><path d="M 143.74570117128098 25.957352633546492 a86.0,86.0 0 0,1 28.547481713284135,27.462654790039103" fill="none" id="id122" stroke="none" /><text fill="#e1ed5e" style="font-size:6.75px; font-family:Arial;" text-anchor="middle"><textPath startOffset="19.985693538727396" xlink:href="#id122">February</textPath></text><line stroke="#e1ed5e" stroke-width="0.3" x1="172.23445277983987" x2="176.4835382374775" y1="55.19839476539836" y2="52.563006222186495" /><path d="M 173.08426987136738 54.67131705675599 a86.0,86.0 0 0,1 12.851231095245387,41.99856678651699" fill="none" id="id123" stroke="none" /><text fill="#e1ed5e" style="font-size:6.75px; font-family:Arial;" text-anchor="middle"><textPath startOffset="22.20632615414155" xlink:href="#id123">March</textPath></text><line stroke="#e1ed5e" stroke-width="0.3" x1="184.98032266829074" x2="189.97916517819016" y1="98.17113171792111" y2="98.06355123074" /><path d="M 185.9800911702706 98.14961562048488 a86.0,86.0 0 0,1 -9.607161424134198,41.387399972396054" fill="none" id="id124" stroke="none" /><text fill="#e1ed5e" style="font-size:6.75px; font-family:Arial;" text-anchor="middle"><textPath startOffset="21.466115282336823" xlink:href="#id124">April</textPath></text><line stroke="#e1ed5e" stroke-width="0.3" x1="174.80103733775053" x2="179.2010983576182" y1="140.37084112569926" y2="142.7455964860345" /><path d="M 175.68104954172406 140.8457921977663 a86.0,86.0 0 0,1 -30.038265399797805,32.042727171017184" fill="none" id="id125" stroke="none" /><text fill="#e1ed5e" style="font-size:6.75px; font-family:Arial;" text-anchor="middle"><textPath startOffset="22.206326154141568" xlink:href="#id125">May</textPath></text><line stroke="#e1ed5e" stroke-width="0.3" x1="143.8653032363475" x2="146.44561519142675" y1="172.8068346515853" y2="177.08958963109032" /><path d="M 144.38136562736335 173.6633856474863 a86.0,86.0 0 0,1 -40.68145358897372,12.25698825130547" fill="none" id="id126" stroke="none" /><text fill="#e1ed5e" style="font-size:6.75px; font-family:Arial;" text-anchor="middle"><textPath startOffset="21.466115282336833" xlink:href="#id126">June</textPath></text><line stroke="#e1ed5e" stroke-width="0.3" x1="102.19456741930631" x2="102.32365962044197" y1="184.97166512339345" y2="189.96999836594603" /><path d="M 102.22038585953345 185.97133177190398 a86.0,86.0 0 0,1 -42.740103519485714,-10.115201625700543" fill="none" id="id127" stroke="none" /><text fill="#e1ed5e" style="font-size:6.75px; font-family:Arial;" text-anchor="middle"><textPath startOffset="22.20632615414155" xlink:href="#id127">July</textPath></text><line stroke="#e1ed5e" stroke-width="0.3" x1="58.666819895761336" x2="56.23545636021788" y1="174.27360380694188" y2="178.64263932499728" /><path d="M 58.180547188652646 175.14741091055294 a86.0,86.0 0 0,1 -31.652253787137756,-30.449443065178592" fill="none" id="id128" stroke="none" /><text fill="#e1ed5e" style="font-size:6.75px; font-family:Arial;" text-anchor="middle"><textPath startOffset="22.20632615414155" xlink:href="#id128">August</textPath></text><line stroke="#e1ed5e" stroke-width="0.3" x1="26.63291911575756" x2="22.317208475507996" y1="142.92168965132927" y2="145.44649492493687" /><path d="M 25.769776987707644 143.4266507060508 a86.0,86.0 0 0,1 -11.730757126820373,-40.83630448921669" fill="none" id="id129" stroke="none" /><text fill="#e1ed5e" style="font-size:6.75px; font-family:Arial;" text-anchor="middle"><textPath startOffset="21.46611528233685" xlink:href="#id129">September</textPath></text><line stroke="#e1ed5e" stroke-width="0.3" x1="15.007084014347285" x2="10.007500721073583" y1="101.09737516637583" y2="101.16192664675087" /><path d="M 14.007167355692545 101.11028546245083 a86.0,86.0 0 0,1 10.666146001902534,-42.60595125391555" fill="none" id="id130" stroke="none" /><text fill="#e1ed5e" style="font-size:6.75px; font-family:Arial;" text-anchor="middle"><textPath startOffset="22.20632615414155" xlink:href="#id130">October</textPath></text><line stroke="#e1ed5e" stroke-width="0.3" x1="26.266209847984243" x2="21.928928074336255" y1="57.711370442889674" y2="55.22380399835377" /><path d="M 25.398753493254645 57.213857153982495 a86.0,86.0 0 0,1 29.58750427330803,-30.492523968695096" fill="none" id="id131" stroke="none" /><text fill="#e1ed5e" style="font-size:6.75px; font-family:Arial;" text-anchor="middle"><textPath startOffset="21.46611528233685" xlink:href="#id131">November</textPath></text><line stroke="#e1ed5e" stroke-width="0.3" x1="56.762969772571076" x2="54.21961505331055" y1="26.818313649435495" y2="22.513508569990535" /><path d="M 56.25429882871897 25.957352633546506 a86.0,86.0 0 0,1 42.265352541879196,-11.944610805530505" fill="none" id="id132" stroke="none" /><text fill="#e1ed5e" style="font-size:6.75px; font-family:Arial;" text-anchor="middle"><textPath startOffset="22.20632615414155" xlink:href="#id132">December</textPath></text></svg>