<?xml version="1.0" encoding="utf-8" ?>
<svg baseProfile="full" height="200mm" version="1.1" viewBox="0,0,200,200" width="200mm" xmlns="http://www.w3.org/2000/svg" xmlns:ev="http://www.w3.org/2001/xml-events" xmlns:xlink="http://www.w3.org/1999/xlink"><defs /><rect fill="#1a1a1a" height="200" width="200" x="0" y="0" /><text alignment-baseline="middle" fill="#e1ed5e" style="dominant-baseline: central; font-size:9.0px; font-family:Arial;" text-anchor="middle" x="100.0" y="100.0">2015</text><line stroke="#e1ed5e" stroke-width="0.3" x1="100.0" x2="100.0" y1="15.0" y2="10.0" /><path d="M 100.0 14.0 a86.0,86.0 0 0,1 42.46469731375804,11.215312516191453" fill="none" id="id49" stroke="none" /><text fill="#e1ed5e" style="font-size:6.75px; font-family:Arial;" text-anchor="middle"><textPath startOffset="22.20632615414155" xlink:href="#id49">January</textPath></text><line stroke="#e1ed5e" stroke-width="0.3" x1="143.23703022742887" x2="145.7803849466894" y1="26.81831364943548" y2="22.513508569990506" /><path d="M 143.74570117128098 25.957352633546492 a86.0,86.0 0 0,1 28.547481713284135,27.462654790039103" fill="none" id="id50" stroke="none" /><text fill="#e1ed5e" style="font-size:6.75px; font-family:Arial;" text-anchor="middle"><textPath startOffset="19.985693538727396" xlink:href="#id50">February</textPath></text><line stroke="#e1ed5e" stroke-width="0.3" x1="172.23445277983987" x2="176.4835382374775" y1="55.19839476539836" y2="52.563006222186495" /><path d="M 173.08426987136738 54.67131705675599 a86.0,86.0 0 0,1 12.851231095245387,41.99856678651699" fill="none" id="id51" stroke="none" /><text fill="#e1ed5e" style="font-size:6.75px; font-family:Arial;" text-anchor="middle"><textPath startOffset="22.20632615414155" xlink:href="#id51">March</textPath></text><line stroke="#e1ed5e" stroke-width="0.3" x1="184.98032266829074" x2="189.97916517819016" y1="98.17113171792111" y2="98.06355123074" /><path d="M 185.9800911702706 98.14961562048488 a86.0,86.0 0 0,1 -9.607161424134198,41.387399972396054" fill="none" id="id52" stroke="none" /><text fill="#e1ed5e" style="font-size:6.75px; font-family:Arial;" text-anchor="middle"><textPath startOffset="21.466115282336823" xlink:href="#id52">April</textPath></text><line stroke="#e1ed5e" stroke-width="0.3" x1="174.80103733775053" x2="179.2010983576182" y1="140.37084112569926" y2="142.7455964860345" /><path d="M 175.68104954172406 140.8457921977663 a86.0,86.0 0 0,1 -30.038265399797805,32.042727171017184" fill="none" id="id53" stroke="none" /><text fill="#e1ed5e" style="font-size:6.75px; font-family:Arial;" text-anchor="middle"><textPath startOffset="22.206326154141568" xlink:href="#id53">May</textPath></text><line stroke="#e1ed5e" stroke-width="0.3" x1="143.8653032363475" x2="146.44561519142675" y1="172.8068346515853" y2="177.08958963109032" /><path d="M 144.38136562736335 173.6633856474863 a86.0,86.0 0 0,1 -40.68145358897372,12.25698825130547" fill="none" id="id54" stroke="none" /><text fill="#e1ed5e" style="font-size:6.75px; font-family:Arial;" text-anchor="middle"><textPath startOffset="21.466115282336833" xlink:href="#id54">June</textPath></text><path d="M 101.62511606390274 120.93702456842531 l 1.234911793998739 15.909865852102794 a36.95772034379797,36.95772034379797 0 0,0 -0.6346823920329363,0.04377141370735344 l -0.9608666411868725 -15.928765610326431" fill="#ff9b0e" stroke="none" /><line stroke="#e1ed5e" stroke-width="0.3" x1="102.19456741930631" x2="102.32365962044197" y1="184.97166512339345" y2="189.96999836594603" /><path d="M 102.22038585953345 185.97133177190398 a86.0,86.0 0 0,1 -42.740103519485714,-10.115201625700543" fill="none" id="id55" stroke="none" /><text fill="#e1ed5e" style="font-size:6.75px; font-family:Arial;" text-anchor="middle"><textPath startOffset="22.20632615414155" xlink:href="#id55">July</textPath></text><path d="M 100.54218724476979 120.99299961872073 l 0.6213134311083384 24.05669397092032 a45.06471597983632,45.06471597983632 0 0,0 -0.775628805650042,0.013353153290130869 l -0.20712493556562842 -24.06382460148961" fill="#f4ff19" stroke="none" /><path d="M 100.18074693466247 120.99922214144158 l 0.2526421453245639 29.352024928490696 a50.35311219370671,50.35311219370671 0 0,0 -0.8667781599740185,0.0 l 0.2526421453245437 -29.352024928490696" fill="#b2ff20" stroke="none" /><path d="M 99.09653310690486 120.98055641714683 l -1.7050953972940106 39.596193787454375 a60.632889281094734,60.632889281094734 0 0,0 -1.042342689382813,-0.05387721097863073 l 2.3864261550903128 -39.56097676971354" fill="#3dff2e" stroke="none" /><path d="M 98.37488393609728 120.93702456842531 l -3.179440380210772 40.962010549851605 a62.08521813764008,62.08521813764008 0 0,0 -1.0647782903108083,-0.09187355124140255 l 3.8840629882631217 -40.90121274633154" fill="#30ff32" stroke="none" /><path d="M 98.01472825383883 120.90594882070398 l -1.5040192006083066 15.838108054513482 a36.90936015376619,36.90936015376619 0 0,0 -0.6319715614970803,-0.06550643632498314 l 1.7764233587109803 -15.809872249732738" fill="#ff9b0e" stroke="none" /><path d="M 97.65516085044442 120.86867818915974 l -5.278290382329819 46.97590595869009 a68.2715145727307,68.2715145727307 0 0,0 -1.1667035412809756,-0.1412715508989367 l 6.086121346662184 -46.87808887906581" fill="#38ff80" stroke="none" /><path d="M 96.93821686468263 120.77559828337769 l -5.961821746121147 40.453686025571436 a61.890635010819246,61.890635010819246 0 0,0 -1.0526245335409394,-0.16439830382218926 l 6.657282143270603 -40.34506941440214" fill="#2fff2f" stroke="none" /><path d="M 96.22490169976321 120.6578951692458 l -7.050123740761122 38.57931783066918 a60.21821017129457,60.21821017129457 0 0,0 -1.0180673715875108,-0.1951150347855074 l 7.7131587269203274 -38.45224559753521" fill="#41ff2d" stroke="none" /><path d="M 95.86986931433489 120.58985236759428 l -9.427859696039942 47.0005077460629 a68.93675277734124,68.93675277734124 0 0,0 -1.1614481787597508,-0.24339275840823116 l 10.235499336229081 -46.83125900692813" fill="#39ff88" stroke="none" /><path d="M 95.51606077576429 120.51570834832081 l -10.63056710499765 48.638842632966096 a70.7870060321797,70.7870060321797 0 0,0 -1.188142538626154,-0.27041737353130707 l 11.466229793016668 -48.4486485258571" fill="#3bff9e" stroke="none" /><path d="M 92.40401165467489 119.57807347666478 l -10.111104078224399 26.060590087070427 a48.95333220506993,48.95333220506993 0 0,0 -0.782971073581159,-0.31156034885932016 l 10.558196227847416 -25.88268289380504" fill="#c3ff1e" stroke="none" /><path d="M 91.07499286063937 119.00905698771935 l -2.6149365718927466 5.569460902183841 a27.15278701207645,27.15278701207645 0 0,0 -0.4213690150344416,-0.20228273376940883 l 2.71041825492743 -5.52362389191487" fill="#ff0901" stroke="none" /><line stroke="#e1ed5e" stroke-width="0.3" x1="58.666819895761336" x2="56.23545636021788" y1="174.27360380694188" y2="178.64263932499728" /><path d="M 58.180547188652646 175.14741091055294 a86.0,86.0 0 0,1 -31.652253787137756,-30.449443065178592" fill="none" id="id56" stroke="none" /><text fill="#e1ed5e" style="font-size:6.75px; font-family:Arial;" text-anchor="middle"><textPath startOffset="22.20632615414155" xlink:href="#id56">August</textPath></text><path d="M 89.7882731507175 118.34994917583269 l -4.316804057589598 7.75707539262698 a29.87733157646604,29.87733157646604 0 0,0 -0.4472369534364786,-0.2539528143287253 l 4.449689777947284 -7.681619412503622" fill="#ff3304" stroke="none" /><path d="M 88.8546689885994 117.79835938074946 l -33.435993034201786 53.395078142248366 a84.0,84.0 0 0,0 -1.2188727918123061,-0.7779422847047832 l 34.350147628061016 -52.81162142871978" fill="#4dd2ff" stroke="none" /><path d="M 88.24862548938628 117.40417183066458 l -6.24297541938688 9.246051756370253 a32.156353130326515,32.156353130326515 0 0,0 -0.45607373311918686,-0.31369167234170237 l 6.401206037128958 -9.13721929466345" fill="#ff5507" stroke="none" /><path d="M 87.95078237400918 117.19931262002967 l -8.801057464251093 12.562818882778105 a36.33893838472976,36.33893838472976 0 0,0 -0.5092169762670989,-0.3633127920173034 l 9.01600176836708 -12.409461828916582" fill="#ff930d" stroke="none" /><path d="M 87.07902340077011 116.55440617244103 l -10.30259004142625 13.199718989049291 a37.74443020683486,37.74443020683486 0 0,0 -0.5087275315093918,-0.4041639185103558 l 10.528275065653 -13.020421156533805" fill="#ffa70f" stroke="none" /><path d="M 86.51685102203217 116.09983520530335 l -7.093310227466019 8.469914996037367 a32.0478282944284,32.0478282944284 0 0,0 -0.4198792364060895,-0.3578301943507737 l 7.238054940449166 -8.346560411463644" fill="#ff5407" stroke="none" /><path d="M 86.24171649860922 115.8653595955263 l -17.223592011638566 19.861378838694314 a47.28928472129879,47.28928472129879 0 0,0 -0.6103867737755097,-0.5385953594036166 l 17.56292113832066 -19.56196033751841" fill="#d8ff1c" stroke="none" /><path d="M 85.97065885151581 115.62618273729859 l -41.85372905578307 46.61758606773298 a83.64929342504504,83.64929342504504 0 0,0 -1.0631444810439903,-0.9711572765213311 l 42.64997308629392 -45.890236024625075" fill="#4dd5ff" stroke="none" /><path d="M 85.44109423537348 115.13401014063109 l -14.153235300699142 14.71231492437739 a41.414854393578565,41.414854393578565 0 0,0 -0.5095014097585986,-0.49865436528062396 l 14.404386662833536 -14.466510456174197" fill="#ffd914" stroke="none" /><path d="M 84.9287848128048 114.62390073753433 l -31.23957213493207 30.3123800111642 a64.52874049538823,64.52874049538823 0 0,0 -0.7666427619698443,-0.8038218709280094 l 31.756721448280874 -29.770151023653693" fill="#33ff51" stroke="none" /><path d="M 83.50135304334701 112.99209946851258 l -4.401041948055355 3.465664481727366 a26.60178547683232,26.60178547683232 0 0,0 -0.2801968379667954,-0.36219218398594477 l 4.46004560324022 -3.3893943036281686" fill="#ff0000" stroke="none" /><path d="M 82.85270091963577 112.12312394758628 l -20.46190186247518 14.466544924628682 a46.05933658112012,46.05933658112012 0 0,0 -0.4521252314069545,-0.6513201169349043 l 20.707888001044267 -14.112183545506765" fill="#e7ff1a" stroke="none" /><path d="M 82.6465618267979 111.8261652097733 l -10.711562482996976 7.299804587102005 a33.962434873009926,33.962434873009926 0 0,0 -0.3250639972459672,-0.4859265706204001 l 10.835629585653674 -7.114341102275785" fill="#ff700a" stroke="none" /><path d="M 82.05923443525364 110.91462005526583 l -7.260736674919447 4.4172129579466075 a29.498827411965237,29.498827411965237 0 0,0 -0.260178427674914,-0.436074010218356 l 7.335695978292593 -4.291576853842141" fill="#ff2d04" stroke="none" /><line stroke="#e1ed5e" stroke-width="0.3" x1="26.63291911575756" x2="22.317208475507996" y1="142.92168965132927" y2="145.44649492493687" /><path d="M 25.769776987707644 143.4266507060508 a86.0,86.0 0 0,1 -11.730757126820373,-40.83630448921669" fill="none" id="id57" stroke="none" /><text fill="#e1ed5e" style="font-size:6.75px; font-family:Arial;" text-anchor="middle"><textPath startOffset="21.46611528233685" xlink:href="#id57">September</textPath></text><path d="M 81.51974371655577 109.97397251340807 l -15.455095318993482 8.341263970556442 a38.56236475949857,38.56236475949857 0 0,0 -0.3102388001444918,-0.5868548933289357 l 15.596386627362861 -8.073994062141379" fill="#ffb210" stroke="none" /><path d="M 80.20201598880116 107.00284435728193 l -45.179625118649916 15.980712109237238 a68.92266358811939,68.92266358811939 0 0,0 -0.38599700922752983,-1.1218879900101235 l 45.44801295882067 -15.200651416137818" fill="#39ff88" stroke="none" /><path d="M 79.50377843672027 104.57218783832718 l -20.650210196448004 4.606538801681026 a42.15777353335832,42.15777353335832 0 0,0 -0.15190040283994702,-0.7096281118202462 l 20.726444638012392 -4.250396870444616" fill="#ffe315" stroke="none" /><path d="M 79.4281124754447 104.21870165774334 l -28.411153634785293 5.826309364874892 a50.00240561875174,50.00240561875174 0 0,0 -0.16565098620354624,-0.8446508098491593 l 28.507234553964505 -5.336394827957778" fill="#b6ff1f" stroke="none" /><line stroke="#e1ed5e" stroke-width="0.3" x1="15.007084014347285" x2="10.007500721073583" y1="101.09737516637583" y2="101.16192664675087" /><path d="M 14.007167355692545 101.11028546245083 a86.0,86.0 0 0,1 10.666146001902534,-42.60595125391555" fill="none" id="id58" stroke="none" /><text fill="#e1ed5e" style="font-size:6.75px; font-family:Arial;" text-anchor="middle"><textPath startOffset="22.20632615414155" xlink:href="#id58">October</textPath></text><line stroke="#e1ed5e" stroke-width="0.3" x1="26.266209847984243" x2="21.928928074336255" y1="57.711370442889674" y2="55.22380399835377" /><path d="M 25.398753493254645 57.213857153982495 a86.0,86.0 0 0,1 29.58750427330803,-30.492523968695096" fill="none" id="id59" stroke="none" /><text fill="#e1ed5e" style="font-size:6.75px; font-family:Arial;" text-anchor="middle"><textPath startOffset="21.46611528233685" xlink:href="#id59">November</textPath></text><line stroke="#e1ed5e" stroke-width="0.3" x1="56.762969772571076" x2="54.21961505331055" y1="26.818313649435495" y2="22.513508569990535" /><path d="M 56.25429882871897 25.957352633546506 a86.0,86.0 0 0,1 42.265352541879196,-11.944610805530505" fill="none" id="id60" stroke="none" /><text fill="#e1ed5e" style="font-size:6.75px; font-family:Arial;" text-anchor="middle"><textPath startOffset="22.20632615414155" xlink:href="#id60">December</textPath></text></svg>