<?xml version="1.0" encoding="utf-8" ?>
<svg baseProfile="full" height="200mm" version="1.1" viewBox="0,0,200,200" width="200mm" xmlns="http://www.w3.org/2000/svg" xmlns:ev="http://www.w3.org/2001/xml-events" xmlns:xlink="http://www.w3.org/1999/xlink"><defs /><rect fill="#1a1a1a" height="200" width="200" x="0" y="0" /><text alignment-baseline="middle" fill="#e1ed5e" style="dominant-baseline: central; font-size:9.0px; font-family:Arial;" text-anchor="middle" x="100.0" y="100.0">2021</text><line stroke="#e1ed5e" stroke-width="0.3" x1="100.0" x2="100.0" y1="15.0" y2="10.0" /><path d="M 100.0 14.0 a86.0,86.0 0 0,1 42.46469731375804,11.215312516191453" fill="none" id="id121" stroke="none" /><text fill="#e1ed5e" style="font-size:6.75px; font-family:Arial;" text-anchor="middle"><textPath startOffset="22.20632615414155" xlink:href="#id121">January</textPath></text><path d="M 100.0 79.0 l 0.0 -7.496380553638666 a28.496380553638666,28.496380553638666 0 0,0 0.49051834762198393,0.00422204628015158 l -0.12903786834945555 7.495269883967073" fill="#ff2603" stroke="none" /><path d="M 100.36148047927253 79.00311137660856 l 0.10105254208279024 -5.869719370442845 a26.870589161575978,26.870589161575978 0 0,0 0.46239596283881085,0.011942323519154608 l -0.20207514011646888 5.867110254781331" fill="#ff0d01" stroke="none" /><path d="M 100.72285384407766 79.0124445844662 l 1.1331172655606425 -32.89926670251911 a53.918774343845094,53.918774343845094 0 0,0 0.9272980790766934,0.039931405908367135 l -1.6992561770266674 32.87488757008654" fill="#84ff25" stroke="none" /><path d="M 101.08401301168833 79.027996857942 l 0.30550794882875465 -5.910550513394098 a26.9184408823761,26.9184408823761 0 0,0 0.46253309792517244,0.027901259589947155 l -0.40720309559353896 5.904415984423847" fill="#ff0d01" stroke="none" /><path d="M 101.44485096284872 79.0497635885617 l 0.4051554365642282 -5.874725073833666 a26.888679446268707,26.888679446268707 0 0,0 0.4614735175012578,0.0358192265527519 l -0.5062191434278271 5.86688058509245" fill="#ff0d01" stroke="none" /><path d="M 101.80526077348638 79.07773832637324 l 0.5036607075627175 -5.837229320615218 a26.85891801016131,26.85891801016131 0 0,0 0.4602785574000168,0.04370899513851123 l -0.6040643920529785 5.8276947809615285" fill="#ff0c01" stroke="none" /><path d="M 102.16513564639614 79.11191278185805 l 0.6908535240785187 -6.66499056995924 a27.70069980594395,27.70069980594395 0 0,0 0.47385779554175045,0.053243444564954306 l -0.8054780231299944 6.652111171923686" fill="#ff1902" stroke="none" /><path d="M 102.52436894288641 79.15227682838746 l 1.098452459324414 -9.071666348021163 a30.137928000111156,30.137928000111156 0 0,0 0.5144763476824207,0.0667937954992233 l -1.2544435355146808 9.051414229357803" fill="#ff3e05" stroke="none" /><path d="M 102.88285421437855 79.19881850522331 l 1.6151391111360387 -11.654006512880597 a32.76539596233738,32.76539596233738 0 0,0 0.557996284031882,0.08223414742214746 l -1.8155043755965765 11.624477881297482" fill="#ff6509" stroke="none" /><path d="M 103.2404852339499 79.25152402106235 l 5.12355568597049 -32.80557212955704 a54.20325865957753,54.20325865957753 0 0,0 0.9206056807605432,0.15190782537934705 l -5.687490572869908 32.71251804123807" fill="#81ff25" stroke="none" /><path d="M 103.59715602781102 79.31037775812273 l 1.0153377182664782 -5.839878414072122 a26.927486024722462,26.927486024722462 0 0,0 0.455978352705941,0.08332712941672878 l -1.11571119207532 5.821535803304655" fill="#ff0d01" stroke="none" /><path d="M 103.95276090670814 79.375362276772 l 1.4104698417365678 -7.359521658895897 a28.493462765785,28.493462765785 0 0,0 0.4809066816567596,0.09646535620517521 l -1.5369429328604525 7.3341523466135135" fill="#ff2603" stroke="none" /><path d="M 104.307194497241 79.44645832069477 l 1.1948681020750644 -5.701802264328536 a26.825655228629522,26.825655228629522 0 0,0 0.4511273963494986,0.09859897563733966 l -1.292838222578091 5.680389790595326" fill="#ff0c01" stroke="none" /><path d="M 104.66035177308747 79.52364482259891 l 1.6333689354168257 -7.1765918294985 a28.360119860872466,28.360119860872466 0 0,0 0.47506754295041076,0.1124331385996463 l -1.75666016532976 7.147412778757985" fill="#ff2303" stroke="none" /><path d="M 105.01212808612495 79.60689891045804 l 1.4575578695877844 -5.930440018212273 a27.10692997772292,27.10692997772292 0 0,0 0.45215793458256054,0.11526512524147403 l -1.55942469285537 5.904471896801931" fill="#ff1001" stroke="none" /><path d="M 105.36241919743992 79.69619591428918 l 4.074695510156108 -15.4280775711515 a36.95708999291394,36.95708999291394 0 0,0 0.6136673946989698,0.1677384803913617 l -4.339660794078789 15.355652549933843" fill="#ffa20e" stroke="none" /><path d="M 105.71112130821622 79.79150937346287 l 11.959003430576901 -42.316280059024294 a64.9736889638148,64.9736889638148 0 0,0 1.0736431267161495,0.31342586992146815 l -12.685636775016478 42.10415586018412" fill="#34ff59" stroke="none" /><path d="M 106.0581310904928 79.89281104454417 l 1.7001273419754814 -5.642793330617275 a26.89334790683457,26.89334790683457 0 0,0 0.44209414639137534,0.13736080328783445 l -1.797006861077575 5.61269239244692" fill="#ff0d01" stroke="none" /><path d="M 106.40334571778207 80.00007090966166 l 2.839285075629699 -8.868098441437695 a30.31153637740428,30.31153637740428 0 0,0 0.49554624393270164,0.16337380545424157 l -2.9915141418048177 8.817910911724217" fill="#ff4106" stroke="none" /><path d="M 106.74666289553966 80.11325718540242 l 7.048192172724671 -20.775542993188736 a42.93855509292923,42.93855509292923 0 0,0 0.6978905510827295,0.2434803098325799 l -7.404764727870675 20.65114183018395" fill="#fff316" stroke="none" /><path d="M 107.08798089147638 80.2323363322302 l 2.0048969973000195 -5.59145547059922 a26.940032512493225,26.940032512493225 0 0,0 0.4351683415475774,0.16027617272867958 l -2.1008476646201735 5.556116030064215" fill="#ff0e01" stroke="none" /><path d="M 107.4271985657038 80.35727306442388 l 2.1931041638917343 -5.800106978628781 a27.200882746610965,27.200882746610965 0 0,0 0.4365312101179996,0.16936732760652984 l -2.2926185390094007 5.761496947131704" fill="#ff1202" stroke="none" /><path d="M 107.76421540070413 80.48803036053334 l 5.457752546845643 -13.715681044103482 a35.761672309266984,35.761672309266984 0 0,0 0.5700004082098077,0.23251747836669262 l -5.693036824643838 13.619702679553209" fill="#ff910d" stroke="none" /><path d="M 108.09893153111575 80.62456947434976 l 19.998322232804668 -47.842866872328386 a72.85434217778128,72.85434217778128 0 0,0 1.152889581960896,0.49360715214357515 l -20.81889557255588 47.49154019222202" fill="#3effb7" stroke="none" /><path d="M 108.43124777332544 80.76684994638697 l 2.3588453687807944 -5.380938640489892 a26.87525762214184,26.87525762214184 0 0,0 0.4220924064092543,0.1893805590575059 l -2.451119893656829 5.339537750915855" fill="#ff0d01" stroke="none" /><path d="M 108.76106565485865 80.91482961587045 l 4.644297641174463 -10.117172418091606 a32.13223599809186,32.13223599809186 0 0,0 0.5006841780113841,0.23507793501820787 l -4.817760030485444 10.035729500433394" fill="#ff5c08" stroke="none" /><path d="M 109.08828744355905 81.06846463323043 l 3.2299814908339384 -6.728276279495346 a28.463409550892244,28.463409550892244 0 0,0 0.439866392291154,0.2158405283785014 l -3.3453191501355244 6.671680590982013" fill="#ff2503" stroke="none" /><path d="M 109.41281617654863 81.2277094730956 l 6.706463141631785 -13.374921186323405 a35.962124334813836,35.962124334813836 0 0,0 0.55097315946455,0.28222985219135904 l -6.935696788685091 13.257498808819546" fill="#ff940d" stroke="none" /><path d="M 109.73455568895987 81.39251694778311 l 8.327461837839124 -15.917840522635208 a38.964528036236146,38.964528036236146 0 0,0 0.5916206082876377,0.31602323982808794 l -8.600227492655073 15.772138556305366" fill="#ffbd11" stroke="none" /><path d="M 110.05341064243156 81.56283822128135 l 12.205062245581864 -22.38312102674622 a46.494463150191976,46.494463150191976 0 0,0 0.699356233365409,0.38919098669092195 l -12.588542568019308 22.169714642495116" fill="#deff1b" stroke="none" /><path d="M 110.36928655335952 81.73862282372117 l 26.171622644588304 -46.090911845157144 a74.00307525576959,74.00307525576959 0 0,0 1.1023049403628065,0.6385261703188927 l -26.961124317416438 45.6335815174482" fill="#40ffc4" stroke="none" /><line stroke="#e1ed5e" stroke-width="0.3" x1="143.23703022742887" x2="145.7803849466894" y1="26.81831364943548" y2="22.513508569990506" /><path d="M 143.74570117128098 25.957352633546492 a86.0,86.0 0 0,1 28.547481713284135,27.462654790039103" fill="none" id="id122" stroke="none" /><text fill="#e1ed5e" style="font-size:6.75px; font-family:Arial;" text-anchor="middle"><textPath startOffset="19.985693538727396" xlink:href="#id122">February</textPath></text><path d="M 110.68208982089419 81.91981866633111 l 3.160294074430918 -5.349017925468745 a27.212845676811,27.212845676811 0 0,0 0.4012442527479073,0.24174517272802734 l -3.2519003933964625 5.293826143282103" fill="#ff1202" stroke="none" /><path d="M 110.99172775467656 82.1063720568725 l 5.466668603842874 -8.89928646967467 a31.444221622197418,31.444221622197418 0 0,0 0.4587574892192025,0.28727389766257166 l -5.619045245434339 8.803868230689154" fill="#ff5207" stroke="none" /><path d="M 111.2981086023043 82.29822771554956 l 3.17567496340653 -4.975618223406668 a26.902684827966304,26.902684827966304 0 0,0 0.38820955227651194,0.2525022915518715 l -3.2608515414673223 4.9202170076952685" fill="#ff0d01" stroke="none" /><path d="M 111.60114157652 82.49532879139004 l 3.2424760063349782 -4.8924906241620345 a26.869422046434508,26.869422046434508 0 0,0 0.38333108138672134,0.25882685730539 l -3.3262117821282415 4.835951854557974" fill="#ff0c01" stroke="none" /><path d="M 111.90073688211348 82.69761687909136 l 6.242847774619796 -9.07642484931579 a32.016108041515956,32.016108041515956 0 0,0 0.45137964870563513,0.3162202896913266 l -6.3981585629090825 8.967619716860527" fill="#ff5a08" stroke="none" /><path d="M 112.19680574252982 82.90503203632743 l 8.048749594632943 -11.281077961920028 a34.85803341098663,34.85803341098663 0 0,0 0.4854473873209123,0.35269817199773107 l -8.241742298307644 11.140860555105622" fill="#ff840c" stroke="none" /><path d="M 112.48926042617603 83.11751280151076 l 36.52500022985549 -49.37304754354884 a82.41476585910328,82.41476585910328 0 0,0 1.1332181251865894,0.8535163978149922 l -37.36946450880047 48.737014556228004" fill="#4be1ff" stroke="none" /><path d="M 112.77801427241765 83.33499621200491 l 3.8464180107901886 -5.016473557898366 a27.321387384967373,27.321387384967373 0 0,0 0.3707479025044536,0.2893746186105109 l -3.932198468454073 4.949520550064631" fill="#ff1402" stroke="none" /><path d="M 113.06298171725822 83.55741782278167 l 10.076882481817222 -12.683931730421799 a37.19955816355359,37.19955816355359 0 0,0 0.49793663688940254,0.4026301311925763 l -10.293722517271116 12.508595501965093" fill="#ffa50f" stroke="none" /><path d="M 113.34407831869373 83.78471172551755 l 3.9982731643543152 -4.858571001438711 a27.292209506430712,27.292209506430712 0 0,0 0.36018238878285713,0.30164239231466516 l -4.081313090096289 4.7890274517302265" fill="#ff1302" stroke="none" /><path d="M 113.6212207817346 84.01681056812373 l 3.7908045997972954 -4.448143744871618 a26.844329070892982,26.844329070892982 0 0,0 0.3491120352584677,0.3027465167690214 l -3.8668104337025273 4.382232234682925" fill="#ff0c01" stroke="none" /><path d="M 113.89432698308785 84.25364557470407 l 9.659690148336162 -10.947266816117299 a35.59973508338852,35.59973508338852 0 0,0 0.4559970277107173,0.4093986338185117 l -9.84669816364287 10.779369173529489" fill="#ff8e0d" stroke="none" /><path d="M 114.16331599549186 84.49514656593476 l 5.647038201808578 -6.181920934580455 a29.37288402487993,29.37288402487993 0 0,0 0.3703670533331664,0.3442158120135431 l -5.752613138936591 6.083800536492271" fill="#ff3304" stroke="none" /><path d="M 116.15771136456269 86.58626213691792 l 13.491487314543459 -11.200303690118616 a38.53473788539115,38.53473788539115 0 0,0 0.41929741496439116,0.5140090524619294 l -13.682283221584258 10.966410468048586" fill="#ffb711" stroke="none" /><path d="M 116.38621287248628 86.86637796730983 l 15.007344595879061 -12.02845301537358 a40.23289041622476,40.23289041622476 0 0,0 0.4284724651189943,0.5441165186410353 l -15.212171141592021 11.768344102779507" fill="#ffcf13" stroke="none" /><path d="M 117.2510076193507 88.02491185347247 l 26.367515228285587 -18.303471080114875 a53.09770884182349,53.09770884182349 0 0,0 0.5147330690114399,0.7553072640496157 l -26.67867276296576 17.846885792794854" fill="#8eff24" stroke="none" /><path d="M 117.45458315368197 88.32363383020206 l 34.81272500027676 -23.288217248887094 a62.88396930301923,62.88396930301923 0 0,0 0.5941138615127609,0.904876170893089 l -35.20843549714745 22.685523014016333" fill="#31ff3f" stroke="none" /><line stroke="#e1ed5e" stroke-width="0.3" x1="172.23445277983987" x2="176.4835382374775" y1="55.19839476539836" y2="52.563006222186495" /><path d="M 173.08426987136738 54.67131705675599 a86.0,86.0 0 0,1 12.851231095245387,41.99856678651699" fill="none" id="id123" stroke="none" /><text fill="#e1ed5e" style="font-size:6.75px; font-family:Arial;" text-anchor="middle"><textPath startOffset="22.20632615414155" xlink:href="#id123">March</textPath></text><path d="M 118.03404312379186 89.2402003453031 l 25.538003147184337 -15.236949116651882 a50.738093804563796,50.738093804563796 0 0,0 0.4410356266590545,0.753872849759199 l -25.796498448313717 14.795096854538787" fill="#a9ff21" stroke="none" /><path d="M 119.04729006885535 91.15688171328212 l 7.955829796402273 -3.693666852568066 a29.771453845690708,29.771453845690708 0 0,0 0.21179934405613546,0.4666717795607482 l -8.018231457421756 3.556173064165255" fill="#ff3905" stroke="none" /><path d="M 119.47837535516314 92.15188598940014 l 18.947295376672113 -7.634134346282537 a41.42743276351561,41.42743276351561 0 0,0 0.26080827729423506,0.6637286179951339 l -19.075897203848047 7.306856723391619" fill="#ffdf14" stroke="none" /><path d="M 119.85752413597 93.16781622104841 l 54.68188099175187 -18.813859056964386 a78.82792925059167,78.82792925059167 0 0,0 0.4304106521066803,1.2868730660971286 l -54.99762893763032 17.869812887944946" fill="#46fff8" stroke="none" /><path d="M 120.87857604477298 97.74499172005257 l 42.31219419598965 -4.569964352458197 a63.55827007600143,63.55827007600143 0 0,0 0.10811829017999834,1.0887364272587527 l -42.38458961185187 3.8409523944950097" fill="#32ff47" stroke="none" /><path d="M 120.96714384426684 98.82574320788733 l 10.017407729298201 -0.5610210504997691 a31.03310531361588,31.03310531361588 0 0,0 0.025279259867898835,0.533605221702165 l -10.025580597399596 0.38850472217460447" fill="#ff4c07" stroke="none" /><line stroke="#e1ed5e" stroke-width="0.3" x1="184.98032266829074" x2="189.97916517819016" y1="98.17113171792111" y2="98.06355123074" /><path d="M 185.9800911702706 98.14961562048488 a86.0,86.0 0 0,1 -9.607161424134198,41.387399972396054" fill="none" id="id124" stroke="none" /><text fill="#e1ed5e" style="font-size:6.75px; font-family:Arial;" text-anchor="middle"><textPath startOffset="21.466115282336823" xlink:href="#id124">April</textPath></text><path d="M 120.9764740272857 100.99374915477107 l 53.24214349259938 2.5223178607208787 a74.301856731985,74.301856731985 0 0,0 -0.07151960287549589,1.2770305534936484 l -53.19083753883636 -3.43842013054995" fill="#40ffc7" stroke="none" /><path d="M 120.81339534386255 102.79330883721812 l 28.0559637649029 3.7653141271005492 a49.30750241991136,49.30750241991136 0 0,0 -0.12013643587219001,0.8402339526810574 l -27.986993278014108 -4.2476935517620165" fill="#bbff1f" stroke="none" /><path d="M 120.41448212921028 104.9243191809786 l 11.510819163395361 2.7766047277769745 a32.84096666774733,32.84096666774733 0 0,0 -0.1372888238591073,0.548400606555098 l -11.461319025241192 -2.9743331737294687" fill="#ff6709" stroke="none" /><line stroke="#e1ed5e" stroke-width="0.3" x1="174.80103733775053" x2="179.2010983576182" y1="140.37084112569926" y2="142.7455964860345" /><path d="M 175.68104954172406 140.8457921977663 a86.0,86.0 0 0,1 -30.038265399797805,32.042727171017184" fill="none" id="id125" stroke="none" /><text fill="#e1ed5e" style="font-size:6.75px; font-family:Arial;" text-anchor="middle"><textPath startOffset="22.206326154141568" xlink:href="#id125">May</textPath></text><path d="M 118.48025628344425 109.97397251340804 l 41.963483247919484 22.648096544882023 a68.68511511367794,68.68511511367794 0 0,0 -0.5704906854935282,1.035606304391949 l -41.567416152974445 -23.36707336767178" fill="#39ff87" stroke="none" /><path d="M 116.93607887273984 112.41649034213515 l 45.34331033996663 33.24292353307586 a77.2237294886461,77.2237294886461 0 0,0 -0.7951791164621762,1.0652723728151186 l -44.76436995680936 -34.01850878540029" fill="#44ffe7" stroke="none" /><path d="M 116.71984013943494 112.70617746262583 l 11.709084081586056 8.898272891649052 a35.7065261188327,35.7065261188327 0 0,0 -0.37609715039575115,0.48615626529258 l -11.554180113972237 -9.098507151054884" fill="#ff900d" stroke="none" /><path d="M 116.498646956653 112.99209946851258 l 7.552637188561065 5.947433984203427 a30.613235641473345,30.613235641473345 0 0,0 -0.32957639202766936,0.41119722374142426 l -7.449142884478541 -6.076559041523102" fill="#ff4606" stroke="none" /><path d="M 116.27256486870786 113.27417163493432 l 6.865366306103467 5.600349509692809 a29.859862817656786,29.859862817656786 0 0,0 -0.32832198891557157,0.3954849860408727 l -6.767948317294352 -5.717695752847453" fill="#ff3a05" stroke="none" /><path d="M 116.0416608686014 113.55231037782055 l 5.909835324652058 4.992745031672985 a28.73651449399538,28.73651449399538 0 0,0 -0.3224749947303759,0.3751112720514671 l -5.823017820350904 -5.093733402885981" fill="#ff2904" stroke="none" /><path d="M 115.80600337817218 113.82643327865902 l 5.969499166237159 5.22186918186863 a28.9311309438349,28.9311309438349 0 0,0 -0.3311114900959922,0.3720072692116537 l -5.878728826492829 -5.32385062082115" fill="#ff2c04" stroke="none" /><line stroke="#e1ed5e" stroke-width="0.3" x1="143.8653032363475" x2="146.44561519142675" y1="172.8068346515853" y2="177.08958963109032" /><path d="M 144.38136562736335 173.6633856474863 a86.0,86.0 0 0,1 -40.68145358897372,12.25698825130547" fill="none" id="id126" stroke="none" /><text fill="#e1ed5e" style="font-size:6.75px; font-family:Arial;" text-anchor="middle"><textPath startOffset="21.466115282336833" xlink:href="#id126">June</textPath></text><path d="M 109.57404056367764 118.69057910512821 l 6.876803600178019 13.424994475914932 a36.083796088311715,36.083796088311715 0 0,0 -0.5552541762814297,0.2784159708751251 l -6.644695516213829 -13.54137828769936" fill="#ff950d" stroke="none" /><path d="M 106.57524785965236 119.94407469862006 l 1.586705606688343 4.81280338323013 a26.067613944247096,26.067613944247096 0 0,0 -0.4273582412101922,0.13682661330705218 l -1.5036260203872103 -4.839402843196889" fill="#ff0000" stroke="none" /><path d="M 105.18746579009965 120.34920634021253 l 15.562397370298964 61.04761902063758 a84.0,84.0 0 0,0 -1.4041868610271555,0.3451149667438802 l -14.509257224528598 -61.306455245695496" fill="#4dd2ff" stroke="none" /><path d="M 104.83641907484287 120.43548508189849 l 2.9504089427889095 12.466462687132129 a33.81083935030591,33.81083935030591 0 0,0 -0.5675066477665605,0.1291626653886525 l -2.735382145629487 -12.515402086098465" fill="#ff750a" stroke="none" /><line stroke="#e1ed5e" stroke-width="0.3" x1="102.19456741930631" x2="102.32365962044197" y1="184.97166512339345" y2="189.96999836594603" /><path d="M 102.22038585953345 185.97133177190398 a86.0,86.0 0 0,1 -42.740103519485714,-10.115201625700543" fill="none" id="id127" stroke="none" /><text fill="#e1ed5e" style="font-size:6.75px; font-family:Arial;" text-anchor="middle"><textPath startOffset="22.20632615414155" xlink:href="#id127">July</textPath></text><line stroke="#e1ed5e" stroke-width="0.3" x1="58.666819895761336" x2="56.23545636021788" y1="174.27360380694188" y2="178.64263932499728" /><path d="M 58.180547188652646 175.14741091055294 a86.0,86.0 0 0,1 -31.652253787137756,-30.449443065178592" fill="none" id="id128" stroke="none" /><text fill="#e1ed5e" style="font-size:6.75px; font-family:Arial;" text-anchor="middle"><textPath startOffset="22.20632615414155" xlink:href="#id128">August</textPath></text><line stroke="#e1ed5e" stroke-width="0.3" x1="26.63291911575756" x2="22.317208475507996" y1="142.92168965132927" y2="145.44649492493687" /><path d="M 25.769776987707644 143.4266507060508 a86.0,86.0 0 0,1 -11.730757126820373,-40.83630448921669" fill="none" id="id129" stroke="none" /><text fill="#e1ed5e" style="font-size:6.75px; font-family:Arial;" text-anchor="middle"><textPath startOffset="21.46611528233685" xlink:href="#id129">September</textPath></text><line stroke="#e1ed5e" stroke-width="0.3" x1="15.007084014347285" x2="10.007500721073583" y1="101.09737516637583" y2="101.16192664675087" /><path d="M 14.007167355692545 101.11028546245083 a86.0,86.0 0 0,1 10.666146001902534,-42.60595125391555" fill="none" id="id130" stroke="none" /><text fill="#e1ed5e" style="font-size:6.75px; font-family:Arial;" text-anchor="middle"><textPath startOffset="22.20632615414155" xlink:href="#id130">October</textPath></text><line stroke="#e1ed5e" stroke-width="0.3" x1="26.266209847984243" x2="21.928928074336255" y1="57.711370442889674" y2="55.22380399835377" /><path d="M 25.398753493254645 57.213857153982495 a86.0,86.0 0 0,1 29.58750427330803,-30.492523968695096" fill="none" id="id131" stroke="none" /><text fill="#e1ed5e" style="font-size:6.75px; font-family:Arial;" text-anchor="middle"><textPath startOffset="21.46611528233685" xlink:href="#id131">November</textPath></text><line stroke="#e1ed5e" stroke-width="0.3" x1="56.762969772571076" x2="54.21961505331055" y1="26.818313649435495" y2="22.513508569990535" /><path d="M 56.25429882871897 25.957352633546506 a86.0,86.0 0 0,1 42.265352541879196,-11.944610805530505" fill="none" id="id132" stroke="none" /><text fill="#e1ed5e" style="font-size:6.75px; font-family:Arial;" text-anchor="middle"><textPath startOffset="22.20632615414155" xlink:href="#id132">December</textPath></text></svg>